<svg width="80" height="81" viewBox="0 0 80 81" fill="none" xmlns="http://www.w3.org/2000/svg">
<g clip-path="url(#clip0_1_6446)">
<g clip-path="url(#clip1_1_6446)">
<g clip-path="url(#clip2_1_6446)">
<mask id="mask0_1_6446" style="mask-type:luminance" maskUnits="userSpaceOnUse" x="0" y="0" width="80" height="81">
<path d="M79.704 0.622559H0.00250244V80.3241H79.704V0.622559Z" fill="white"/>
</mask>
<g mask="url(#mask0_1_6446)">
<path d="M39.846 77.1359C60.0942 77.1359 76.5087 60.7215 76.5087 40.4732C76.5087 20.225 60.0942 3.81055 39.846 3.81055C19.5977 3.81055 3.18329 20.225 3.18329 40.4732C3.18329 60.7215 19.5977 77.1359 39.846 77.1359Z" fill="#A7FFFF"/>
</g>
<path d="M39.4552 38.334L35.2646 40.4977L34.2002 41.0672H34.1779V46.5201L35.2646 45.9574V41.6098L39.4552 39.4594V38.334Z" fill="url(#paint0_linear_1_6446)"/>
<path d="M34.1767 46.52V41.0671L33.0974 40.5044V47.1698H33.1197L39.6103 50.4992V49.347" fill="url(#paint1_linear_1_6446)"/>
<path d="M39.6108 49.3472V50.4994L45.8632 47.2102V46.0781L39.6108 49.3472Z" fill="url(#paint2_linear_1_6446)"/>
<path d="M39.4542 38.2676V38.3346L38.3526 38.904L34.1769 41.0678L33.0977 40.4984L38.3154 37.792L38.4345 37.7317L39.4542 38.2676Z" fill="url(#paint3_linear_1_6446)"/>
<path d="M44.8516 45.6428L39.6562 48.2353L35.2646 45.9577L34.1779 46.5204L35.2646 47.0831L39.6115 49.3473L45.8713 46.0716L45.3726 45.8572L44.8516 45.6428Z" fill="url(#paint4_linear_1_6446)"/>
<path d="M38.3743 37.7982V38.9839L39.394 39.5198L39.4238 39.4997V38.314L38.404 37.7781L38.3743 37.7982Z" fill="url(#paint5_linear_1_6446)"/>
<path d="M39.5133 44.6644L43.7039 42.4939L44.7608 41.9312H44.7831V36.4783L43.7039 37.041V41.3886L39.5133 43.5323V44.6644Z" fill="url(#paint6_linear_1_6446)"/>
<path d="M44.7839 36.4789V41.9319L45.8631 42.4946V35.8291H45.8408L39.3503 32.4998V33.652" fill="url(#paint7_linear_1_6446)"/>
<path d="M39.3502 33.6517V32.4995L33.0979 35.7887V36.9208L39.3502 33.6517Z" fill="url(#paint8_linear_1_6446)"/>
<path d="M39.5133 44.7318V44.6648L40.6149 44.0887L44.7831 41.9316L45.8698 42.4944L40.6447 45.2007L40.533 45.2677L39.5133 44.7318Z" fill="url(#paint9_linear_1_6446)"/>
<path d="M34.1174 37.3564L39.3128 34.7639L43.7043 37.0415L44.7836 36.4788L43.7043 35.9094L39.35 33.6519L33.0977 36.9276L33.5964 37.142L34.1174 37.3564Z" fill="url(#paint10_linear_1_6446)"/>
<path d="M40.5935 45.2014V44.0157L39.5738 43.4797L39.5366 43.4931V44.6855L40.5563 45.2215L40.5935 45.2014Z" fill="url(#paint11_linear_1_6446)"/>
<path fill-rule="evenodd" clip-rule="evenodd" d="M39.5972 25.446L25.8472 33.4673V38.9998H23.3472V32.7498C23.3472 32.306 23.5834 31.8935 23.9672 31.6698L38.9672 22.9198C39.1622 22.806 39.3797 22.7498 39.5972 22.7498C39.8147 22.7498 40.0322 22.806 40.2272 22.9198L45.5722 26.0373L44.2859 28.181L39.5972 25.446ZM55.2272 31.6704L49.8909 28.5579L48.6047 30.7016L53.3472 33.4679V49.5329L48.6134 52.2941L49.8997 54.4379L55.2272 51.3304C55.6109 51.1066 55.8472 50.6941 55.8472 50.2504V32.7504C55.8472 32.3066 55.6109 31.8941 55.2272 31.6704ZM44.2947 54.8123L39.5972 57.5523L25.8472 49.5323V43.9998H23.3472V50.2498C23.3472 50.6935 23.5834 51.106 23.9672 51.3298L38.9672 60.0798C39.1622 60.1935 39.3797 60.2498 39.5972 60.2498C39.8147 60.2498 40.0322 60.1935 40.2272 60.0798L45.5797 56.9573L44.2947 54.8123Z" fill="#082930"/>
<mask id="mask1_1_6446" style="mask-type:alpha" maskUnits="userSpaceOnUse" x="40" y="15" width="14" height="16">
<path d="M53.1 28.0893L46.5701 30.2586L40.35 28.0713L40.3646 17.6812L46.5916 15.0087L53.1146 17.6992L53.1 28.0893Z" fill="#D9D9D9"/>
</mask>
<g mask="url(#mask1_1_6446)">
<path fill-rule="evenodd" clip-rule="evenodd" d="M48.6705 28.7536C48.679 28.7211 48.7239 28.5079 48.7704 28.2799C49.0788 26.768 49.384 26.0375 49.9204 25.527C50.4416 25.031 51.1693 24.7429 52.6175 24.4594C52.8655 24.4109 53.0844 24.3657 53.1039 24.3591C53.1235 24.3525 52.9154 24.3011 52.6415 24.2449C51.4381 23.9982 50.718 23.7524 50.2314 23.4223C49.9145 23.2072 49.5676 22.798 49.3723 22.4086C49.1535 21.9724 48.887 21.0341 48.7315 20.1523C48.7097 20.0285 48.6848 19.9193 48.6762 19.9096C48.6676 19.9 48.6244 20.0759 48.5802 20.3005C48.1223 22.6238 47.6169 23.3637 46.1425 23.8688C45.8061 23.9841 45.161 24.1443 44.6062 24.2504C44.3877 24.2921 44.2169 24.3335 44.2265 24.3423C44.2362 24.3511 44.3454 24.3764 44.4694 24.3984C45.3492 24.5553 46.2922 24.8255 46.7304 25.0464C47.1154 25.2404 47.5252 25.5895 47.7386 25.9053C48.071 26.397 48.3199 27.1387 48.5674 28.3744C48.6282 28.6782 48.6599 28.7947 48.6705 28.7536ZM43.8398 22.4676C43.8484 22.435 43.8877 22.2522 43.9272 22.0613C44.1029 21.211 44.2818 20.7914 44.6067 20.4678C44.9338 20.142 45.3601 19.963 46.2171 19.7918C46.4141 19.7524 46.5961 19.712 46.6215 19.7019C46.6543 19.689 46.5924 19.6681 46.4081 19.63C45.3644 19.4143 44.9526 19.2497 44.6192 18.915C44.2839 18.5785 44.1052 18.1562 43.9322 17.2926C43.8928 17.0958 43.8527 16.9149 43.8432 16.8906C43.8318 16.8617 43.7951 16.99 43.7364 17.2637C43.5825 17.9821 43.4579 18.348 43.2702 18.6331C42.9363 19.1402 42.5188 19.3538 41.4016 19.5894C41.1275 19.6472 40.9989 19.6835 41.0278 19.695C41.0521 19.7046 41.2331 19.7451 41.43 19.7851C42.2935 19.9601 42.7141 20.1392 43.053 20.4761C43.1903 20.6125 43.2579 20.7046 43.3429 20.8709C43.48 21.1392 43.5966 21.4874 43.6791 21.875C43.8052 22.4668 43.8228 22.5319 43.8398 22.4676Z" fill="#FF0101"/>
</g>
</g>
</g>
</g>
<defs>
<linearGradient id="paint0_linear_1_6446" x1="36.601" y1="41.0656" x2="36.9433" y2="43.7093" gradientUnits="userSpaceOnUse">
<stop stop-color="#149BA1"/>
<stop offset="1" stop-color="#05D776"/>
</linearGradient>
<linearGradient id="paint1_linear_1_6446" x1="36.1403" y1="47.8774" x2="35.1814" y2="45.8058" gradientUnits="userSpaceOnUse">
<stop stop-color="#149BA1"/>
<stop offset="1" stop-color="#05D776"/>
</linearGradient>
<linearGradient id="paint2_linear_1_6446" x1="39.6135" y1="48.2828" x2="45.8692" y2="48.2828" gradientUnits="userSpaceOnUse">
<stop stop-color="#149BA1"/>
<stop offset="1" stop-color="#05D776"/>
</linearGradient>
<linearGradient id="paint3_linear_1_6446" x1="33.8694" y1="40.5119" x2="35.9484" y2="39.3401" gradientUnits="userSpaceOnUse">
<stop stop-color="#149BA1"/>
<stop offset="1" stop-color="#05D776"/>
</linearGradient>
<linearGradient id="paint4_linear_1_6446" x1="33.0986" y1="47.494" x2="45.8698" y2="47.494" gradientUnits="userSpaceOnUse">
<stop stop-color="#149BA1"/>
<stop offset="1" stop-color="#05D776"/>
</linearGradient>
<linearGradient id="paint5_linear_1_6446" x1="38.374" y1="38.6485" x2="39.4261" y2="38.6485" gradientUnits="userSpaceOnUse">
<stop stop-color="#149BA1"/>
<stop offset="1" stop-color="#05D776"/>
</linearGradient>
<linearGradient id="paint6_linear_1_6446" x1="42.3661" y1="41.9306" x2="42.0237" y2="39.287" gradientUnits="userSpaceOnUse">
<stop stop-color="#149BA1"/>
<stop offset="1" stop-color="#05D776"/>
</linearGradient>
<linearGradient id="paint7_linear_1_6446" x1="42.8262" y1="35.1195" x2="43.7851" y2="37.1911" gradientUnits="userSpaceOnUse">
<stop stop-color="#149BA1"/>
<stop offset="1" stop-color="#05D776"/>
</linearGradient>
<linearGradient id="paint8_linear_1_6446" x1="39.3536" y1="34.714" x2="33.0979" y2="34.714" gradientUnits="userSpaceOnUse">
<stop stop-color="#149BA1"/>
<stop offset="1" stop-color="#05D776"/>
</linearGradient>
<linearGradient id="paint9_linear_1_6446" x1="45.0967" y1="42.4855" x2="43.0177" y2="43.6572" gradientUnits="userSpaceOnUse">
<stop stop-color="#149BA1"/>
<stop offset="1" stop-color="#05D776"/>
</linearGradient>
<linearGradient id="paint10_linear_1_6446" x1="45.8688" y1="35.5031" x2="33.0976" y2="35.5031" gradientUnits="userSpaceOnUse">
<stop stop-color="#149BA1"/>
<stop offset="1" stop-color="#05D776"/>
</linearGradient>
<linearGradient id="paint11_linear_1_6446" x1="40.5923" y1="44.3489" x2="39.5402" y2="44.3489" gradientUnits="userSpaceOnUse">
<stop stop-color="#149BA1"/>
<stop offset="1" stop-color="#05D776"/>
</linearGradient>
<clipPath id="clip0_1_6446">
<rect width="79.7015" height="80.9468" fill="white"/>
</clipPath>
<clipPath id="clip1_1_6446">
<rect width="79.7015" height="80.9468" fill="white" transform="translate(-0.000244141)"/>
</clipPath>
<clipPath id="clip2_1_6446">
<rect width="79.7015" height="80.9468" fill="white" transform="translate(-0.000488281)"/>
</clipPath>
</defs>
</svg>
