<svg width="184" height="195" viewBox="0 0 184 195" fill="none" xmlns="http://www.w3.org/2000/svg">
<path d="M184 149.135H0V149.233H184V149.135Z" fill="#EBEBEB"/>
<path d="M165.564 155.413H153.375V155.51H165.564V155.413Z" fill="#EBEBEB"/>
<path d="M121.889 156.471H118.69V156.569H121.889V156.471Z" fill="#EBEBEB"/>
<path d="M153.006 151.791H145.944V151.889H153.006V151.791Z" fill="#EBEBEB"/>
<path d="M35.2 152.446H19.3049V152.544H35.2V152.446Z" fill="#EBEBEB"/>
<path d="M40.8071 152.446H38.4766V152.544H40.8071V152.446Z" fill="#EBEBEB"/>
<path d="M82.8541 154.093H48.3813V154.191H82.8541V154.093Z" fill="#EBEBEB"/>
<path d="M87.2212 131.742H16.1607C15.0026 131.742 14.0602 130.743 14.0602 129.516V23.6573C14.0602 22.4299 15.0026 21.4312 16.1607 21.4312H87.2212C88.3789 21.4312 89.3213 22.4299 89.3213 23.6573V129.516C89.3213 130.743 88.3789 131.742 87.2212 131.742ZM16.1607 21.529C15.053 21.529 14.1522 22.4838 14.1522 23.6577V129.516C14.1522 130.69 15.053 131.645 16.1607 131.645H87.2212C88.3285 131.645 89.2293 130.69 89.2293 129.516V23.6573C89.2293 22.4838 88.3285 21.5287 87.2212 21.5287L16.1607 21.529Z" fill="#EBEBEB"/>
<path d="M166.818 131.742H95.758C94.5999 131.742 93.6578 130.743 93.6578 129.516V23.6573C93.6578 22.4299 94.6003 21.4312 95.758 21.4312H166.818C167.977 21.4312 168.919 22.4299 168.919 23.6573V129.516C168.919 130.743 167.977 131.742 166.818 131.742ZM95.758 21.529C94.6507 21.529 93.7498 22.4838 93.7498 23.6577V129.516C93.7498 130.69 94.6507 131.645 95.758 131.645H166.818C167.926 131.645 168.827 130.69 168.827 129.516V23.6573C168.827 22.4838 167.926 21.5287 166.818 21.5287L95.758 21.529Z" fill="#EBEBEB"/>
<path d="M88.2208 63.2573H32.9438V149.146H88.2208V63.2573Z" fill="#F0F0F0"/>
<path d="M86.2666 65.9609H34.8975V81.8238H86.2666V65.9609Z" fill="#E0E0E0"/>
<path d="M37.8157 68.5293H34.8975V81.824H37.8157V68.5293Z" fill="#EBEBEB"/>
<path d="M51.9259 68.5293H49.0077V81.824H51.9259V68.5293Z" fill="#EBEBEB"/>
<path d="M67.9437 68.2019L65.0677 68.7271L67.1978 81.829L70.0738 81.3038L67.9437 68.2019Z" fill="#EBEBEB"/>
<path d="M41.4317 70.2808H38.5134V81.8236H41.4317V70.2808Z" fill="#EBEBEB"/>
<path d="M48.1388 70.2808H45.2206V81.8236H48.1388V70.2808Z" fill="#EBEBEB"/>
<path d="M65.0686 70.2808H62.1504V81.8236H65.0686V70.2808Z" fill="#EBEBEB"/>
<path d="M55.7589 69.8858L52.9102 70.5566L55.2726 81.8248L58.1213 81.1539L55.7589 69.8858Z" fill="#EBEBEB"/>
<path d="M43.9551 67.8687H42.496V81.8232H43.9551V67.8687Z" fill="#EBEBEB"/>
<path d="M61.3118 67.8687H59.8527V81.8232H61.3118V67.8687Z" fill="#EBEBEB"/>
<path d="M34.898 100.198H86.2671V84.3354H34.898V100.198Z" fill="#E0E0E0"/>
<path d="M83.3487 100.198H86.267V86.9035H83.3487V100.198Z" fill="#EBEBEB"/>
<path d="M69.2386 100.198H72.1569V86.9035H69.2386V100.198Z" fill="#EBEBEB"/>
<path d="M51.0855 99.6726L53.9614 100.198L56.0915 87.0958L53.2156 86.5707L51.0855 99.6726Z" fill="#EBEBEB"/>
<path d="M79.7328 100.198H82.651V88.6554H79.7328V100.198Z" fill="#EBEBEB"/>
<path d="M73.0257 100.198H75.944V88.6554H73.0257V100.198Z" fill="#EBEBEB"/>
<path d="M56.0958 100.198H59.014V88.6554H56.0958V100.198Z" fill="#EBEBEB"/>
<path d="M63.0433 99.5269L65.8921 100.198L68.2545 88.9296L65.4057 88.2588L63.0433 99.5269Z" fill="#EBEBEB"/>
<path d="M77.2096 100.198H78.6687V86.2436H77.2096V100.198Z" fill="#EBEBEB"/>
<path d="M59.8528 100.198H61.3119V86.2436H59.8528V100.198Z" fill="#EBEBEB"/>
<path d="M37.8157 86.9038H34.8975V100.199H37.8157V86.9038Z" fill="#EBEBEB"/>
<path d="M41.4317 88.6558H38.5134V100.199H41.4317V88.6558Z" fill="#EBEBEB"/>
<path d="M48.1388 88.6558H45.2206V100.199H48.1388V88.6558Z" fill="#EBEBEB"/>
<path d="M43.9551 86.2437H42.496V100.198H43.9551V86.2437Z" fill="#EBEBEB"/>
<path d="M86.2666 102.71H34.8975V118.573H86.2666V102.71Z" fill="#E0E0E0"/>
<path d="M67.3002 105.278H64.382V118.573H67.3002V105.278Z" fill="#EBEBEB"/>
<path d="M83.317 104.952L80.441 105.478L82.5711 118.579L85.4471 118.054L83.317 104.952Z" fill="#EBEBEB"/>
<path d="M56.8056 107.03H53.8873V118.573H56.8056V107.03Z" fill="#EBEBEB"/>
<path d="M63.5132 107.03H60.595V118.573H63.5132V107.03Z" fill="#EBEBEB"/>
<path d="M80.443 107.03H77.5248V118.573H80.443V107.03Z" fill="#EBEBEB"/>
<path d="M71.1325 106.635L68.2837 107.306L70.6461 118.574L73.4949 117.903L71.1325 106.635Z" fill="#EBEBEB"/>
<path d="M59.329 104.618H57.8699V118.573H59.329V104.618Z" fill="#EBEBEB"/>
<path d="M76.686 104.618H75.2269V118.573H76.686V104.618Z" fill="#EBEBEB"/>
<path d="M49.7441 104.951L46.8682 105.476L48.9983 118.578L51.8742 118.053L49.7441 104.951Z" fill="#EBEBEB"/>
<path d="M46.8711 107.03H43.9529V118.573H46.8711V107.03Z" fill="#EBEBEB"/>
<path d="M37.5603 106.635L34.7115 107.306L37.074 118.574L39.9227 117.903L37.5603 106.635Z" fill="#EBEBEB"/>
<path d="M43.1138 104.618H41.6547V118.573H43.1138V104.618Z" fill="#EBEBEB"/>
<path d="M23.4075 149.371H32.9438L32.9438 63.2575H23.4075L23.4075 149.371Z" fill="#E0E0E0"/>
<path d="M158.687 40.9645H100.057C99.6257 40.9645 99.2761 40.594 99.2761 40.1369V39.2524C99.2761 38.7953 99.6257 38.4248 100.057 38.4248H158.687C159.118 38.4248 159.468 38.7953 159.468 39.2524V40.1369C159.468 40.5944 159.118 40.9645 158.687 40.9645Z" fill="#E0E0E0"/>
<path d="M155.892 40.4453H102.852V90.3248H155.892V40.4453Z" fill="#E6E6E6"/>
<path d="M154.496 41.8125H104.18V88.9842H154.496V41.8125Z" fill="#F0F0F0"/>
<path d="M115.989 41.8125L104.18 88.8816V66.7639L110.415 41.8125H115.989Z" fill="white"/>
<path d="M120.171 41.8125L108.259 88.9838H106.357L118.27 41.8125H120.171Z" fill="white"/>
<path d="M154.496 71.5781V79.1157L152.086 88.9838H150.185L154.496 71.5781Z" fill="white"/>
<path d="M121.73 40.9644H120.882V90.0373H121.73V40.9644Z" fill="#E6E6E6"/>
<path d="M138.155 40.9644H137.308V90.0373H138.155V40.9644Z" fill="#E6E6E6"/>
<path d="M147.248 39.2363C147.248 39.2363 148.467 56.112 155.486 64.7127C155.486 64.7127 150.374 86.4302 150.378 94.0032L159.877 92.1453L156.453 64.8387L158.091 39.2363H147.248Z" fill="#E0E0E0"/>
<path d="M111.496 39.2363C111.496 39.2363 110.276 56.112 103.258 64.7127C103.258 64.7127 108.369 86.4302 108.366 94.0032L98.8666 92.1453L102.29 64.8387L100.653 39.2363H111.496Z" fill="#E0E0E0"/>
<path d="M92 166.749C131.406 166.749 163.351 164.772 163.351 162.333C163.351 159.894 131.406 157.917 92 157.917C52.5938 157.917 20.6488 159.894 20.6488 162.333C20.6488 164.772 52.5938 166.749 92 166.749Z" fill="#F5F5F5"/>
<path d="M108.77 163.41H110.795L111.125 109.741H108.439L108.77 163.41Z" fill="#407BFF"/>
<path opacity="0.4" d="M108.438 109.827L108.491 118.486L108.768 163.41H110.794L111.072 118.486L111.125 109.827H108.438Z" fill="white"/>
<path opacity="0.2" d="M108.438 109.827L108.491 118.583H111.072L111.125 109.827H108.438Z" fill="black"/>
<path d="M87.2769 163.41H89.3012L92.9385 109.741H90.2529L87.2769 163.41Z" fill="#407BFF"/>
<path opacity="0.5" d="M87.2753 163.41H89.3011L92.761 112.407L92.9395 109.827H90.2528L90.1074 112.407L87.2753 163.41Z" fill="white"/>
<path opacity="0.2" d="M90.1074 112.279H92.7611L92.9395 109.827H90.2528L90.1074 112.279Z" fill="black"/>
<path d="M130.263 163.41H132.288L129.312 109.741H126.626L130.263 163.41Z" fill="#407BFF"/>
<path opacity="0.5" d="M126.626 109.827L126.805 112.407L130.265 163.41H132.287L129.458 112.407L129.313 109.827H126.626Z" fill="white"/>
<path opacity="0.2" d="M129.313 109.827H126.626L126.805 112.279H129.458L129.313 109.827Z" fill="black"/>
<path d="M88.9194 111.085H130.645C131.084 111.085 131.44 110.707 131.44 110.242V108.397H88.1238V110.242C88.1238 110.707 88.48 111.085 88.9194 111.085Z" fill="#407BFF"/>
<path opacity="0.6" d="M88.9194 111.085H130.645C131.084 111.085 131.44 110.707 131.44 110.242V108.397H88.1238V110.242C88.1238 110.707 88.48 111.085 88.9194 111.085Z" fill="white"/>
<path opacity="0.2" d="M88.1238 109.741H131.44V108.397H88.1238V109.741Z" fill="black"/>
<path d="M86.869 108.747H132.695C133.09 108.747 133.41 108.408 133.41 107.99C133.41 107.572 133.09 107.233 132.695 107.233H86.869C86.4745 107.233 86.1547 107.572 86.1547 107.99C86.1543 108.408 86.4745 108.747 86.869 108.747Z" fill="#407BFF"/>
<path opacity="0.6" d="M86.869 108.747H132.695C133.09 108.747 133.41 108.408 133.41 107.99C133.41 107.572 133.09 107.233 132.695 107.233H86.869C86.4745 107.233 86.1547 107.572 86.1547 107.99C86.1543 108.408 86.4745 108.747 86.869 108.747Z" fill="white"/>
<path d="M113.066 105.747V106.843H112.683V107.233H123.002C123.249 107.233 123.47 107.128 123.628 106.96C123.79 106.792 123.889 106.558 123.889 106.297C123.889 105.778 123.492 105.357 123.002 105.357H112.683V105.747H113.066Z" fill="#407BFF"/>
<path opacity="0.2" d="M113.066 105.747V106.843H112.683V107.233H118.369C118.612 107.233 118.833 107.128 118.995 106.96C119.153 106.792 119.252 106.558 119.252 106.297C119.252 105.778 118.855 105.357 118.369 105.357H112.683V105.747H113.066Z" fill="white"/>
<path opacity="0.5" d="M118.369 105.747H113.066V106.843H118.369C118.652 106.843 118.884 106.597 118.884 106.297C118.884 105.993 118.652 105.747 118.369 105.747Z" fill="white"/>
<path d="M114.258 103.871V104.967H113.875V105.357H124.194C124.44 105.357 124.661 105.252 124.819 105.084C124.981 104.917 125.081 104.683 125.081 104.421C125.081 103.903 124.683 103.481 124.194 103.481H113.875V103.871H114.258Z" fill="#263238"/>
<path opacity="0.2" d="M114.258 103.871V104.967H113.875V105.357H119.561C119.803 105.357 120.024 105.252 120.186 105.084C120.344 104.917 120.444 104.683 120.444 104.421C120.444 103.903 120.046 103.481 119.561 103.481H113.875V103.871H114.258Z" fill="white"/>
<path opacity="0.5" d="M119.561 103.872H114.258V104.967H119.561C119.844 104.967 120.076 104.722 120.076 104.421C120.076 104.117 119.844 103.872 119.561 103.872Z" fill="white"/>
<path d="M125.189 101.215V100.119H125.572V99.7295H115.253C115.007 99.7295 114.786 99.8348 114.628 100.002C114.466 100.17 114.366 100.404 114.366 100.665C114.366 101.184 114.764 101.605 115.253 101.605H125.572V101.215H125.189Z" fill="#407BFF"/>
<path opacity="0.2" d="M125.189 101.215V100.119H125.572V99.7295H119.886C119.644 99.7295 119.423 99.8348 119.261 100.002C119.103 100.17 119.003 100.404 119.003 100.665C119.003 101.184 119.401 101.605 119.886 101.605H125.572V101.215H125.189Z" fill="black"/>
<path opacity="0.5" d="M119.886 101.216H125.189V100.12H119.886C119.603 100.12 119.371 100.365 119.371 100.666C119.371 100.97 119.603 101.216 119.886 101.216Z" fill="white"/>
<path d="M122.878 101.995V103.091H123.261V103.481H112.942C112.695 103.481 112.475 103.376 112.316 103.208C112.155 103.041 112.055 102.807 112.055 102.545C112.055 102.027 112.453 101.605 112.942 101.605H123.261V101.995H122.878Z" fill="#407BFF"/>
<path opacity="0.5" d="M122.878 101.995V103.091H123.261V103.481H112.942C112.695 103.481 112.475 103.376 112.316 103.208C112.155 103.041 112.055 102.807 112.055 102.545C112.055 102.027 112.453 101.605 112.942 101.605H123.261V101.995H122.878Z" fill="white"/>
<path opacity="0.2" d="M122.878 101.995V103.091H123.261V103.481H117.575C117.332 103.481 117.112 103.376 116.95 103.208C116.791 103.041 116.692 102.807 116.692 102.545C116.692 102.027 117.089 101.605 117.575 101.605H123.261V101.995H122.878Z" fill="black"/>
<path opacity="0.5" d="M117.575 101.996H122.878V103.092H117.575C117.292 103.092 117.06 102.846 117.06 102.546C117.06 102.241 117.292 101.996 117.575 101.996Z" fill="white"/>
<path opacity="0.5" d="M116.306 104.032V104.578H116.104C116.218 104.578 116.306 104.333 116.306 104.032Z" fill="white"/>
<path d="M104.955 103.6L102.383 99.0625" stroke="#263238" stroke-width="0.5" stroke-miterlimit="10" stroke-linecap="round" stroke-linejoin="round"/>
<path d="M104.955 104.148C105.24 104.148 105.472 103.902 105.472 103.6C105.472 103.297 105.24 103.052 104.955 103.052C104.669 103.052 104.438 103.297 104.438 103.6C104.438 103.902 104.669 104.148 104.955 104.148Z" fill="#407BFF"/>
<path d="M97.4008 104.419V99.1025" stroke="#263238" stroke-width="0.5" stroke-miterlimit="10" stroke-linecap="round" stroke-linejoin="round"/>
<path d="M98.4348 104.419V99.1025" stroke="#263238" stroke-width="0.5" stroke-miterlimit="10" stroke-linecap="round" stroke-linejoin="round"/>
<path d="M99.4689 104.419V99.1025" stroke="#263238" stroke-width="0.5" stroke-miterlimit="10" stroke-linecap="round" stroke-linejoin="round"/>
<path d="M100.503 104.419V99.1025" stroke="#263238" stroke-width="0.5" stroke-miterlimit="10" stroke-linecap="round" stroke-linejoin="round"/>
<path d="M101.537 104.419V99.1025" stroke="#263238" stroke-width="0.5" stroke-miterlimit="10" stroke-linecap="round" stroke-linejoin="round"/>
<path d="M94.7869 106.843V99.1025H104.151V106.843" stroke="#263238" stroke-miterlimit="10" stroke-linecap="round" stroke-linejoin="round"/>
<path opacity="0.5" d="M94.7869 106.843V99.1025H104.151V106.843" stroke="white" stroke-miterlimit="10"/>
<path d="M104.958 106.628H93.9795C93.6645 106.628 93.4091 106.899 93.4091 107.233H105.529C105.529 106.899 105.273 106.628 104.958 106.628Z" fill="#263238"/>
<path d="M97.4007 104.967C97.6863 104.967 97.9177 104.722 97.9177 104.419C97.9177 104.116 97.6863 103.871 97.4007 103.871C97.1152 103.871 96.8837 104.116 96.8837 104.419C96.8837 104.722 97.1152 104.967 97.4007 104.967Z" fill="#407BFF"/>
<path d="M98.4349 104.967C98.7204 104.967 98.9519 104.722 98.9519 104.419C98.9519 104.116 98.7204 103.871 98.4349 103.871C98.1493 103.871 97.9178 104.116 97.9178 104.419C97.9178 104.722 98.1493 104.967 98.4349 104.967Z" fill="#407BFF"/>
<path d="M99.4689 104.967C99.7545 104.967 99.986 104.722 99.986 104.419C99.986 104.116 99.7545 103.871 99.4689 103.871C99.1834 103.871 98.9519 104.116 98.9519 104.419C98.9519 104.722 99.1834 104.967 99.4689 104.967Z" fill="#407BFF"/>
<path d="M100.503 104.967C100.789 104.967 101.02 104.722 101.02 104.419C101.02 104.116 100.789 103.871 100.503 103.871C100.217 103.871 99.986 104.116 99.986 104.419C99.986 104.722 100.217 104.967 100.503 104.967Z" fill="#407BFF"/>
<path d="M101.537 104.967C101.823 104.967 102.054 104.722 102.054 104.419C102.054 104.116 101.823 103.871 101.537 103.871C101.252 103.871 101.02 104.116 101.02 104.419C101.02 104.722 101.252 104.967 101.537 104.967Z" fill="#407BFF"/>
<path d="M138.078 152.593C138.078 152.593 136.015 147.822 138.372 143.119C140.73 138.416 141.413 137.308 139.91 136.344C138.407 135.381 137.718 140.107 137.718 140.107C137.718 140.107 136.451 136.855 137.497 133.452C138.543 130.05 139.199 124.508 137.77 123.913C136.342 123.319 137.498 130.827 136.258 133.386C136.258 133.386 135.217 130.537 135.046 127.804C134.875 125.071 135.143 120.707 134.014 119.588C132.886 118.468 132.164 119.243 133.272 125.274C134.38 131.305 134.372 136.208 134.372 136.208C134.372 136.208 131.924 128.297 130.281 128.066C128.637 127.835 128.639 130.397 130.046 132.619C131.453 134.842 134.165 138.823 134.61 140.871C134.61 140.871 131.923 134.918 129.505 136.742C127.088 138.567 131.609 142.163 133.625 143.463C135.64 144.762 137.04 152.908 137.04 152.908L138.078 152.593Z" fill="#407BFF"/>
<path opacity="0.2" d="M138.078 152.593C138.078 152.593 136.015 147.822 138.372 143.119C140.73 138.416 141.413 137.308 139.91 136.344C138.407 135.381 137.718 140.107 137.718 140.107C137.718 140.107 136.451 136.855 137.497 133.452C138.543 130.05 139.199 124.508 137.77 123.913C136.342 123.319 137.498 130.827 136.258 133.386C136.258 133.386 135.217 130.537 135.046 127.804C134.875 125.071 135.143 120.707 134.014 119.588C132.886 118.468 132.164 119.243 133.272 125.274C134.38 131.305 134.372 136.208 134.372 136.208C134.372 136.208 131.924 128.297 130.281 128.066C128.637 127.835 128.639 130.397 130.046 132.619C131.453 134.842 134.165 138.823 134.61 140.871C134.61 140.871 131.923 134.918 129.505 136.742C127.088 138.567 131.609 142.163 133.625 143.463C135.64 144.762 137.04 152.908 137.04 152.908L138.078 152.593Z" fill="black"/>
<path d="M136.449 154.55C136.449 154.55 138.459 149.747 136.048 145.081C133.637 140.416 132.942 139.319 134.433 138.331C135.925 137.344 136.668 142.059 136.668 142.059C136.668 142.059 137.898 138.788 136.813 135.402C135.729 132.016 135.01 126.485 136.432 125.868C137.854 125.251 136.783 132.777 138.051 135.316C138.051 135.316 139.06 132.451 139.2 129.716C139.34 126.98 139.023 122.621 140.139 121.483C141.254 120.346 141.985 121.109 140.945 127.158C139.905 133.206 139.968 138.108 139.968 138.108C139.968 138.108 142.327 130.158 143.968 129.902C145.608 129.645 145.635 132.207 144.253 134.451C142.872 136.696 140.205 140.719 139.783 142.775C139.783 142.775 142.403 136.779 144.841 138.565C147.279 140.352 142.798 144.019 140.798 145.35C138.797 146.681 137.49 154.849 137.49 154.849L136.449 154.55Z" fill="#407BFF"/>
<path d="M145.716 151.126H129.118L130.462 163.713H144.373L145.716 151.126Z" fill="#263238"/>
<path d="M43.3677 163.41H43.9683L47.8459 128.129L46.5608 128.321L43.3677 163.41Z" fill="#407BFF"/>
<path d="M65.2847 128.321L63.9996 128.129L67.8773 163.41H68.4778L65.2847 128.321Z" fill="#407BFF"/>
<g opacity="0.1">
<path d="M46.1177 133.191L43.3677 163.41H43.9683L47.2895 133.191H46.1177Z" fill="white"/>
<path d="M64.5557 133.191L67.8772 163.41H68.4778L65.7277 133.191H64.5557Z" fill="white"/>
</g>
<path d="M68.4778 163.41L61.5947 142.621L65.2847 128.321L63.9996 128.129L60.993 140.804L56.7967 128.129L55.9227 128.259L55.0487 128.129L50.8524 140.804L47.8459 128.129L46.5608 128.321L50.2507 142.621L43.3677 163.41H43.9683L50.6916 144.331L55.6144 163.41H55.6302H56.2149H56.2311L61.1539 144.331L67.8772 163.41H68.4778ZM55.9227 162.178L51.2881 142.639L55.9227 129.487L60.5577 142.639L55.9227 162.178Z" fill="#407BFF"/>
<path d="M66.308 128.497H45.5374V125.914C45.5374 125.125 46.1405 124.486 46.885 124.486H64.9608C65.7049 124.486 66.3084 125.125 66.3084 125.914V128.497H66.308Z" fill="#263238"/>
<path d="M66.5915 129.218H45.2545C45.0399 129.218 44.8662 129.034 44.8662 128.806V127.367C44.8662 127.139 45.0399 126.955 45.2545 126.955H66.5915C66.806 126.955 66.9797 127.139 66.9797 127.367V128.806C66.9797 129.033 66.8056 129.218 66.5915 129.218Z" fill="#407BFF"/>
<path opacity="0.5" d="M66.5915 129.218H45.2545C45.0399 129.218 44.8662 129.034 44.8662 128.806V127.367C44.8662 127.139 45.0399 126.955 45.2545 126.955H66.5915C66.806 126.955 66.9797 127.139 66.9797 127.367V128.806C66.9797 129.033 66.8056 129.218 66.5915 129.218Z" fill="white"/>
<path opacity="0.3" d="M64.6653 130.721C64.2311 130.73 63.8005 130.738 63.3788 130.746L60.993 140.804L57.6851 130.813C57.2446 130.815 56.8129 130.816 56.3908 130.816L60.5573 142.639L55.9224 162.178L51.2878 142.639L55.4554 130.813C55.0141 130.811 54.5828 130.808 54.163 130.804L50.8524 140.804L48.4431 130.647C47.9872 130.623 47.554 130.597 47.1408 130.568L50.2504 142.621L43.3677 163.41H43.9683L50.6916 144.331L55.6144 163.41H55.6302H56.2149H56.2311L61.1539 144.331L67.8772 163.41H68.4778L61.5947 142.621L64.6653 130.721Z" fill="white"/>
<path d="M71.6643 90.8019C72.5589 91.5756 73.2714 94.8251 73.2714 94.8251L70.1183 98.2267L67.2432 94.478C67.2432 94.478 69.6436 89.0547 71.6643 90.8019Z" fill="#407BFF"/>
<path opacity="0.6" d="M73.2726 94.8264L70.1188 98.2272L69.2798 97.1352L67.2448 94.4793C67.2448 94.4793 68.0801 92.5917 69.1768 91.4022C69.9422 90.5754 70.8364 90.084 71.6644 90.8016C72.5587 91.5738 73.2726 94.8264 73.2726 94.8264Z" fill="white"/>
<path opacity="0.2" d="M69.2798 97.1353L67.2448 94.4794C67.2448 94.4794 68.0801 92.5918 69.1768 91.4023C69.1768 91.4023 70.5163 95.0566 69.2798 97.1353Z" fill="black"/>
<path d="M66.2158 109.366C66.2393 105.973 66.7284 95.5991 71.6651 90.7994C71.6651 90.7994 70.6203 89.4897 68.593 88.1181C66.7063 86.8373 63.9658 85.5028 60.426 85.1229C58.4653 84.9123 58.0988 84.9989 55.6545 85.5527C55.6545 85.5527 50.0565 92.6363 49.6576 109.367H66.2158V109.366Z" fill="#407BFF"/>
<path opacity="0.6" d="M66.2164 109.367C66.2204 108.854 66.2348 108.184 66.2738 107.397C66.34 106.005 66.4872 104.25 66.7816 102.37C67.4293 98.2749 68.7946 93.5949 71.665 90.8025C71.665 90.8025 70.6235 89.4921 68.5958 88.1193C66.708 86.8401 63.9664 85.5063 60.4263 85.1241C58.4648 84.9135 58.1005 84.9993 55.657 85.5531C55.657 85.5531 54.9614 86.4345 54.0414 88.3104C53.541 89.3244 52.9779 90.6309 52.4259 92.2494C51.1008 96.1076 49.8407 101.736 49.6582 109.367H66.2164Z" fill="white"/>
<path d="M66.0679 98.2811C65.5129 100.626 63.7473 102.178 62.1247 101.746C60.5022 101.315 59.6371 99.0642 60.192 96.7188C60.747 94.3733 62.5126 92.8223 64.1351 93.2536C65.7576 93.685 66.6228 95.9361 66.0679 98.2811Z" fill="white"/>
<path d="M64.1833 96.711C64.272 96.1358 64.0306 95.6841 63.5066 95.5933C63.0701 95.518 62.7172 95.6861 62.4254 96.0702L62.2024 95.7036C62.5612 95.2247 63.0344 94.9954 63.61 95.0945C64.3291 95.2193 64.7088 95.8347 64.5771 96.6892C64.3662 98.055 63.4164 97.9559 63.2402 99.0982L62.8604 99.0323C63.0631 97.7145 64.0218 97.7574 64.1833 96.711ZM62.5818 100.321C62.6175 100.089 62.7629 99.934 62.9119 99.9593C63.0661 99.9862 63.1574 100.182 63.1213 100.414C63.0867 100.638 62.9391 100.809 62.7849 100.782C62.6359 100.757 62.5472 100.545 62.5818 100.321Z" fill="#263238"/>
<path opacity="0.2" d="M58.8866 101.494C58.388 101.049 57.8408 99.5818 57.3333 97.8295C58.8785 97.9695 58.707 95.9926 58.707 95.9926L59.7559 95.8405C59.7559 95.8405 59.8133 93.1339 58.8101 89.8189C58.3361 88.2527 55.5496 88.3057 54.0408 88.3096C53.5403 89.3236 52.9773 90.6301 52.4253 92.2486C52.6052 93.5306 52.4253 95.1116 54.2013 96.0453C54.5133 100.192 55.2975 105.276 57.2638 106.372C59.5306 107.636 63.6964 107.581 66.2724 107.394C66.3386 106.002 66.4858 104.247 66.7802 102.367C64.311 102.442 59.9391 102.43 58.8866 101.494Z" fill="black"/>
<path d="M56.7003 86.0398C58.8697 85.5531 58.4384 96.7223 59.0209 99.5674C59.6031 102.412 70.458 100.109 70.458 100.109L70.9588 102.34C70.9588 102.34 60.1808 106.073 56.9101 104.144C53.9984 102.426 53.9256 93.5407 53.9984 90.3778C54.0709 87.2153 55.7266 86.2586 56.7003 86.0398Z" fill="#E4897B"/>
<path d="M66.7662 87.6388C67.0128 87.8884 67.2778 88.0756 67.2778 88.0756C67.2778 88.0756 66.1627 90.1816 63.6382 89.7643C61.1174 89.3431 60.3888 85.3495 60.3888 85.3495C60.3888 85.3495 62.0338 85.369 62.7661 85.0141C63.4984 84.6631 65.033 82.2607 65.033 82.2607L65.493 82.6819L68.3486 85.2988C68.3486 85.2988 66.3099 86.5312 66.3578 86.9953C66.3762 87.202 66.5675 87.4438 66.7662 87.6388Z" fill="#E4897B"/>
<path opacity="0.2" d="M66.3577 86.9955C66.3761 87.2022 66.5675 87.444 66.7662 87.639C64.6281 87.1749 65.2574 82.6977 65.2574 82.6977C65.2574 82.6977 65.3421 82.6899 65.4929 82.6821L68.3486 85.299C68.3486 85.299 66.3099 86.5314 66.3577 86.9955Z" fill="black"/>
<path d="M74.8656 77.7672C74.8656 77.7672 74.9131 81.4917 72.4736 82.8781C70.0338 84.2646 71.0911 76.0083 71.0911 76.0083L74.8656 77.7672Z" fill="#263238"/>
<path d="M73.2063 84.4135C73.0407 84.8152 72.8604 85.1896 72.669 85.5289C72.6065 85.6342 72.5476 85.7356 72.4813 85.8292C72.4593 85.8604 72.4372 85.8916 72.4151 85.9228C71.7343 86.8822 70.7591 87.475 69.7361 87.6622C69.5668 87.6934 69.3938 87.7129 69.2245 87.7246C67.8335 87.7948 66.4351 87.124 65.6476 85.6186C65.6181 85.5718 65.5961 85.525 65.574 85.4782C64.5693 83.4229 65.1434 81.625 65.8794 78.5011C66.0303 77.8264 66.321 77.2024 66.7442 76.672C68.2162 74.8078 70.8364 74.5621 72.5881 76.1221C74.7372 77.998 74.3029 81.7771 73.2063 84.4135Z" fill="#E4897B"/>
<path d="M70.0223 80.8223C69.9326 81.0645 70.0117 81.3149 70.1684 81.3667C70.3252 81.4186 70.5074 81.2548 70.5824 81.0064C70.6575 80.758 70.5894 80.5123 70.4363 80.4619C70.2833 80.4116 70.0989 80.57 70.0223 80.8223Z" fill="#263238"/>
<path d="M72.6882 81.709C72.5984 81.9512 72.6812 82.2032 72.8343 82.2535C72.9874 82.3038 73.1732 82.1415 73.2483 81.8931C73.3234 81.6447 73.2553 81.399 73.1022 81.3487C72.9495 81.298 72.7592 81.4719 72.6882 81.709Z" fill="#263238"/>
<path d="M71.8049 81.5503C71.8594 82.4079 72.0254 83.2538 72.2984 84.0631C71.8969 84.2027 71.4576 84.1465 71.0988 83.9106L71.8049 81.5503Z" fill="#DE5753"/>
<path d="M69.7464 79.0151C69.7909 79.0478 69.8483 79.0533 69.8977 79.0291C70.2255 78.8493 70.6141 78.8443 70.9461 79.0151C71.0145 79.0588 71.1029 79.0354 71.1441 78.9628C71.1849 78.8907 71.1632 78.7967 71.0948 78.753L71.094 78.7526C70.6797 78.5252 70.1869 78.5252 69.7722 78.7522C69.6997 78.7869 69.6673 78.8774 69.7 78.9546C69.7004 78.9558 69.7011 78.957 69.7015 78.9577C69.7133 78.9792 69.7287 78.9983 69.7464 79.0151Z" fill="#263238"/>
<path d="M68.8256 83.6043C69.5303 83.7895 70.1051 84.3277 70.3661 85.0457C70.3782 85.0886 70.3561 85.1339 70.316 85.1479C70.2774 85.1627 70.235 85.1413 70.2214 85.1007C70.2207 85.0988 70.2203 85.0968 70.2196 85.0949C69.9653 84.4362 69.4332 83.9428 68.7833 83.7634C68.7435 83.7541 68.7181 83.7119 68.727 83.6698C68.7277 83.6671 68.7285 83.6644 68.7292 83.6616C68.738 83.6195 68.7778 83.5926 68.8175 83.602C68.8204 83.6023 68.823 83.6031 68.8256 83.6043Z" fill="#263238"/>
<path d="M74.165 80.8493C74.194 80.8532 74.2235 80.8474 74.2492 80.833C74.3107 80.7792 74.3195 80.6828 74.2687 80.6177C74.268 80.6169 74.2673 80.6157 74.2669 80.615C73.9714 80.23 73.5177 80.0218 73.0507 80.0565C72.9715 80.0674 72.916 80.1438 72.9263 80.2277C72.9384 80.3104 73.0098 80.3689 73.0882 80.3603C73.4577 80.3443 73.8124 80.5143 74.045 80.8189C74.0785 80.847 74.1226 80.8583 74.165 80.8493Z" fill="#263238"/>
<path d="M64.2411 83.1359C64.6242 83.4592 65.2015 83.2151 65.2556 82.6991C65.3616 81.6875 65.6409 80.8228 65.8853 80.8186C66.3125 80.8104 66.215 81.3178 66.215 81.3178C67.2267 80.8365 68.2869 79.2184 68.1544 77.9485C68.0594 77.0383 69.0026 76.495 69.7633 76.8913C69.7633 76.8913 66.8163 74.6421 65.9755 75.3203C65.1346 75.9985 64.0019 78.2851 63.989 81.2019C63.9853 81.9964 64.0898 82.6293 64.2411 83.1359Z" fill="#263238"/>
<path d="M63.8701 80.5986C63.9856 81.4001 64.3967 82.12 65.0124 82.6005C65.8319 83.2311 66.5929 82.5428 66.6621 81.5276C66.7155 80.6248 66.3659 79.1826 65.3966 78.9634C64.4272 78.7442 63.7398 79.6131 63.8701 80.5986Z" fill="#E4897B"/>
<path d="M67.6675 73.7006C67.8375 72.7232 68.5835 72.9549 69.7633 73.0064C70.9431 73.0579 70.9585 72.5435 70.9585 72.5435C70.9585 72.5435 71.4093 72.8777 71.1643 73.3664C71.1643 73.3664 71.8097 73.0836 72.2984 73.3921C72.7871 73.7006 73.03 74.6007 73.394 74.4977C73.7579 74.3948 74.219 73.9225 74.583 74.5059C74.9469 75.0894 74.7769 75.5328 74.7769 75.5328C74.7769 75.5328 75.238 76.002 75.5534 75.5328C75.5534 75.5328 75.7716 76.2719 75.238 76.4006C75.238 76.4006 75.9173 76.6833 75.7234 77.4032C75.5295 78.1232 75.1894 78.732 75.408 78.9289C75.408 78.9289 75.3352 79.3985 74.9712 79.0436C74.9712 79.0436 75.015 79.9792 74.3018 80.0521C74.3018 80.0521 74.4372 78.56 73.9036 77.5573C73.9036 77.5573 73.847 78.3802 72.9652 78.2C72.0839 78.0198 71.8988 77.8658 71.6636 78.4313C71.6636 78.4313 71.4285 77.8911 72.0835 77.5312C72.0835 77.5312 71.7251 77.1197 71.1643 77.4282C70.6034 77.7367 70.0695 77.7882 69.9845 77.2738C69.9845 77.2738 69.0291 78.1224 67.9479 76.991C66.8668 75.8596 64.5358 78.0136 64.2069 79.0428C64.2069 79.0428 63.6008 78.6583 64.2069 77.865C64.2069 77.865 63.7608 77.9937 63.5912 77.4278C63.5912 77.4278 64.127 77.5565 64.3688 76.8104C64.3688 76.8104 64.1494 76.5534 64.1494 75.7305C64.1494 74.9076 65.2608 74.8562 65.2608 74.8562C65.2608 74.8562 65.1927 74.419 64.6102 74.5734C64.6102 74.5734 65.2166 73.8792 66.0417 74.4704C66.0417 74.4704 65.8367 73.7248 66.6673 73.442C67.4975 73.1593 67.1336 72.7478 67.1336 72.7478C67.1336 72.7478 67.4732 72.7607 67.4975 73.1593C67.5325 73.7287 67.6675 73.7006 67.6675 73.7006Z" fill="#263238"/>
<path d="M55.6545 85.5521C57.5696 84.418 58.9857 86.2233 59.0585 94.4777H53.0896C53.0896 94.4777 53.034 87.104 55.6545 85.5521Z" fill="#407BFF"/>
<path opacity="0.6" d="M55.6545 85.5521C57.5696 84.418 58.9857 86.2233 59.0585 94.4777H53.0896C53.0896 94.4777 53.034 87.104 55.6545 85.5521Z" fill="white"/>
<path opacity="0.1" d="M72.4813 85.829C72.4592 85.8602 72.4371 85.8914 72.415 85.9226C71.7342 86.882 70.759 87.4748 69.736 87.662C69.5667 87.6932 69.3938 87.7127 69.2245 87.7244C69.2245 87.7244 69.4037 87.419 69.4147 87.2903C69.4405 87.0095 71.3449 85.8922 71.562 85.8376C71.6761 85.8103 72.4813 85.829 72.4813 85.829Z" fill="black"/>
<path d="M76.2643 102.412C76.2496 102.447 76.2275 102.482 76.2091 102.513C74.5567 105.15 70.6118 97.6421 70.6118 97.6421L72.9633 95.111C72.9633 95.111 72.6711 91.9871 72.0639 90.4544C72.0639 90.4544 71.371 90.3008 71.0987 90.1799C71.0987 90.1799 70.1757 88.9338 69.4875 87.2646C69.4875 87.2646 71.3824 86.0244 71.6989 86.0244C72.019 86.0244 74.1155 90.236 74.1155 90.236C74.1155 90.236 77.7657 99.6428 76.2643 102.412Z" fill="#E4897B"/>
<path opacity="0.2" d="M76.2643 102.412C76.2496 102.447 76.2275 102.482 76.2091 102.514C74.5568 105.15 70.6118 97.6424 70.6118 97.6424L72.9633 95.1113C72.9633 95.1113 73.1253 98.4887 73.2725 98.9255C73.4197 99.3623 75.6277 99.6704 75.6277 99.6704C75.6277 99.6704 76.4262 100.813 76.2643 102.412Z" fill="black"/>
<path d="M69.984 100.75C69.984 100.75 70.4492 99.4028 70.9588 99.498C71.4685 99.5927 74.817 99.6115 75.472 99.9106C76.127 100.21 75.0801 102.756 74.453 103.026C73.8259 103.295 70.7123 102.382 70.217 101.99C69.7213 101.599 69.984 100.75 69.984 100.75Z" fill="#E4897B"/>
<path d="M64.3683 160.442L67.695 161.186L71.2491 154.993L67.9228 154.25L64.3683 160.442Z" fill="#E4897B"/>
<path d="M68.3659 159.694H64.6428C64.5173 159.694 64.4088 159.787 64.3815 159.917L63.7773 162.808C63.7258 163.067 63.8818 163.322 64.1262 163.377C64.1589 163.384 64.1924 163.388 64.2255 163.387C65.43 163.367 66.3073 163.288 67.8198 163.288C68.7515 163.288 71.5623 163.391 72.8489 163.391C74.1354 163.391 74.3028 162.044 73.7766 161.921C71.414 161.376 69.6366 160.619 68.8803 159.901C68.7405 159.764 68.5561 159.69 68.3659 159.694Z" fill="#263238"/>
<path d="M68.5764 160.143C68.5473 160.135 68.5256 160.109 68.5219 160.078C68.5171 160.047 68.5311 160.017 68.5569 160.003C68.6662 159.929 69.6561 159.284 69.9954 159.47C70.0734 159.509 70.1224 159.593 70.1202 159.685C70.1408 159.841 70.083 159.998 69.9682 160.098C69.7956 160.223 69.5877 160.281 69.3794 160.263C69.1085 160.255 68.8391 160.215 68.5764 160.143ZM68.7869 160.036C69.1446 160.164 69.5347 160.143 69.8784 159.979C69.9516 159.909 69.988 159.805 69.9759 159.702C69.9718 159.64 69.9487 159.611 69.9292 159.611C69.9004 159.594 69.8681 159.587 69.8357 159.59C69.4625 159.666 69.1063 159.818 68.7869 160.036Z" fill="#407BFF"/>
<path d="M68.5569 160.161C68.5349 160.145 68.5216 160.118 68.522 160.09C68.526 160.045 68.6 159.111 68.9547 158.806C69.039 158.727 69.1513 158.691 69.2628 158.707C69.3765 158.706 69.4744 158.791 69.4968 158.909C69.5594 159.252 68.947 159.967 68.6313 160.149H68.5963C68.5845 160.156 68.5709 160.161 68.5569 160.161ZM69.0482 158.896C68.8326 159.188 68.7063 159.542 68.6857 159.913C69.0015 159.661 69.3912 159.119 69.3522 158.909C69.3485 158.888 69.3404 158.83 69.2469 158.83H69.212C69.1516 158.83 69.0935 158.854 69.0482 158.896Z" fill="#407BFF"/>
<path opacity="0.2" d="M67.9229 154.25L71.2492 154.993L69.4136 158.187L66.0873 157.443L67.9229 154.25Z" fill="black"/>
<path d="M58.0398 161.179L61.439 161.15L63.6588 154.294L60.2592 154.323L58.0398 161.179Z" fill="#E4897B"/>
<path d="M61.7743 159.713H58.0513C57.9258 159.713 57.8172 159.806 57.79 159.936L57.1857 162.827C57.1342 163.086 57.2902 163.341 57.5346 163.396C57.5674 163.403 57.6008 163.407 57.634 163.406C58.8384 163.386 59.7157 163.307 61.2282 163.307C62.16 163.307 64.9708 163.411 66.2569 163.411C67.5431 163.411 67.7109 162.064 67.1847 161.94C64.8221 161.395 63.0447 160.638 62.2884 159.92C62.149 159.783 61.9646 159.709 61.7743 159.713Z" fill="#263238"/>
<path d="M61.9848 160.163C61.9558 160.154 61.9341 160.128 61.9304 160.097C61.9256 160.067 61.9396 160.036 61.9653 160.022C62.0746 159.948 63.0645 159.303 63.4038 159.489C63.4819 159.528 63.5308 159.612 63.5286 159.704C63.5492 159.86 63.4914 160.017 63.3766 160.117C63.204 160.242 62.9961 160.3 62.7878 160.283C62.517 160.274 62.2476 160.234 61.9848 160.163ZM62.1953 160.055C62.553 160.183 62.9431 160.163 63.2868 159.998C63.3604 159.928 63.3965 159.824 63.3843 159.721C63.3803 159.659 63.3571 159.63 63.3376 159.63C63.3089 159.613 63.2765 159.606 63.2441 159.609C62.871 159.686 62.5148 159.837 62.1953 160.055Z" fill="#407BFF"/>
<path d="M61.9653 160.179C61.9432 160.164 61.9299 160.137 61.9303 160.109C61.9344 160.064 62.0083 159.13 62.3631 158.824C62.4473 158.746 62.5596 158.71 62.6711 158.725C62.7848 158.725 62.8827 158.809 62.9048 158.928C62.967 159.27 62.355 159.985 62.0392 160.167H62.0043C61.9929 160.175 61.9792 160.18 61.9653 160.179ZM62.4565 158.915C62.2409 159.206 62.1147 159.561 62.0941 159.931C62.4098 159.679 62.7995 159.138 62.7605 158.927C62.7568 158.907 62.7487 158.849 62.6553 158.849H62.6203C62.56 158.849 62.5018 158.873 62.4565 158.915Z" fill="#407BFF"/>
<path opacity="0.2" d="M60.2592 154.323L63.6588 154.294L62.5118 157.83L59.1122 157.859L60.2592 154.323Z" fill="black"/>
<path d="M49.1501 113.96L49.7124 106.945L66.2408 108.18L66.9768 114.07C66.9768 114.07 84.2757 121.419 86.6419 126.883C90.2815 135.287 70.903 156.411 70.903 156.411L66.5558 155.867C66.5558 155.867 78.2814 138.171 75.7583 131.549C74.3018 127.726 60.6354 125.147 60.6354 125.147C60.6354 125.147 48.0233 125.195 49.1501 113.96Z" fill="#263238"/>
<path opacity="0.4" d="M70.9029 156.411L66.5568 155.865C66.5568 155.865 77.5894 139.17 75.9445 132.173C75.8966 131.955 75.8341 131.748 75.7568 131.549C74.3032 127.727 60.6357 125.145 60.6357 125.145C60.6357 125.145 57.8941 125.157 55.0825 124.03C51.8625 122.739 48.5505 119.958 49.1504 113.96L49.7134 106.944L66.2403 108.18L66.9763 114.069C66.9763 114.069 84.276 121.417 86.6422 126.881C90.2817 135.285 70.9029 156.411 70.9029 156.411Z" fill="white"/>
<path opacity="0.2" d="M75.9442 132.173C75.8964 131.955 75.8338 131.748 75.7565 131.549C74.3029 127.727 60.6354 125.145 60.6354 125.145C60.6354 125.145 57.8938 125.157 55.0823 124.03L65.9493 116.725C65.9493 116.725 72.956 119.447 75.6756 125.465C76.6471 127.618 76.5183 130.001 75.9442 132.173Z" fill="black"/>
<path d="M71.2606 157.475L65.7704 156.545L66.297 154.962L72.27 156.281L71.2606 157.475Z" fill="#407BFF"/>
<path opacity="0.5" d="M71.2606 157.475L65.7704 156.545L66.297 154.962L72.27 156.281L71.2606 157.475Z" fill="white"/>
<path d="M55.5724 107.795L55.486 110.032L66.2117 109.983L66.2356 108.335L55.5724 107.795Z" fill="#263238"/>
<path d="M54.9534 107.764L49.6318 107.495L49.5181 110.06L54.9534 110.035V107.764Z" fill="#263238"/>
<path d="M62.9526 110.06L60.8701 110.169C60.6626 110.18 60.4915 110.029 60.4915 109.832V108.257C60.4915 108.06 60.6626 107.909 60.8701 107.92L62.9526 108.029C63.1186 108.038 63.2515 108.184 63.2515 108.356V109.732C63.2515 109.904 63.119 110.051 62.9526 110.06Z" fill="white"/>
<path d="M62.4709 114.612C62.4709 114.612 69.2377 117.852 72.0437 123.252C74.8497 128.652 63.7678 156.547 63.7678 156.547L59.0585 156.804C59.0585 156.804 64.1737 132.036 63.2518 129.958C62.3296 127.88 48.7857 128.189 49.0794 116L62.4709 114.612Z" fill="#263238"/>
<path opacity="0.4" d="M62.4709 114.612C62.4709 114.612 69.2377 117.852 72.0437 123.252C74.8497 128.652 63.7678 156.547 63.7678 156.547L59.0585 156.804C59.0585 156.804 64.1737 132.036 63.2518 129.958C62.3296 127.88 48.7857 128.189 49.0794 116L62.4709 114.612Z" fill="white"/>
<path d="M64.2288 156.676L58.6923 157.216L58.8328 155.544L64.928 155.255L64.2288 156.676Z" fill="#407BFF"/>
<path opacity="0.5" d="M64.2288 156.676L58.6923 157.216L58.8328 155.544L64.928 155.255L64.2288 156.676Z" fill="white"/>
<path d="M120.141 85.4004C120.834 82.288 119.016 79.1691 116.079 78.4342C113.142 77.6992 110.199 79.6266 109.505 82.739C108.812 85.8514 110.631 88.9703 113.567 89.7052C116.504 90.4401 119.447 88.5128 120.141 85.4004Z" fill="#407BFF"/>
<path d="M117.339 90.4907C120.691 89.0194 122.282 84.9473 120.894 81.3953C119.506 77.8434 115.663 76.1567 112.312 77.628C108.96 79.0993 107.368 83.1714 108.757 86.7234C110.145 90.2753 113.987 91.962 117.339 90.4907Z" stroke="#407BFF" stroke-width="0.5" stroke-miterlimit="10" stroke-linecap="round" stroke-linejoin="round" stroke-dasharray="5 3 10 3 2 15"/>
<path opacity="0.8" d="M120.141 85.4004C120.834 82.288 119.016 79.1691 116.079 78.4342C113.142 77.6992 110.199 79.6266 109.505 82.739C108.812 85.8514 110.631 88.9703 113.567 89.7052C116.504 90.4401 119.447 88.5128 120.141 85.4004Z" fill="white"/>
<path d="M117.75 81.8843V85.5436C117.75 85.5436 115.958 85.4656 114.893 85.9071C114.868 85.9157 114.844 85.9286 114.823 85.9375C114.799 85.929 114.774 85.9161 114.75 85.9071C113.684 85.4656 111.893 85.5436 111.893 85.5436V81.8843C111.819 81.8886 111.751 81.8878 111.676 81.894V86.03C111.676 86.03 113.601 85.9465 114.745 86.4204C114.772 86.4297 114.798 86.4438 114.824 86.4527C114.846 86.4434 114.872 86.4293 114.898 86.4204C116.043 85.9465 117.968 86.03 117.968 86.03V81.894C117.892 81.8882 117.824 81.8886 117.75 81.8843Z" fill="#407BFF"/>
<path d="M114.823 82.0872C114.554 81.9659 113.521 81.5595 111.892 81.6937V85.5441C111.892 85.5441 113.684 85.4661 114.75 85.9076C114.775 85.9162 114.799 85.9291 114.823 85.938C114.844 85.9295 114.868 85.9166 114.893 85.9076C115.958 85.4661 117.751 85.5441 117.751 85.5441V81.6937C116.13 81.5591 115.097 81.9616 114.823 82.0872Z" stroke="#407BFF" stroke-width="0.5" stroke-miterlimit="10" stroke-linecap="round" stroke-linejoin="round"/>
<path d="M114.823 82.0874V85.9379" stroke="#407BFF" stroke-width="0.5" stroke-miterlimit="10" stroke-linecap="round" stroke-linejoin="round"/>
<path d="M68.5705 39.8589C69.2639 36.7465 67.4453 33.6276 64.5085 32.8927C61.5716 32.1577 58.6287 34.0851 57.9352 37.1975C57.2417 40.3099 59.0603 43.4288 61.9972 44.1637C64.934 44.8986 67.877 42.9713 68.5705 39.8589Z" fill="#407BFF"/>
<path d="M60.2177 44.697C57.0055 42.9241 55.7532 38.7125 57.4261 35.3078C59.099 31.9035 63.0734 30.5763 66.2853 32.3492C69.4976 34.1222 70.7499 38.3342 69.0773 41.7381C67.4044 45.1428 63.43 46.47 60.2177 44.697Z" stroke="#407BFF" stroke-width="0.5" stroke-linecap="round" stroke-linejoin="round" stroke-dasharray="4.92 2.95 9.83 2.95 1.97 14.75"/>
<path opacity="0.8" d="M68.5705 39.8589C69.2639 36.7465 67.4453 33.6276 64.5085 32.8927C61.5716 32.1577 58.6287 34.0851 57.9352 37.1975C57.2417 40.3099 59.0603 43.4288 61.9972 44.1637C64.934 44.8986 67.877 42.9713 68.5705 39.8589Z" fill="white"/>
<path d="M62.7754 36.6716C62.7754 36.4181 62.9656 36.2212 63.2494 36.2212C63.5327 36.2212 63.7234 36.4076 63.7234 36.656C63.7234 36.9251 63.5327 37.1221 63.2494 37.1221C62.9656 37.1221 62.7754 36.9251 62.7754 36.6716ZM62.8681 37.5101H63.6303V40.2955H62.8681V37.5101Z" fill="#407BFF"/>
<path d="M66.3523 38.2115C66.3523 36.5618 64.9642 35.2241 63.2515 35.2241C61.5389 35.2241 60.1508 36.5614 60.1508 38.2115C60.1508 39.8616 61.5389 41.1989 63.2515 41.1989C63.3811 41.1989 63.508 41.1888 63.6331 41.174L63.6206 41.1771L64.4461 42.3085V40.9684L64.4438 40.9692C65.5644 40.5192 66.3523 39.4544 66.3523 38.2115Z" stroke="#407BFF" stroke-width="0.5" stroke-miterlimit="10" stroke-linecap="round" stroke-linejoin="round"/>
<path d="M124.446 39.2915C125.14 36.1791 123.321 33.0602 120.384 32.3253C117.448 31.5903 114.505 33.5177 113.811 36.6301C113.118 39.7425 114.936 42.8614 117.873 43.5963C120.81 44.3313 123.753 42.4039 124.446 39.2915Z" fill="#407BFF"/>
<path d="M115.879 44.0044C112.731 42.1078 111.625 37.8498 113.415 34.5129C115.204 31.1761 119.222 30.0045 122.37 31.9011C125.519 33.7977 126.625 38.0557 124.835 41.3925C123.046 44.7294 119.028 45.9009 115.879 44.0044Z" stroke="#407BFF" stroke-width="0.5" stroke-miterlimit="10" stroke-linecap="round" stroke-linejoin="round" stroke-dasharray="5 3 10 3 2 15"/>
<path opacity="0.8" d="M124.446 39.2915C125.14 36.1791 123.321 33.0602 120.384 32.3253C117.448 31.5903 114.505 33.5177 113.811 36.6301C113.118 39.7425 114.936 42.8614 117.873 43.5963C120.81 44.3313 123.753 42.4039 124.446 39.2915Z" fill="white"/>
<path d="M119.665 38.5321C119.441 38.3223 119.377 38.1019 119.361 37.953C119.377 37.8036 119.442 37.5836 119.665 37.3738C120.048 37.0131 120.069 36.5688 120.069 36.5688H119.15H119.1H118.181C118.181 36.5688 118.201 37.0134 118.585 37.3738C118.808 37.5836 118.872 37.804 118.888 37.953C118.872 38.1019 118.808 38.3223 118.585 38.5321C118.201 38.8929 118.181 39.3371 118.181 39.3371H119.1H119.15H120.069C120.069 39.3371 120.049 38.8929 119.665 38.5321Z" stroke="#407BFF" stroke-width="0.5" stroke-miterlimit="10" stroke-linecap="round" stroke-linejoin="round"/>
<path d="M120.294 36.6011H117.955C117.91 36.6011 117.873 36.5621 117.873 36.5145V36.1417C117.873 36.0937 117.91 36.0547 117.955 36.0547H120.294C120.34 36.0547 120.377 36.0937 120.377 36.1417V36.5145C120.377 36.5621 120.34 36.6011 120.294 36.6011Z" fill="#407BFF"/>
<path d="M120.294 39.851H117.955C117.91 39.851 117.873 39.812 117.873 39.764V39.3912C117.873 39.3432 117.91 39.3042 117.955 39.3042H120.294C120.34 39.3042 120.377 39.3432 120.377 39.3912V39.764C120.377 39.812 120.34 39.851 120.294 39.851Z" fill="#407BFF"/>
<path d="M117.766 35.2412C118.771 34.6644 120.047 34.7498 120.988 35.5629C122.232 36.6378 122.417 38.5776 121.403 39.8955" stroke="#407BFF" stroke-width="0.5" stroke-miterlimit="10" stroke-linecap="round" stroke-linejoin="round"/>
<path d="M121.206 39.374L121.325 40.023L121.917 39.9009" stroke="#407BFF" stroke-width="0.5" stroke-miterlimit="10" stroke-linecap="round" stroke-linejoin="round"/>
<path d="M120.484 40.6645C119.479 41.2413 118.202 41.1559 117.262 40.3428C116.018 39.2679 115.832 37.3281 116.847 36.0103" stroke="#407BFF" stroke-width="0.5" stroke-miterlimit="10" stroke-linecap="round" stroke-linejoin="round"/>
<path d="M117.043 36.5318L116.925 35.8828L116.333 36.0049" stroke="#407BFF" stroke-width="0.5" stroke-miterlimit="10" stroke-linecap="round" stroke-linejoin="round"/>
<path d="M68.8286 42.1992L69.6099 42.714" stroke="#407BFF" stroke-width="0.5" stroke-linecap="round" stroke-linejoin="round"/>
<path d="M70.7966 43.4966L73.3678 45.1915" stroke="#407BFF" stroke-width="0.5" stroke-linecap="round" stroke-linejoin="round" stroke-dasharray="6.33 3.8"/>
<path d="M73.9611 45.5825L74.7423 46.0977" stroke="#407BFF" stroke-width="0.5" stroke-linecap="round" stroke-linejoin="round"/>
<path d="M105.233 46.1311L106.033 45.6514" stroke="#407BFF" stroke-width="0.5" stroke-linecap="round" stroke-linejoin="round"/>
<path d="M107.063 45.0344L112.037 42.0552" stroke="#407BFF" stroke-width="0.5" stroke-linecap="round" stroke-linejoin="round" stroke-dasharray="5.35 3.21"/>
<path d="M112.552 41.7473L113.353 41.2676" stroke="#407BFF" stroke-width="0.5" stroke-linecap="round" stroke-linejoin="round"/>
<path d="M75.0455 46.0977C75.0455 46.2752 74.9098 46.4191 74.7423 46.4191C74.5749 46.4191 74.4391 46.2752 74.4391 46.0977C74.4391 45.9203 74.5749 45.7764 74.7423 45.7764C74.9098 45.7764 75.0455 45.9199 75.0455 46.0977Z" fill="#407BFF"/>
<path d="M69.1319 42.1993C69.1319 42.3767 68.9961 42.5207 68.8286 42.5207C68.6612 42.5207 68.5254 42.3767 68.5254 42.1993C68.5254 42.0218 68.6612 41.8779 68.8286 41.8779C68.9961 41.8779 69.1319 42.0218 69.1319 42.1993Z" fill="#407BFF"/>
<path d="M105.536 46.1309C105.536 46.3084 105.4 46.4523 105.233 46.4523C105.065 46.4523 104.929 46.3084 104.929 46.1309C104.929 45.9535 105.065 45.8096 105.233 45.8096C105.4 45.8092 105.536 45.9531 105.536 46.1309Z" fill="#407BFF"/>
<path d="M113.657 41.2677C113.657 41.4451 113.521 41.589 113.353 41.589C113.186 41.589 113.05 41.4451 113.05 41.2677C113.05 41.0902 113.186 40.9463 113.353 40.9463C113.521 40.9463 113.657 41.0902 113.657 41.2677Z" fill="#407BFF"/>
<path d="M102.331 69.8995C102.331 70.0769 102.195 70.2208 102.028 70.2208C101.86 70.2208 101.724 70.0769 101.724 69.8995C101.724 69.722 101.86 69.5781 102.028 69.5781C102.195 69.5781 102.331 69.722 102.331 69.8995Z" fill="#407BFF"/>
<path d="M110.462 79.108C110.462 79.2854 110.326 79.4293 110.159 79.4293C109.991 79.4293 109.855 79.2854 109.855 79.108C109.855 78.9305 109.991 78.7866 110.159 78.7866C110.326 78.7866 110.462 78.9301 110.462 79.108Z" fill="#407BFF"/>
<path d="M110.11 79.0439L109.482 78.3325" stroke="#407BFF" stroke-width="0.5" stroke-linecap="round" stroke-linejoin="round"/>
<path d="M108.723 77.4743L103.036 71.04" stroke="#407BFF" stroke-width="0.5" stroke-linecap="round" stroke-linejoin="round" stroke-dasharray="5.02 3.01"/>
<path d="M102.657 70.6112L102.028 69.8994" stroke="#407BFF" stroke-width="0.5" stroke-linecap="round" stroke-linejoin="round"/>
<path d="M94.03 74.3662C103.629 71.9951 109.596 61.8265 107.359 51.654C105.122 41.4814 95.5267 35.1571 85.928 37.5281C76.3293 39.8992 70.3617 50.0678 72.599 60.2403C74.8363 70.4129 84.4313 76.7373 94.03 74.3662Z" stroke="#407BFF" stroke-width="0.5" stroke-miterlimit="10" stroke-linecap="round" stroke-linejoin="round" stroke-dasharray="5 3 15 10 2 15"/>
<path d="M89.9779 73.6914C99.2241 73.6914 106.72 65.7477 106.72 55.9487C106.72 46.1497 99.2241 38.2061 89.9779 38.2061C80.7316 38.2061 73.2361 46.1497 73.2361 55.9487C73.2361 65.7477 80.7316 73.6914 89.9779 73.6914Z" fill="#407BFF"/>
<path d="M88.5887 48.3005V49.685L89.2615 49.7521C89.3523 50.2162 89.5257 50.6479 89.763 51.0309L89.331 51.5839L90.2547 52.5628L90.7769 52.1049C91.1386 52.3565 91.5456 52.5406 91.9835 52.6369L92.0468 53.3498H93.3532L93.4165 52.6369C93.8545 52.5406 94.2618 52.3569 94.6232 52.1053L95.145 52.5632L96.0691 51.5843L95.637 51.0309C95.8744 50.6475 96.0481 50.2162 96.1386 49.7521L96.8113 49.685V48.3005L96.1386 48.2334C96.0477 47.7693 95.874 47.3376 95.637 46.9542L96.0691 46.4012L95.145 45.4219L94.6232 45.8797C94.2615 45.6282 93.8545 45.4441 93.4165 45.3482L93.3532 44.6353H92.0468L91.9835 45.3482C91.5456 45.4445 91.1382 45.6282 90.7769 45.8797L90.2547 45.4219L89.331 46.4012L89.763 46.9542C89.5257 47.3376 89.352 47.7689 89.2615 48.2334L88.5887 48.3005ZM92.7004 47.118C93.6771 47.118 94.469 47.9573 94.469 48.9923C94.469 50.0274 93.6771 50.8667 92.7004 50.8667C91.7237 50.8667 90.9318 50.0274 90.9318 48.9923C90.9318 47.9573 91.7237 47.118 92.7004 47.118Z" fill="#F5F5F5"/>
<path d="M89.4326 58.4032C89.7759 58.328 90.0946 58.1837 90.3783 57.9863L90.7872 58.3451L91.511 57.578L91.1725 57.1443C91.3583 56.844 91.4945 56.5059 91.5655 56.142L92.0928 56.0894V55.0044L91.5655 54.9517C91.4945 54.5879 91.3583 54.2497 91.1725 53.9494L91.511 53.5161L90.7872 52.749L90.3783 53.1078C90.095 52.9109 89.7759 52.7666 89.4326 52.6913L89.3829 52.1328H88.3591L88.3094 52.6913C87.9661 52.7666 87.6474 52.9109 87.3637 53.1078L86.9548 52.749L86.231 53.5161L86.5695 53.9494C86.3837 54.2497 86.2475 54.5879 86.1765 54.9517L85.6495 55.0044V56.0894L86.1765 56.142C86.2475 56.5059 86.3837 56.844 86.5695 57.1443L86.231 57.578L86.9548 58.3451L87.3637 57.9863C87.647 58.1833 87.9661 58.3276 88.3094 58.4032L88.3591 58.9617H89.3829L89.4326 58.4032ZM87.4851 55.5473C87.4851 54.7361 88.1056 54.0785 88.871 54.0785C89.6364 54.0785 90.2569 54.7361 90.2569 55.5473C90.2569 56.3585 89.6364 57.016 88.871 57.016C88.1056 57.016 87.4851 56.3585 87.4851 55.5473Z" fill="#F5F5F5"/>
<path d="M86.7682 52.2828L87.0531 52.6467L87.7633 52.1327L87.5477 51.7189C87.7453 51.5017 87.9072 51.245 88.0194 50.9564L88.4625 51.0001L88.6218 50.1047L88.1946 49.974C88.1894 49.662 88.1269 49.3606 88.0172 49.0821L88.3606 48.7802L87.8759 48.0275L87.4855 48.2561C87.2805 48.0467 87.0383 47.8751 86.766 47.7561L86.8072 47.2865L85.9623 47.1177L85.8394 47.5705C85.545 47.5759 85.2605 47.6426 84.9974 47.7584L84.7126 47.3946L84.0023 47.9082L84.218 48.322C84.0204 48.5392 83.8585 48.7958 83.7462 49.0844L83.3035 49.0408L83.1442 49.9362L83.5714 50.0665C83.5769 50.3785 83.6391 50.6799 83.7488 50.9584L83.4054 51.2603L83.8901 52.013L84.2805 51.7844C84.4855 51.9938 84.7277 52.1654 85 52.2844L84.9588 52.7536L85.8037 52.9224L85.927 52.4696C86.2206 52.4654 86.5051 52.3991 86.7682 52.2828ZM84.7387 49.7923C84.8579 49.1227 85.4666 48.6824 86.0985 48.8087C86.7303 48.9351 87.1458 49.5801 87.0266 50.2498C86.9073 50.9194 86.2983 51.3597 85.6668 51.2333C85.0349 51.107 84.6195 50.4615 84.7387 49.7923Z" fill="#F5F5F5"/>
<path opacity="0.4" d="M98.167 65.0009H81.7888C81.1658 65.0009 80.6605 64.4654 80.6605 63.8051C80.6605 63.1448 81.1658 62.6094 81.7888 62.6094H98.167C98.79 62.6094 99.2953 63.1448 99.2953 63.8051C99.2953 64.4654 98.79 65.0009 98.167 65.0009Z" fill="black"/>
<path d="M81.7889 64.611C81.3697 64.611 81.0286 64.2495 81.0286 63.8053C81.0286 63.361 81.3697 62.9995 81.7889 62.9995H91.9107C92.3298 62.9995 92.671 63.361 92.671 63.8053C92.671 64.2495 92.3298 64.611 91.9107 64.611H81.7889Z" fill="#F5F5F5"/>
<path d="M83.2965 78.5818C84.6962 78.5818 85.8309 77.3793 85.8309 75.8959C85.8309 74.4125 84.6962 73.21 83.2965 73.21C81.8968 73.21 80.7621 74.4125 80.7621 75.8959C80.7621 77.3793 81.8968 78.5818 83.2965 78.5818Z" fill="#407BFF"/>
<path d="M80.9726 79.2375C80.9726 80.0791 80.3286 80.7616 79.5345 80.7616C78.7403 80.7616 78.0963 80.0791 78.0963 79.2375C78.0963 78.3959 78.7399 77.7134 79.5345 77.7134C80.329 77.7134 80.9726 78.3955 80.9726 79.2375Z" fill="#407BFF"/>
<path d="M77.2429 79.7611C77.2429 80.2205 76.8914 80.5929 76.4579 80.5929C76.0244 80.5929 75.673 80.2205 75.673 79.7611C75.673 79.3017 76.0244 78.9292 76.4579 78.9292C76.8914 78.9292 77.2429 79.3017 77.2429 79.7611Z" fill="#407BFF"/>
</svg>
