<svg width="192" height="192" viewBox="0 0 192 192" fill="none" xmlns="http://www.w3.org/2000/svg">
<rect width="192" height="192" fill="#4A7740"/>
<path d="M63.5859 24.9057C63.5859 23.8716 63.8168 22.948 64.2786 22.1349C64.7504 21.3116 65.3879 20.6742 66.1911 20.2224C67.0042 19.7606 67.9128 19.5297 68.9167 19.5297C70.0913 19.5297 71.1203 19.8309 72.0038 20.4332C72.8872 21.0356 73.5046 21.8688 73.856 22.933H71.4315C71.1906 22.431 70.8493 22.0545 70.4075 21.8036C69.9759 21.5526 69.4739 21.4271 68.9017 21.4271C68.2893 21.4271 67.7421 21.5727 67.2602 21.8638C66.7884 22.1449 66.417 22.5465 66.1459 23.0685C65.8849 23.5905 65.7544 24.2029 65.7544 24.9057C65.7544 25.5984 65.8849 26.2108 66.1459 26.7429C66.417 27.2649 66.7884 27.6715 67.2602 27.9626C67.7421 28.2437 68.2893 28.3843 68.9017 28.3843C69.4739 28.3843 69.9759 28.2588 70.4075 28.0078C70.8493 27.7468 71.1906 27.3653 71.4315 26.8633H73.856C73.5046 27.9375 72.8872 28.7758 72.0038 29.3782C71.1304 29.9705 70.1013 30.2666 68.9167 30.2666C67.9128 30.2666 67.0042 30.0407 66.1911 29.589C65.3879 29.1272 64.7504 28.4897 64.2786 27.6765C63.8168 26.8633 63.5859 25.9397 63.5859 24.9057ZM77.765 28.5047H81.2285V30.1763H75.6567V19.6652H77.765V28.5047ZM84.6767 19.6652V30.1763H82.5685V19.6652H84.6767ZM98.2194 19.6652V30.1763H96.1112V23.3396L93.2952 30.1763H91.699L88.8679 23.3396V30.1763H86.7597V19.6652H89.154L92.4971 27.4807L95.8401 19.6652H98.2194ZM106.749 28.1734H102.563L101.87 30.1763H99.6563L103.436 19.6502H105.891L109.67 30.1763H107.442L106.749 28.1734ZM106.177 26.4869L104.656 22.0897L103.135 26.4869H106.177ZM118.236 19.6652V21.3669H115.435V30.1763H113.327V21.3669H110.526V19.6652H118.236ZM121.883 21.3669V24.0022H125.421V25.6737H121.883V28.4596H125.873V30.1763H119.774V19.6502H125.873V21.3669H121.883ZM70.5431 51.1734H66.3567L65.664 53.1763H63.4504L67.2301 42.6502H69.6847L73.4645 53.1763H71.2358L70.5431 51.1734ZM69.9708 49.4869L68.4499 45.0897L66.929 49.4869H69.9708ZM74.3653 47.9057C74.3653 46.8716 74.5962 45.948 75.058 45.1349C75.5299 44.3116 76.1673 43.6742 76.9705 43.2224C77.7837 42.7606 78.6922 42.5297 79.6961 42.5297C80.8707 42.5297 81.8997 42.8309 82.7832 43.4332C83.6666 44.0356 84.2841 44.8688 84.6354 45.933H82.211C81.97 45.431 81.6287 45.0545 81.187 44.8036C80.7553 44.5526 80.2533 44.4271 79.6811 44.4271C79.0687 44.4271 78.5215 44.5727 78.0397 44.8638C77.5678 45.1449 77.1964 45.5465 76.9253 46.0685C76.6643 46.5905 76.5338 47.2029 76.5338 47.9057C76.5338 48.5984 76.6643 49.2108 76.9253 49.7429C77.1964 50.2649 77.5678 50.6715 78.0397 50.9626C78.5215 51.2437 79.0687 51.3843 79.6811 51.3843C80.2533 51.3843 80.7553 51.2588 81.187 51.0078C81.6287 50.7468 81.97 50.3653 82.211 49.8633H84.6354C84.2841 50.9375 83.6666 51.7758 82.7832 52.3782C81.9098 52.9705 80.8808 53.2666 79.6961 53.2666C78.6922 53.2666 77.7837 53.0407 76.9705 52.589C76.1673 52.1272 75.5299 51.4897 75.058 50.6765C74.5962 49.8633 74.3653 48.9397 74.3653 47.9057ZM93.5891 42.6652V44.3669H90.7881V53.1763H88.6799V44.3669H85.879V42.6652H93.5891ZM97.2355 42.6652V53.1763H95.1273V42.6652H97.2355ZM104.198 53.2817C103.214 53.2817 102.31 53.0508 101.487 52.589C100.664 52.1272 100.011 51.4897 99.5293 50.6765C99.0474 49.8533 98.8065 48.9247 98.8065 47.8906C98.8065 46.8666 99.0474 45.948 99.5293 45.1349C100.011 44.3116 100.664 43.6691 101.487 43.2073C102.31 42.7455 103.214 42.5146 104.198 42.5146C105.191 42.5146 106.095 42.7455 106.908 43.2073C107.731 43.6691 108.379 44.3116 108.851 45.1349C109.333 45.948 109.574 46.8666 109.574 47.8906C109.574 48.9247 109.333 49.8533 108.851 50.6765C108.379 51.4897 107.731 52.1272 106.908 52.589C106.085 53.0508 105.181 53.2817 104.198 53.2817ZM104.198 51.3993C104.83 51.3993 105.387 51.2588 105.869 50.9777C106.351 50.6865 106.727 50.2749 106.998 49.7429C107.27 49.2108 107.405 48.5934 107.405 47.8906C107.405 47.1879 107.27 46.5755 106.998 46.0534C106.727 45.5214 106.351 45.1148 105.869 44.8337C105.387 44.5526 104.83 44.412 104.198 44.412C103.565 44.412 103.003 44.5526 102.511 44.8337C102.029 45.1148 101.653 45.5214 101.382 46.0534C101.11 46.5755 100.975 47.1879 100.975 47.8906C100.975 48.5934 101.11 49.2108 101.382 49.7429C101.653 50.2749 102.029 50.6865 102.511 50.9777C103.003 51.2588 103.565 51.3993 104.198 51.3993ZM120.132 53.1763H118.024L113.25 45.9631V53.1763H111.142V42.6502H113.25L118.024 49.8784V42.6502H120.132V53.1763Z" fill="white"/>
<path d="M9.61324 23.7647V17.6941H20.9544V52H14.1779V23.7647H9.61324ZM27.557 26.7294C27.7139 23.5922 28.8119 21.1765 30.8511 19.4824C32.9217 17.7569 35.6354 16.8941 38.9923 16.8941C41.2825 16.8941 43.2433 17.302 44.8746 18.1176C46.506 18.902 47.7295 19.9843 48.5452 21.3647C49.3923 22.7137 49.8158 24.251 49.8158 25.9765C49.8158 27.9529 49.2982 29.6314 48.2629 31.0118C47.259 32.3608 46.0511 33.2706 44.6393 33.7412V33.9294C46.459 34.4941 47.8707 35.498 48.8746 36.9412C49.9099 38.3843 50.4276 40.2353 50.4276 42.4941C50.4276 44.3765 49.9884 46.0549 49.1099 47.5294C48.2629 49.0039 46.9923 50.1647 45.2982 51.0118C43.6354 51.8275 41.6276 52.2353 39.2746 52.2353C35.7295 52.2353 32.8433 51.3412 30.6158 49.5529C28.3884 47.7647 27.2119 45.1294 27.0864 41.6471H33.4864C33.5491 43.1843 34.0668 44.4235 35.0393 45.3647C36.0433 46.2745 37.408 46.7294 39.1335 46.7294C40.7335 46.7294 41.957 46.2902 42.804 45.4118C43.6825 44.502 44.1217 43.3412 44.1217 41.9294C44.1217 40.0471 43.5256 38.698 42.3335 37.8824C41.1413 37.0667 39.2903 36.6588 36.7805 36.6588H35.4158V31.2471H36.7805C41.2354 31.2471 43.4629 29.7569 43.4629 26.7765C43.4629 25.4274 43.055 24.3765 42.2393 23.6235C41.455 22.8706 40.3099 22.4941 38.804 22.4941C37.3295 22.4941 36.1844 22.902 35.3688 23.7176C34.5844 24.502 34.1295 25.5059 34.004 26.7294H27.557Z" fill="white"/>
<path d="M25.4134 120.416C47.8448 92.4943 110.59 56.416 166.119 120.416C134.59 168.416 58.8252 169.828 25.4134 120.416Z" fill="white"/>
<path d="M96.003 91.6465C90.3023 91.6465 84.7296 93.337 79.9895 96.5041C75.2495 99.6713 71.5552 104.173 69.3736 109.44C67.192 114.707 66.6212 120.502 67.7334 126.093C68.8455 131.684 71.5907 136.82 75.6217 140.851C79.6528 144.882 84.7886 147.628 90.3799 148.74C95.9711 149.852 101.767 149.281 107.033 147.099C112.3 144.918 116.802 141.224 119.969 136.484C123.136 131.744 124.827 126.171 124.827 120.47C124.818 112.828 121.778 105.502 116.375 100.098C110.971 94.6946 103.645 91.6551 96.003 91.6465ZM71.3383 121.281L74.0939 122.199L77.4736 127.27V129.911C77.4736 130.457 77.6906 130.981 78.0767 131.367L83.6501 136.941V141.833C80.0224 139.734 76.9887 136.746 74.8348 133.15C72.6809 129.555 71.4777 125.47 71.3383 121.281ZM96.003 145.176C94.2221 145.172 92.4468 144.976 90.7082 144.59L91.8854 141.058L95.6007 131.77C95.7248 131.46 95.7715 131.124 95.737 130.792C95.7024 130.46 95.5875 130.141 95.4023 129.863L92.4967 125.504C92.3086 125.222 92.0539 124.991 91.755 124.831C91.4562 124.671 91.1225 124.588 90.7835 124.588H80.6335L78.0637 120.732L82.4438 116.352H85.7089V120.47H89.8266V114.84L97.7905 100.903L94.2156 98.8604L92.4555 101.941H86.8108L84.5749 98.587C87.5765 97.0029 90.8754 96.0618 94.261 95.8239C97.6467 95.586 101.045 96.0565 104.238 97.2053V103.999C104.238 104.545 104.455 105.069 104.841 105.455C105.227 105.841 105.751 106.058 106.297 106.058H109.313C109.652 106.058 109.986 105.975 110.284 105.815C110.583 105.655 110.838 105.423 111.026 105.141L112.831 102.433C115.183 104.626 117.086 107.256 118.433 110.176H110.044C109.568 110.176 109.107 110.341 108.739 110.643C108.371 110.944 108.119 111.364 108.025 111.831L106.539 121.036C106.469 121.468 106.539 121.912 106.739 122.303C106.939 122.693 107.258 123.009 107.65 123.205L114.532 126.646L115.943 134.996C113.658 138.146 110.66 140.71 107.195 142.479C103.729 144.248 99.8941 145.172 96.003 145.176Z" fill="#4A7740"/>
</svg>
