<svg width="80" height="81" viewBox="0 0 80 81" fill="none" xmlns="http://www.w3.org/2000/svg">
<g clip-path="url(#clip0_1_6435)">
<g clip-path="url(#clip1_1_6435)">
<g clip-path="url(#clip2_1_6435)">
<mask id="mask0_1_6435" style="mask-type:luminance" maskUnits="userSpaceOnUse" x="0" y="0" width="80" height="81">
<path d="M79.704 0.622559H0.00254822V80.3241H79.704V0.622559Z" fill="white"/>
</mask>
<g mask="url(#mask0_1_6435)">
<path d="M39.8461 77.1359C60.0943 77.1359 76.5087 60.7215 76.5087 40.4732C76.5087 20.225 60.0943 3.81055 39.8461 3.81055C19.5978 3.81055 3.18336 20.225 3.18336 40.4732C3.18336 60.7215 19.5978 77.1359 39.8461 77.1359Z" fill="#FFE4D4"/>
</g>
<path d="M29.5972 44.184V35.07L35.7972 31.406L34.7802 29.684L28.0882 33.639C27.7842 33.819 27.5972 34.146 27.5972 34.5V44.184C26.4362 44.598 25.5972 45.698 25.5972 47C25.5972 48.654 26.9432 50 28.5972 50C30.2512 50 31.5972 48.654 31.5972 47C31.5972 45.698 30.7582 44.598 29.5972 44.184ZM28.5972 48C28.0462 48 27.5972 47.552 27.5972 47C27.5972 46.448 28.0462 46 28.5972 46C29.1482 46 29.5972 46.448 29.5972 47C29.5972 47.552 29.1482 48 28.5972 48ZM50.5972 44C48.9432 44 47.5972 45.346 47.5972 47C47.5972 47.353 47.6692 47.687 47.7822 48.002L39.5972 52.838L33.1932 49.054L32.1762 50.776L39.0882 54.86C39.2452 54.954 39.4212 55 39.5972 55C39.7732 55 39.9492 54.954 40.1062 54.861L49.0662 49.566C49.5162 49.835 50.0362 50 50.5972 50C52.2512 50 53.5972 48.654 53.5972 47C53.5972 45.346 52.2512 44 50.5972 44ZM50.5972 48C50.0462 48 49.5972 47.552 49.5972 47C49.5972 46.448 50.0462 46 50.5972 46C51.1482 46 51.5972 46.448 51.5972 47C51.5972 47.552 51.1482 48 50.5972 48ZM39.5972 31C40.3282 31 40.9892 30.727 41.5102 30.292L49.5972 35.071V42H51.5972V34.5C51.5972 34.146 51.4102 33.819 51.1062 33.639L42.5392 28.577C42.5752 28.39 42.5972 28.198 42.5972 28C42.5972 26.346 41.2512 25 39.5972 25C37.9432 25 36.5972 26.346 36.5972 28C36.5972 29.654 37.9432 31 39.5972 31ZM39.5972 27C40.1482 27 40.5972 27.448 40.5972 28C40.5972 28.552 40.1482 29 39.5972 29C39.0462 29 38.5972 28.552 38.5972 28C38.5972 27.448 39.0462 27 39.5972 27Z" fill="black"/>
</g>
</g>
</g>
<defs>
<clipPath id="clip0_1_6435">
<rect width="79.7015" height="80.9468" fill="white"/>
</clipPath>
<clipPath id="clip1_1_6435">
<rect width="79.7015" height="80.9468" fill="white"/>
</clipPath>
<clipPath id="clip2_1_6435">
<rect width="79.7015" height="80.9468" fill="white" transform="translate(-0.000427246)"/>
</clipPath>
</defs>
</svg>
