<svg width="80" height="81" viewBox="0 0 80 81" fill="none" xmlns="http://www.w3.org/2000/svg">
<g clip-path="url(#clip0_1_6496)">
<g clip-path="url(#clip1_1_6496)">
<g clip-path="url(#clip2_1_6496)">
<mask id="mask0_1_6496" style="mask-type:luminance" maskUnits="userSpaceOnUse" x="0" y="0" width="80" height="81">
<path d="M79.704 0.622803H0.00250244V80.3243H79.704V0.622803Z" fill="white"/>
</mask>
<g mask="url(#mask0_1_6496)">
<path d="M39.846 77.1362C60.0942 77.1362 76.5087 60.7217 76.5087 40.4735C76.5087 20.2252 60.0942 3.81079 39.846 3.81079C19.5977 3.81079 3.18329 20.2252 3.18329 40.4735C3.18329 60.7217 19.5977 77.1362 39.846 77.1362Z" fill="#D7D3FF"/>
</g>
<path d="M51.5972 54H46.5972C46.0669 53.9994 45.5586 53.7885 45.1836 53.4135C44.8087 53.0386 44.5978 52.5302 44.5972 52V47C44.5978 46.4698 44.8087 45.9614 45.1836 45.5865C45.5586 45.2115 46.0669 45.0006 46.5972 45H51.5972C52.1274 45.0006 52.6358 45.2115 53.0107 45.5865C53.3857 45.9614 53.5966 46.4698 53.5972 47V52C53.5966 52.5302 53.3857 53.0386 53.0107 53.4135C52.6358 53.7885 52.1274 53.9994 51.5972 54ZM46.5972 47H46.596L46.5972 52H51.5972V47H46.5972ZM39.5972 47H34.5972C34.0669 46.9994 33.5586 46.7885 33.1836 46.4135C32.8087 46.0386 32.5978 45.5302 32.5972 45V35C32.5978 34.4698 32.8087 33.9614 33.1836 33.5865C33.5586 33.2115 34.0669 33.0006 34.5972 33H44.5972C45.1274 33.0006 45.6358 33.2115 46.0107 33.5865C46.3857 33.9614 46.5966 34.4698 46.5972 35V40H44.5972V35H34.5972V45H39.5972V47Z" fill="black"/>
<path d="M39.5972 54H27.5972C27.0669 53.9994 26.5586 53.7885 26.1836 53.4135C25.8087 53.0386 25.5978 52.5302 25.5972 52V28C25.5978 27.4698 25.8087 26.9614 26.1836 26.5865C26.5586 26.2115 27.0669 26.0006 27.5972 26H51.5972C52.1274 26.0006 52.6358 26.2115 53.0107 26.5865C53.3857 26.9614 53.5966 27.4698 53.5972 28V40H51.5972V28H27.5972V52H39.5972V54Z" fill="black"/>
</g>
</g>
</g>
<defs>
<clipPath id="clip0_1_6496">
<rect width="79.7015" height="80.9468" fill="white"/>
</clipPath>
<clipPath id="clip1_1_6496">
<rect width="79.7015" height="80.9468" fill="white" transform="translate(-0.000244141)"/>
</clipPath>
<clipPath id="clip2_1_6496">
<rect width="79.7015" height="80.9468" fill="white" transform="translate(-0.000488281)"/>
</clipPath>
</defs>
</svg>
