<svg width="80" height="80" viewBox="0 0 80 80" fill="none" xmlns="http://www.w3.org/2000/svg">
<g clip-path="url(#clip0_1_6506)">
<g clip-path="url(#clip1_1_6506)">
<mask id="mask0_1_6506" style="mask-type:luminance" maskUnits="userSpaceOnUse" x="0" y="0" width="80" height="80">
<path d="M79.7028 0H0.00125122V79.7015H79.7028V0Z" fill="white"/>
</mask>
<g mask="url(#mask0_1_6506)">
<path d="M39.8524 76.5134C60.1006 76.5134 76.5151 60.0989 76.5151 39.8507C76.5151 19.6024 60.1006 3.18799 39.8524 3.18799C19.6041 3.18799 3.1897 19.6024 3.1897 39.8507C3.1897 60.0989 19.6041 76.5134 39.8524 76.5134Z" fill="#97E1FF"/>
</g>
<path d="M30.1635 40H36.1635V42H30.1635V40ZM30.1635 36H40.1635V38H30.1635V36ZM30.1635 32H40.1635V34H30.1635V32Z" fill="black"/>
<path d="M38.1635 50H28.1635V30H52.1635V40H54.1635V30C54.1635 29.4696 53.9528 28.9609 53.5777 28.5858C53.2026 28.2107 52.6939 28 52.1635 28H28.1635C27.633 28 27.1243 28.2107 26.7493 28.5858C26.3742 28.9609 26.1635 29.4696 26.1635 30V50C26.1635 50.5304 26.3742 51.0391 26.7493 51.4142C27.1243 51.7893 27.633 52 28.1635 52H38.1635V50Z" fill="black"/>
<path d="M46.1635 49.59L43.5735 47L42.1635 48.41L46.1635 52.41L54.1635 44.41L52.7535 43L46.1635 49.59Z" fill="black"/>
</g>
</g>
<defs>
<clipPath id="clip0_1_6506">
<rect width="79.7015" height="79.7015" fill="white"/>
</clipPath>
<clipPath id="clip1_1_6506">
<rect width="79.7015" height="79.7015" fill="white" transform="translate(-0.000595093)"/>
</clipPath>
</defs>
</svg>
