<svg width="262" height="185" viewBox="0 0 262 185" fill="none" xmlns="http://www.w3.org/2000/svg">
<path d="M149.84 44.6852C143.561 41.261 140.707 44.1145 138.424 41.261C136.141 38.4069 144.702 30.9867 127.579 23.5664C127.579 23.5664 126.438 7.5851 103.036 7.01441C79.6345 6.44371 85.9128 22.9963 79.6345 26.9918C73.3556 30.9872 71.6441 24.709 65.3653 28.7039C59.0864 32.6993 61.9405 40.6909 56.8036 41.8323C51.6668 42.9737 44.8172 36.6954 38.539 40.6909C32.2607 44.6858 32.2607 48.1105 29.4066 48.1105C26.5525 48.1105 20.845 45.8278 17.4202 48.1105C13.9954 50.3939 9.99994 53.2474 9.99994 53.2474H154.406C154.406 53.2474 156.118 48.1099 149.84 44.6852Z" fill="#05D776"/>
<g opacity="0.5">
<path d="M149.84 44.6852C143.561 41.261 140.707 44.1145 138.424 41.261C136.141 38.4069 144.702 30.9867 127.579 23.5664C127.579 23.5664 126.438 7.5851 103.036 7.01441C79.6345 6.44371 85.9128 22.9963 79.6345 26.9918C73.3556 30.9872 71.6441 24.709 65.3653 28.7039C59.0864 32.6993 61.9405 40.6909 56.8036 41.8323C51.6668 42.9737 44.8172 36.6954 38.539 40.6909C32.2607 44.6858 32.2607 48.1105 29.4066 48.1105C26.5525 48.1105 20.845 45.8278 17.4202 48.1105C13.9954 50.3939 9.99994 53.2474 9.99994 53.2474H154.406C154.406 53.2474 156.118 48.1099 149.84 44.6852Z" fill="white"/>
</g>
<path d="M244.948 20.1972C241.583 18.362 240.053 19.8913 238.83 18.362C237.606 16.8322 242.195 12.8553 233.017 8.87892C233.017 8.87892 232.406 0.313691 219.863 0.00772545C207.321 -0.29824 210.686 8.57355 207.321 10.7147C203.956 12.8559 203.039 9.49085 199.673 11.632C196.308 13.7732 197.837 18.0561 195.084 18.668C192.331 19.2799 188.66 15.9149 185.295 18.0561C181.93 20.1972 181.93 22.0324 180.401 22.0324C178.872 22.0324 175.812 20.8092 173.977 22.0324C172.142 23.2563 170 24.7855 170 24.7855H247.394C247.394 24.7855 248.313 22.033 244.948 20.1972Z" fill="#05D776"/>
<g opacity="0.5">
<path d="M244.948 20.1972C241.583 18.362 240.053 19.8913 238.83 18.362C237.606 16.8322 242.195 12.8553 233.017 8.87892C233.017 8.87892 232.406 0.313691 219.863 0.00772545C207.321 -0.29824 210.686 8.57355 207.321 10.7147C203.956 12.8559 203.039 9.49085 199.673 11.632C196.308 13.7732 197.837 18.0561 195.084 18.668C192.331 19.2799 188.66 15.9149 185.295 18.0561C181.93 20.1972 181.93 22.0324 180.401 22.0324C178.872 22.0324 175.812 20.8092 173.977 22.0324C172.142 23.2563 170 24.7855 170 24.7855H247.394C247.394 24.7855 248.313 22.033 244.948 20.1972Z" fill="white"/>
</g>
<path d="M240.991 66.31C239.531 65.5134 238.867 66.1773 238.335 65.5134C237.805 64.8495 239.795 63.1243 235.814 61.3984C235.814 61.3984 235.548 57.682 230.106 57.5488C224.664 57.4161 226.124 61.2658 224.664 62.1944C223.204 63.1237 222.805 61.6638 221.345 62.5924C219.885 63.5217 220.549 65.3801 219.354 65.6455C218.16 65.9108 216.566 64.4509 215.107 65.3801C213.647 66.3094 213.647 67.1054 212.983 67.1054C212.319 67.1054 210.992 66.5741 210.195 67.1054C209.398 67.6366 208.469 68.3 208.469 68.3H242.052C242.052 68.3 242.45 67.106 240.991 66.31Z" fill="#05D776"/>
<g opacity="0.5">
<path d="M240.991 66.31C239.531 65.5134 238.867 66.1773 238.335 65.5134C237.805 64.8495 239.795 63.1243 235.814 61.3984C235.814 61.3984 235.548 57.682 230.106 57.5488C224.664 57.4161 226.124 61.2658 224.664 62.1944C223.204 63.1237 222.805 61.6638 221.345 62.5924C219.885 63.5217 220.549 65.3801 219.354 65.6455C218.16 65.9108 216.566 64.4509 215.107 65.3801C213.647 66.3094 213.647 67.1054 212.983 67.1054C212.319 67.1054 210.992 66.5741 210.195 67.1054C209.398 67.6366 208.469 68.3 208.469 68.3H242.052C242.052 68.3 242.45 67.106 240.991 66.31Z" fill="white"/>
</g>
<path d="M67.9097 99.6917C75.9554 99.6917 82.4777 93.1694 82.4777 85.1237C82.4777 77.078 75.9554 70.5557 67.9097 70.5557C59.864 70.5557 53.3417 77.078 53.3417 85.1237C53.3417 93.1694 59.864 99.6917 67.9097 99.6917Z" fill="#92E3A9"/>
<path d="M52.9706 81.4949C56.4258 80.0751 58.0759 76.1231 56.656 72.6678C55.2362 69.2126 51.2842 67.5626 47.829 68.9824C44.3738 70.4022 42.7237 74.3542 44.1436 77.8095C45.5634 81.2647 49.5154 82.9147 52.9706 81.4949Z" fill="#92E3A9"/>
<path d="M78.5492 66.976C81.9354 63.5898 81.9354 58.0997 78.5492 54.7135C75.163 51.3273 69.6729 51.3273 66.2867 54.7135C62.9005 58.0997 62.9005 63.5898 66.2867 66.976C69.6729 70.3622 75.163 70.3622 78.5492 66.976Z" fill="#92E3A9"/>
<path d="M67.3834 60.6095C68.2158 57.0663 66.0182 53.5192 62.475 52.6868C58.9318 51.8544 55.3847 54.052 54.5523 57.5952C53.7199 61.1384 55.9174 64.6855 59.4607 65.5179C63.0039 66.3503 66.551 64.1528 67.3834 60.6095Z" fill="#92E3A9"/>
<path d="M53.2104 68.5989C56.8501 68.5989 59.8006 65.6483 59.8006 62.0087C59.8006 58.369 56.8501 55.4185 53.2104 55.4185C49.5708 55.4185 46.6202 58.369 46.6202 62.0087C46.6202 65.6483 49.5708 68.5989 53.2104 68.5989Z" fill="#92E3A9"/>
<path d="M72.7599 57.4509C76.3995 57.4509 79.3501 54.5004 79.3501 50.8607C79.3501 47.221 76.3995 44.2705 72.7599 44.2705C69.1202 44.2705 66.1697 47.221 66.1697 50.8607C66.1697 54.5004 69.1202 57.4509 72.7599 57.4509Z" fill="#92E3A9"/>
<path d="M85.5991 77.8403C88.6642 77.8403 91.1489 75.3556 91.1489 72.2905C91.1489 69.2255 88.6642 66.7407 85.5991 66.7407C82.534 66.7407 80.0493 69.2255 80.0493 72.2905C80.0493 75.3556 82.534 77.8403 85.5991 77.8403Z" fill="#92E3A9"/>
<path d="M95.4847 61.1909C99.9864 61.1909 103.636 57.5415 103.636 53.0398C103.636 48.538 99.9864 44.8887 95.4847 44.8887C90.9829 44.8887 87.3336 48.538 87.3336 53.0398C87.3336 57.5415 90.9829 61.1909 95.4847 61.1909Z" fill="#92E3A9"/>
<path d="M114.041 36.0445C114.041 38.056 112.41 39.6862 110.4 39.6862C108.388 39.6862 106.758 38.0554 106.758 36.0445C106.758 34.0331 108.389 32.4028 110.4 32.4028C112.41 32.4028 114.041 34.0331 114.041 36.0445Z" fill="#92E3A9"/>
<path d="M103.288 35.6974C103.288 37.3258 101.968 38.6459 100.34 38.6459C98.7114 38.6459 97.3913 37.3258 97.3913 35.6974C97.3913 34.069 98.7114 32.7495 100.34 32.7495C101.968 32.7495 103.288 34.0696 103.288 35.6974Z" fill="#92E3A9"/>
<path d="M123.059 24.7717C123.059 26.3039 121.817 27.5463 120.284 27.5463C118.752 27.5463 117.51 26.3039 117.51 24.7717C117.51 23.2395 118.752 21.9971 120.284 21.9971C121.817 21.9971 123.059 23.2395 123.059 24.7717Z" fill="#92E3A9"/>
<path d="M106.237 50.4388C109.206 50.4388 111.613 48.0319 111.613 45.0629C111.613 42.0939 109.206 39.687 106.237 39.687C103.268 39.687 100.861 42.0939 100.861 45.0629C100.861 48.0319 103.268 50.4388 106.237 50.4388Z" fill="#92E3A9"/>
<path d="M83.8681 62.9559C87.4312 62.9559 90.3197 60.0674 90.3197 56.5043C90.3197 52.9412 87.4312 50.0527 83.8681 50.0527C80.305 50.0527 77.4166 52.9412 77.4166 56.5043C77.4166 60.0674 80.305 62.9559 83.8681 62.9559Z" fill="#92E3A9"/>
<path d="M92.4312 74.2496C94.8256 74.2496 96.7667 72.3085 96.7667 69.9141C96.7667 67.5197 94.8256 65.5786 92.4312 65.5786C90.0368 65.5786 88.0957 67.5197 88.0957 69.9141C88.0957 72.3085 90.0368 74.2496 92.4312 74.2496Z" fill="#92E3A9"/>
<path d="M92.2696 64.879C94.6641 64.879 96.6051 62.9379 96.6051 60.5435C96.6051 58.1491 94.6641 56.208 92.2696 56.208C89.8752 56.208 87.9341 58.1491 87.9341 60.5435C87.9341 62.9379 89.8752 64.879 92.2696 64.879Z" fill="#92E3A9"/>
<path d="M103.418 69.8878C105.812 69.8878 107.753 67.9467 107.753 65.5523C107.753 63.1579 105.812 61.2168 103.418 61.2168C101.023 61.2168 99.082 63.1579 99.082 65.5523C99.082 67.9467 101.023 69.8878 103.418 69.8878Z" fill="#92E3A9"/>
<path d="M80.313 51.6305C82.7074 51.6305 84.6485 49.6894 84.6485 47.295C84.6485 44.9005 82.7074 42.9595 80.313 42.9595C77.9185 42.9595 75.9775 44.9005 75.9775 47.295C75.9775 49.6894 77.9185 51.6305 80.313 51.6305Z" fill="#92E3A9"/>
<path d="M70.2205 72.1359C70.9991 67.3135 67.721 62.773 62.8987 61.9944C58.0763 61.2157 53.5358 64.4938 52.7571 69.3162C51.9785 74.1385 55.2565 78.6791 60.0789 79.4577C64.9013 80.2364 69.4418 76.9583 70.2205 72.1359Z" fill="#92E3A9"/>
<path d="M92.1182 66.1033C92.6261 62.9836 90.5089 60.0428 87.3892 59.5349C84.2695 59.027 81.3287 61.1442 80.8208 64.2639C80.3128 67.3836 82.4301 70.3244 85.5498 70.8323C88.6695 71.3402 91.6102 69.223 92.1182 66.1033Z" fill="#92E3A9"/>
<path d="M81.7836 82.3488C86.5725 82.3488 90.4546 78.4667 90.4546 73.6778C90.4546 68.889 86.5725 65.0068 81.7836 65.0068C76.9947 65.0068 73.1126 68.889 73.1126 73.6778C73.1126 78.4667 76.9947 82.3488 81.7836 82.3488Z" fill="#92E3A9"/>
<path d="M71.2046 86.8579C77.0473 86.8579 81.7837 82.1215 81.7837 76.2788C81.7837 70.4361 77.0473 65.6997 71.2046 65.6997C65.3619 65.6997 60.6255 70.4361 60.6255 76.2788C60.6255 82.1215 65.3619 86.8579 71.2046 86.8579Z" fill="#92E3A9"/>
<path d="M85.7709 92.7504C89.3135 92.7504 92.1854 89.8785 92.1854 86.3359C92.1854 82.7933 89.3135 79.9214 85.7709 79.9214C82.2283 79.9214 79.3564 82.7933 79.3564 86.3359C79.3564 89.8785 82.2283 92.7504 85.7709 92.7504Z" fill="#92E3A9"/>
<path d="M52.9952 93.7951C56.6348 93.7951 59.5854 90.8446 59.5854 87.2049C59.5854 83.5653 56.6348 80.6147 52.9952 80.6147C49.3555 80.6147 46.405 83.5653 46.405 87.2049C46.405 90.8446 49.3555 93.7951 52.9952 93.7951Z" fill="#92E3A9"/>
<path d="M85.8227 64.0445C86.4411 61.4347 84.8268 58.8178 82.2171 58.1993C79.6073 57.5809 76.9904 59.1952 76.3719 61.8049C75.7535 64.4147 77.3678 67.0316 79.9775 67.6501C82.5873 68.2685 85.2042 66.6542 85.8227 64.0445Z" fill="#92E3A9"/>
<path d="M88.547 89.2859C93.2402 89.2859 97.0447 85.4814 97.0447 80.7882C97.0447 76.0951 93.2402 72.2905 88.547 72.2905C83.8539 72.2905 80.0493 76.0951 80.0493 80.7882C80.0493 85.4814 83.8539 89.2859 88.547 89.2859Z" fill="#92E3A9"/>
<path d="M92.9686 126.979C89.8349 106.262 92.1852 90.7251 92.1852 90.7251H75.5854H60.8447H43.7136C43.7136 90.7251 46.104 106.262 42.917 126.979C39.7301 147.696 27.7783 180.363 27.7783 180.363H61.2367H75.1868H107.855C107.855 180.363 96.103 147.696 92.9686 126.979Z" fill="white" stroke="#263238" stroke-miterlimit="10" stroke-linecap="round" stroke-linejoin="round"/>
<path d="M74.2117 132.698C70.7499 135.171 64.4053 135.177 60.8556 132.695C62.3765 130.049 63.9045 127.392 65.466 124.676C66.8416 125.293 68.2083 125.438 69.578 124.631C71.1592 127.385 72.6884 130.046 74.2117 132.698Z" fill="#263238"/>
<path d="M71.5804 121.195C71.2799 119.395 71.1036 119.087 69.5026 117.568C70.2681 116.267 71.0516 114.95 71.8213 113.625C72.5922 112.299 73.3493 110.965 74.1035 109.649C77.8683 111.155 81.3564 117.239 80.7576 121.195C77.7272 121.195 74.6873 121.195 71.5804 121.195Z" fill="#263238"/>
<path d="M60.918 109.664C62.464 112.293 64.0159 114.932 65.5984 117.623C64.4378 118.441 63.698 119.45 63.5444 120.834C63.5271 120.989 63.2313 121.231 63.0628 121.233C60.1454 121.257 57.2285 121.251 54.329 121.251C53.6848 117.313 57.1258 111.272 60.918 109.664Z" fill="#263238"/>
<path d="M67.5833 123.868C66.0678 123.885 64.8708 122.735 64.8349 121.229C64.8003 119.773 66.0307 118.493 67.4864 118.471C68.9523 118.448 70.2156 119.666 70.2491 121.133C70.2826 122.598 69.0599 123.853 67.5833 123.868Z" fill="#263238"/>
<path d="M33.6874 165.846H50.9655" stroke="#263238" stroke-miterlimit="10" stroke-linecap="round" stroke-linejoin="round"/>
<path d="M70.7843 159.24H63.924" stroke="#263238" stroke-miterlimit="10" stroke-linecap="round" stroke-linejoin="round"/>
<path d="M43.8513 152.379H63.6697" stroke="#263238" stroke-miterlimit="10" stroke-linecap="round" stroke-linejoin="round"/>
<path d="M89.5868 134.847H81.456" stroke="#263238" stroke-miterlimit="10" stroke-linecap="round" stroke-linejoin="round"/>
<path d="M88.5704 103.341H82.472" stroke="#263238" stroke-miterlimit="10" stroke-linecap="round" stroke-linejoin="round"/>
<path d="M46.3921 109.947H54.2683" stroke="#263238" stroke-miterlimit="10" stroke-linecap="round" stroke-linejoin="round"/>
<path d="M79.169 135.102H77.136" stroke="#263238" stroke-miterlimit="10" stroke-linecap="round" stroke-linejoin="round"/>
<path d="M66.2105 152.379H68.4975" stroke="#263238" stroke-miterlimit="10" stroke-linecap="round" stroke-linejoin="round"/>
<path d="M44.8669 137.896H53.5062" stroke="#263238" stroke-miterlimit="10" stroke-linecap="round" stroke-linejoin="round"/>
<path d="M55.7933 138.15H59.0961" stroke="#263238" stroke-miterlimit="10" stroke-linecap="round" stroke-linejoin="round"/>
<path d="M78.1525 171.69H66.4648" stroke="#263238" stroke-miterlimit="10" stroke-linecap="round" stroke-linejoin="round"/>
<path d="M66.973 99.0215H52.2359" stroke="#263238" stroke-miterlimit="10" stroke-linecap="round" stroke-linejoin="round"/>
<path d="M157.948 93.2751C157.948 93.9629 157.391 94.5198 156.703 94.5198C156.016 94.5198 155.459 93.9623 155.459 93.2751C155.459 92.5878 156.016 92.0303 156.703 92.0303C157.391 92.0303 157.948 92.5872 157.948 93.2751Z" fill="#92E3A9"/>
<path d="M151.847 101.425C152.805 101.425 153.582 100.649 153.582 99.6912C153.582 98.7335 152.805 97.957 151.847 97.957C150.89 97.957 150.113 98.7335 150.113 99.6912C150.113 100.649 150.89 101.425 151.847 101.425Z" fill="#92E3A9"/>
<path d="M154.102 95.8764C155.538 95.8764 156.703 94.7118 156.703 93.2751C156.703 91.8385 155.538 90.6738 154.102 90.6738C152.665 90.6738 151.5 91.8385 151.5 93.2751C151.5 94.7118 152.665 95.8764 154.102 95.8764Z" fill="#92E3A9"/>
<path d="M155.697 99.2145C155.697 99.9023 155.14 100.459 154.452 100.459C153.765 100.459 153.208 99.9017 153.208 99.2145C153.208 98.5267 153.765 97.9697 154.452 97.9697C155.14 97.9697 155.697 98.5273 155.697 99.2145Z" fill="#92E3A9"/>
<path d="M152.028 96.3973C152.028 96.904 151.617 97.3146 151.11 97.3146C150.604 97.3146 150.193 96.904 150.193 96.3973C150.193 95.8905 150.604 95.48 151.11 95.48C151.617 95.4794 152.028 95.8905 152.028 96.3973Z" fill="#92E3A9"/>
<path d="M157.401 90.107C157.401 91.0476 156.638 91.8108 155.697 91.8108C154.756 91.8108 153.993 91.0482 153.993 90.107C153.993 89.1664 154.756 88.4033 155.697 88.4033C156.638 88.4033 157.401 89.1658 157.401 90.107Z" fill="#92E3A9"/>
<path d="M158.974 84.1445C158.974 84.6148 158.592 84.9961 158.122 84.9961C157.652 84.9961 157.271 84.6148 157.271 84.1445C157.271 83.6742 157.652 83.293 158.122 83.293C158.592 83.293 158.974 83.6742 158.974 84.1445Z" fill="#92E3A9"/>
<path d="M154.78 86.2414C154.78 86.9286 154.222 87.4861 153.535 87.4861C152.848 87.4861 152.29 86.9286 152.29 86.2414C152.29 85.5535 152.848 84.9966 153.535 84.9966C154.223 84.996 154.78 85.5535 154.78 86.2414Z" fill="#92E3A9"/>
<path d="M157.27 96.0042C157.27 97.1623 156.331 98.1011 155.173 98.1011C154.015 98.1011 153.076 97.1623 153.076 96.0042C153.076 94.846 154.015 93.9072 155.173 93.9072C156.331 93.9072 157.27 94.846 157.27 96.0042Z" fill="#92E3A9"/>
<path d="M154.452 97.6753C154.452 98.5979 153.704 99.3461 152.782 99.3461C151.859 99.3461 151.111 98.5979 151.111 97.6753C151.111 96.7526 151.859 96.0044 152.782 96.0044C153.704 96.0044 154.452 96.752 154.452 97.6753Z" fill="#92E3A9"/>
<path d="M166.293 91.5667C166.293 92.5247 165.517 93.3009 164.559 93.3009C163.601 93.3009 162.824 92.5247 162.824 91.5667C162.824 90.6088 163.601 89.8325 164.559 89.8325C165.517 89.8331 166.293 90.6094 166.293 91.5667Z" fill="#92E3A9"/>
<path d="M169.414 85.1501C169.414 86.5867 168.249 87.7514 166.813 87.7514C165.376 87.7514 164.212 86.5867 164.212 85.1501C164.212 83.7135 165.376 82.5488 166.813 82.5488C168.249 82.5488 169.414 83.7135 169.414 85.1501Z" fill="#92E3A9"/>
<path d="M168.408 91.0895C168.408 91.7773 167.851 92.3343 167.164 92.3343C166.476 92.3343 165.919 91.7767 165.919 91.0895C165.919 90.4017 166.476 89.8447 167.164 89.8447C167.851 89.8447 168.408 90.4023 168.408 91.0895Z" fill="#92E3A9"/>
<path d="M164.739 88.2728C164.739 88.7795 164.328 89.1901 163.822 89.1901C163.315 89.1901 162.904 88.7795 162.904 88.2728C162.904 87.766 163.315 87.3555 163.822 87.3555C164.328 87.3555 164.739 87.766 164.739 88.2728Z" fill="#92E3A9"/>
<path d="M170.112 81.9825C170.112 82.9231 169.349 83.6863 168.408 83.6863C167.467 83.6863 166.704 82.9237 166.704 81.9825C166.704 81.0419 167.467 80.2788 168.408 80.2788C169.349 80.2788 170.112 81.0413 170.112 81.9825Z" fill="#92E3A9"/>
<path d="M171.12 87.0952C171.591 87.0952 171.972 86.714 171.972 86.2436C171.972 85.7733 171.591 85.3921 171.12 85.3921C170.65 85.3921 170.269 85.7733 170.269 86.2436C170.269 86.714 170.65 87.0952 171.12 87.0952Z" fill="#92E3A9"/>
<path d="M170.518 75.4185C170.518 75.8888 170.137 76.27 169.667 76.27C169.196 76.27 168.815 75.8888 168.815 75.4185C168.815 74.9482 169.196 74.5669 169.667 74.5669C170.137 74.5669 170.518 74.9482 170.518 75.4185Z" fill="#92E3A9"/>
<path d="M169.387 77.519C169.387 77.9893 169.006 78.3706 168.535 78.3706C168.065 78.3706 167.684 77.9893 167.684 77.519C167.684 77.0487 168.065 76.6675 168.535 76.6675C169.006 76.6675 169.387 77.0487 169.387 77.519Z" fill="#92E3A9"/>
<path d="M167.491 78.1169C167.491 78.8041 166.933 79.3616 166.246 79.3616C165.558 79.3616 165.001 78.8041 165.001 78.1169C165.001 77.429 165.559 76.8721 166.246 76.8721C166.934 76.8715 167.491 77.429 167.491 78.1169Z" fill="#92E3A9"/>
<path d="M169.981 87.8792C169.981 89.0373 169.042 89.9761 167.884 89.9761C166.726 89.9761 165.787 89.0373 165.787 87.8792C165.787 86.721 166.726 85.7822 167.884 85.7822C169.042 85.7822 169.981 86.721 169.981 87.8792Z" fill="#92E3A9"/>
<path d="M167.164 89.5503C167.164 90.4729 166.415 91.2211 165.493 91.2211C164.57 91.2211 163.822 90.4729 163.822 89.5503C163.822 88.6276 164.57 87.8794 165.493 87.8794C166.415 87.8794 167.164 88.6276 167.164 89.5503Z" fill="#92E3A9"/>
<path d="M179.397 83.8353C179.397 84.7932 178.621 85.5695 177.663 85.5695C176.705 85.5695 175.929 84.7932 175.929 83.8353C175.929 82.8773 176.705 82.1011 177.663 82.1011C178.621 82.1005 179.397 82.8773 179.397 83.8353Z" fill="#92E3A9"/>
<path d="M182.519 77.4187C182.519 78.8553 181.355 80.02 179.918 80.02C178.481 80.02 177.317 78.8553 177.317 77.4187C177.317 75.9821 178.481 74.8174 179.918 74.8174C181.355 74.8174 182.519 75.9821 182.519 77.4187Z" fill="#92E3A9"/>
<path d="M181.513 83.3581C181.513 84.0459 180.955 84.6028 180.268 84.6028C179.58 84.6028 179.023 84.0453 179.023 83.3581C179.023 82.6708 179.581 82.1133 180.268 82.1133C180.956 82.1133 181.513 82.6708 181.513 83.3581Z" fill="#92E3A9"/>
<path d="M177.844 80.5408C177.844 81.0476 177.433 81.4581 176.926 81.4581C176.419 81.4581 176.009 81.0476 176.009 80.5408C176.009 80.0341 176.419 79.6235 176.926 79.6235C177.433 79.6235 177.844 80.0341 177.844 80.5408Z" fill="#92E3A9"/>
<path d="M183.217 74.2506C183.217 75.1912 182.454 75.9543 181.513 75.9543C180.572 75.9543 179.809 75.1918 179.809 74.2506C179.809 73.3094 180.572 72.5469 181.513 72.5469C182.454 72.5469 183.217 73.3094 183.217 74.2506Z" fill="#92E3A9"/>
<path d="M184.789 68.2881C184.789 68.7584 184.408 69.1396 183.937 69.1396C183.467 69.1396 183.086 68.7584 183.086 68.2881C183.086 67.8178 183.467 67.4365 183.937 67.4365C184.408 67.4365 184.789 67.8178 184.789 68.2881Z" fill="#92E3A9"/>
<path d="M184.366 82.4098C184.366 83.097 183.808 83.6546 183.121 83.6546C182.433 83.6546 181.876 83.097 181.876 82.4098C181.876 81.722 182.434 81.165 183.121 81.165C183.809 81.1644 184.366 81.722 184.366 82.4098Z" fill="#92E3A9"/>
<path d="M183.086 80.1477C183.086 81.3058 182.147 82.2446 180.989 82.2446C179.831 82.2446 178.892 81.3058 178.892 80.1477C178.892 78.9896 179.831 78.0508 180.989 78.0508C182.147 78.0508 183.086 78.9896 183.086 80.1477Z" fill="#92E3A9"/>
<path d="M178.597 83.4897C179.52 83.4897 180.268 82.7416 180.268 81.8188C180.268 80.896 179.52 80.1479 178.597 80.1479C177.675 80.1479 176.926 80.896 176.926 81.8188C176.926 82.7416 177.675 83.4897 178.597 83.4897Z" fill="#92E3A9"/>
<path d="M187.415 72.8356C187.415 73.7314 186.689 74.4569 185.794 74.4569C184.899 74.4569 184.173 73.7308 184.173 72.8356C184.173 71.9404 184.899 71.2144 185.794 71.2144C186.689 71.2144 187.415 71.9404 187.415 72.8356Z" fill="#92E3A9"/>
<path d="M185.692 80.5372C186.196 80.5372 186.604 80.1289 186.604 79.6253C186.604 79.1217 186.196 78.7134 185.692 78.7134C185.188 78.7134 184.78 79.1217 184.78 79.6253C184.78 80.1289 185.188 80.5372 185.692 80.5372Z" fill="#92E3A9"/>
<path d="M189.442 66.1477C189.442 66.8194 188.897 67.3638 188.226 67.3638C187.554 67.3638 187.009 66.8194 187.009 66.1477C187.009 65.476 187.554 64.9316 188.226 64.9316C188.897 64.9316 189.442 65.476 189.442 66.1477Z" fill="#92E3A9"/>
<path d="M194.914 62.0941C194.914 62.654 194.46 63.1076 193.9 63.1076C193.341 63.1076 192.887 62.654 192.887 62.0941C192.887 61.5341 193.34 61.0806 193.9 61.0806C194.46 61.0806 194.914 61.5341 194.914 62.0941Z" fill="#92E3A9"/>
<path d="M190.658 69.2889C190.658 69.6809 190.34 69.9983 189.948 69.9983C189.556 69.9983 189.239 69.6803 189.239 69.2889C189.239 68.8975 189.556 68.5796 189.948 68.5796C190.34 68.5796 190.658 68.8969 190.658 69.2889Z" fill="#92E3A9"/>
<path d="M175.177 85.5464H180.62L182.434 148.757H173.362L175.177 85.5464Z" fill="#263238" stroke="#263238" stroke-miterlimit="10" stroke-linecap="round" stroke-linejoin="round"/>
<path d="M162.593 93.7407H168.037L169.851 156.952H160.779L162.593 93.7407Z" fill="#263238" stroke="#263238" stroke-miterlimit="10" stroke-linecap="round" stroke-linejoin="round"/>
<path d="M150.01 101.935H155.453L157.268 165.145H148.196L150.01 101.935Z" fill="#263238" stroke="#263238" stroke-miterlimit="10" stroke-linecap="round" stroke-linejoin="round"/>
<path d="M186.791 125.924H116.374V180.36H186.791V125.924Z" fill="white" stroke="#263238" stroke-miterlimit="10" stroke-linecap="round" stroke-linejoin="round"/>
<path d="M186.791 125.924H116.374V133.046H186.791V125.924Z" fill="#263238" stroke="#263238" stroke-miterlimit="10" stroke-linecap="round" stroke-linejoin="round"/>
<path d="M189.171 125.924H113.994V131.344H189.171V125.924Z" fill="white" stroke="#263238" stroke-miterlimit="10" stroke-linecap="round" stroke-linejoin="round"/>
<path d="M125.184 145.767H79.2738V180.36H125.184V145.767Z" fill="white" stroke="#263238" stroke-miterlimit="10" stroke-linecap="round" stroke-linejoin="round"/>
<path d="M126.465 144.7H77.9927V149.184H126.465V144.7Z" fill="white" stroke="#263238" stroke-miterlimit="10" stroke-linecap="round" stroke-linejoin="round"/>
<path d="M86.747 150.761H80.9814V156.526H86.747V150.761Z" fill="#263238" stroke="#263238" stroke-miterlimit="10" stroke-linecap="round" stroke-linejoin="round"/>
<path d="M95.9294 150.761H90.1639V156.526H95.9294V150.761Z" fill="#263238" stroke="#263238" stroke-miterlimit="10" stroke-linecap="round" stroke-linejoin="round"/>
<path d="M105.112 150.761H99.3463V156.526H105.112V150.761Z" fill="#263238" stroke="#263238" stroke-miterlimit="10" stroke-linecap="round" stroke-linejoin="round"/>
<path d="M114.294 150.761H108.528V156.526H114.294V150.761Z" fill="#263238" stroke="#263238" stroke-miterlimit="10" stroke-linecap="round" stroke-linejoin="round"/>
<path d="M123.476 150.761H117.71V156.526H123.476V150.761Z" fill="#263238" stroke="#263238" stroke-miterlimit="10" stroke-linecap="round" stroke-linejoin="round"/>
<path d="M86.747 159.302H80.9815V165.067H86.747V159.302Z" fill="#263238" stroke="#263238" stroke-miterlimit="10" stroke-linecap="round" stroke-linejoin="round"/>
<path d="M95.9295 159.302H90.1639V165.067H95.9295V159.302Z" fill="#263238" stroke="#263238" stroke-miterlimit="10" stroke-linecap="round" stroke-linejoin="round"/>
<path d="M105.112 159.302H99.3463V165.067H105.112V159.302Z" fill="#263238" stroke="#263238" stroke-miterlimit="10" stroke-linecap="round" stroke-linejoin="round"/>
<path d="M114.294 159.302H108.528V165.067H114.294V159.302Z" fill="#263238" stroke="#263238" stroke-miterlimit="10" stroke-linecap="round" stroke-linejoin="round"/>
<path d="M86.747 167.417H80.9815V173.182H86.747V167.417Z" fill="#263238" stroke="#263238" stroke-miterlimit="10" stroke-linecap="round" stroke-linejoin="round"/>
<path d="M95.9295 167.417H90.1639V173.182H95.9295V167.417Z" fill="#263238" stroke="#263238" stroke-miterlimit="10" stroke-linecap="round" stroke-linejoin="round"/>
<path d="M105.112 167.417H99.3463V173.182H105.112V167.417Z" fill="#263238" stroke="#263238" stroke-miterlimit="10" stroke-linecap="round" stroke-linejoin="round"/>
<path d="M114.294 167.417H108.528V173.182H114.294V167.417Z" fill="#263238" stroke="#263238" stroke-miterlimit="10" stroke-linecap="round" stroke-linejoin="round"/>
<path d="M223.41 145.767H177.5V180.36H223.41V145.767Z" fill="white" stroke="#263238" stroke-miterlimit="10" stroke-linecap="round" stroke-linejoin="round"/>
<path d="M224.691 144.7H176.219V149.184H224.691V144.7Z" fill="white" stroke="#263238" stroke-miterlimit="10" stroke-linecap="round" stroke-linejoin="round"/>
<path d="M184.973 150.761H179.208V156.526H184.973V150.761Z" fill="#263238" stroke="#263238" stroke-miterlimit="10" stroke-linecap="round" stroke-linejoin="round"/>
<path d="M194.156 150.761H188.39V156.526H194.156V150.761Z" fill="#263238" stroke="#263238" stroke-miterlimit="10" stroke-linecap="round" stroke-linejoin="round"/>
<path d="M203.338 150.761H197.572V156.526H203.338V150.761Z" fill="#263238" stroke="#263238" stroke-miterlimit="10" stroke-linecap="round" stroke-linejoin="round"/>
<path d="M212.52 150.761H206.755V156.526H212.52V150.761Z" fill="#263238" stroke="#263238" stroke-miterlimit="10" stroke-linecap="round" stroke-linejoin="round"/>
<path d="M221.702 150.761H215.936V156.526H221.702V150.761Z" fill="#263238" stroke="#263238" stroke-miterlimit="10" stroke-linecap="round" stroke-linejoin="round"/>
<path d="M194.156 159.302H188.39V165.067H194.156V159.302Z" fill="#263238" stroke="#263238" stroke-miterlimit="10" stroke-linecap="round" stroke-linejoin="round"/>
<path d="M203.338 159.302H197.572V165.067H203.338V159.302Z" fill="#263238" stroke="#263238" stroke-miterlimit="10" stroke-linecap="round" stroke-linejoin="round"/>
<path d="M212.52 159.302H206.754V165.067H212.52V159.302Z" fill="#263238" stroke="#263238" stroke-miterlimit="10" stroke-linecap="round" stroke-linejoin="round"/>
<path d="M221.702 159.302H215.937V165.067H221.702V159.302Z" fill="#263238" stroke="#263238" stroke-miterlimit="10" stroke-linecap="round" stroke-linejoin="round"/>
<path d="M194.156 167.417H188.39V173.182H194.156V167.417Z" fill="#263238" stroke="#263238" stroke-miterlimit="10" stroke-linecap="round" stroke-linejoin="round"/>
<path d="M203.338 167.417H197.572V173.182H203.338V167.417Z" fill="#263238" stroke="#263238" stroke-miterlimit="10" stroke-linecap="round" stroke-linejoin="round"/>
<path d="M212.52 167.417H206.754V173.182H212.52V167.417Z" fill="#263238" stroke="#263238" stroke-miterlimit="10" stroke-linecap="round" stroke-linejoin="round"/>
<path d="M221.702 167.417H215.937V173.182H221.702V167.417Z" fill="#263238" stroke="#263238" stroke-miterlimit="10" stroke-linecap="round" stroke-linejoin="round"/>
<path d="M180.49 164.772H123.476V180.361H180.49V164.772Z" fill="white" stroke="#263238" stroke-miterlimit="10" stroke-linecap="round" stroke-linejoin="round"/>
<path d="M180.49 164.772H123.476V168.785H180.49V164.772Z" fill="#263238" stroke="#263238" stroke-miterlimit="10" stroke-linecap="round" stroke-linejoin="round"/>
<path d="M182.411 159.22H121.554V167.334H182.411V159.22Z" fill="white" stroke="#263238" stroke-miterlimit="10" stroke-linecap="round" stroke-linejoin="round"/>
<path d="M150.167 169.042H126.465V180.36H150.167V169.042Z" fill="white" stroke="#263238" stroke-miterlimit="10" stroke-linecap="round" stroke-linejoin="round"/>
<path d="M177.499 169.042H153.797V180.36H177.499V169.042Z" fill="white" stroke="#263238" stroke-miterlimit="10" stroke-linecap="round" stroke-linejoin="round"/>
<path d="M126.5 170.407H150.064" stroke="#263238" stroke-miterlimit="10" stroke-linecap="round" stroke-linejoin="round"/>
<path d="M126.5 171.677H150.064" stroke="#263238" stroke-miterlimit="10" stroke-linecap="round" stroke-linejoin="round"/>
<path d="M126.5 172.946H150.064" stroke="#263238" stroke-miterlimit="10" stroke-linecap="round" stroke-linejoin="round"/>
<path d="M126.5 174.216H150.064" stroke="#263238" stroke-miterlimit="10" stroke-linecap="round" stroke-linejoin="round"/>
<path d="M126.5 175.486H150.064" stroke="#263238" stroke-miterlimit="10" stroke-linecap="round" stroke-linejoin="round"/>
<path d="M126.5 176.756H150.064" stroke="#263238" stroke-miterlimit="10" stroke-linecap="round" stroke-linejoin="round"/>
<path d="M126.5 178.026H150.064" stroke="#263238" stroke-miterlimit="10" stroke-linecap="round" stroke-linejoin="round"/>
<path d="M126.5 179.296H150.064" stroke="#263238" stroke-miterlimit="10" stroke-linecap="round" stroke-linejoin="round"/>
<path d="M153.84 170.407H177.403" stroke="#263238" stroke-miterlimit="10" stroke-linecap="round" stroke-linejoin="round"/>
<path d="M153.84 171.677H177.403" stroke="#263238" stroke-miterlimit="10" stroke-linecap="round" stroke-linejoin="round"/>
<path d="M153.84 172.946H177.403" stroke="#263238" stroke-miterlimit="10" stroke-linecap="round" stroke-linejoin="round"/>
<path d="M153.84 174.216H177.403" stroke="#263238" stroke-miterlimit="10" stroke-linecap="round" stroke-linejoin="round"/>
<path d="M153.84 175.486H177.403" stroke="#263238" stroke-miterlimit="10" stroke-linecap="round" stroke-linejoin="round"/>
<path d="M153.84 176.756H177.403" stroke="#263238" stroke-miterlimit="10" stroke-linecap="round" stroke-linejoin="round"/>
<path d="M153.84 178.026H177.403" stroke="#263238" stroke-miterlimit="10" stroke-linecap="round" stroke-linejoin="round"/>
<path d="M153.84 179.296H177.403" stroke="#263238" stroke-miterlimit="10" stroke-linecap="round" stroke-linejoin="round"/>
<path d="M143.017 137.735H134.651V155.663H143.017V137.735Z" fill="#263238" stroke="#263238" stroke-miterlimit="10" stroke-linecap="round" stroke-linejoin="round"/>
<path d="M155.765 137.735H147.399V155.663H155.765V137.735Z" fill="#263238" stroke="#263238" stroke-miterlimit="10" stroke-linecap="round" stroke-linejoin="round"/>
<path d="M168.514 137.735H160.148V155.663H168.514V137.735Z" fill="#263238" stroke="#263238" stroke-miterlimit="10" stroke-linecap="round" stroke-linejoin="round"/>
<path d="M252.442 180.364H254.751" stroke="#263238" stroke-miterlimit="10" stroke-linecap="round" stroke-linejoin="round"/>
<path d="M10.2322 180.364H250.019" stroke="#263238" stroke-miterlimit="10" stroke-linecap="round" stroke-linejoin="round"/>
<path d="M1.11462 184H260.758" stroke="#263238" stroke-miterlimit="10" stroke-linecap="round" stroke-linejoin="round"/>
<path d="M3.30389 180.364H6.19981" stroke="#263238" stroke-miterlimit="10" stroke-linecap="round" stroke-linejoin="round"/>
</svg>
