<svg width="215" height="184" viewBox="0 0 215 184" fill="none" xmlns="http://www.w3.org/2000/svg">
<path d="M176.758 138.654C177.296 138.904 177.529 139.542 177.279 140.079C177.029 140.617 176.39 140.849 175.853 140.6L171.87 138.746C171.332 138.496 171.1 137.858 171.35 137.321C171.6 136.784 172.238 136.55 172.775 136.8L176.758 138.654Z" fill="#FCD5BB"/>
<path d="M182.119 136.372C181.543 137.198 180.727 138.471 181.553 139.047C182.38 139.622 183.516 139.418 184.093 138.592L190.2 130.232C190.777 129.405 190.573 128.269 189.745 127.692C188.919 127.117 187.782 127.321 187.205 128.148L182.119 136.372Z" fill="#2A5768"/>
<path d="M175.37 138.053L182.119 136.371C183.112 136.206 184.054 136.778 184.223 137.649C184.393 138.52 183.725 139.358 182.732 139.523L176.648 140.672L175.37 138.053Z" fill="#2A5768"/>
<path opacity="0.4" d="M125.109 70.3592L127.276 70.0808C127.044 68.2764 126.505 66.545 125.672 64.935L123.733 65.9381C123.037 64.5924 122.098 63.3444 120.92 62.2589L122.393 60.6478L122.367 60.623C121.022 59.3911 119.493 58.4157 117.823 57.7246L116.988 59.7418C115.536 59.1412 114.004 58.8102 112.465 58.7438L112.561 56.5617C110.765 56.4843 108.94 56.7208 107.219 57.2612L107.875 59.3473C106.416 59.8053 105.024 60.5183 103.768 61.4838L102.435 59.7498C101.722 60.2986 101.049 60.9153 100.436 61.5842C99.8282 62.2472 99.2765 62.9649 98.7952 63.7177L100.637 64.8963C99.7837 66.2308 99.1933 67.6794 98.8627 69.1719L96.7277 68.6993C96.434 70.0254 96.315 71.3883 96.3748 72.7486C96.3938 73.192 96.4332 73.6389 96.4902 74.0801L98.6573 73.798C98.8565 75.3262 99.317 76.8234 100.04 78.2173L98.1023 79.223C98.9357 80.8289 100.039 82.2677 101.38 83.5L102.857 81.8919C102.862 81.897 102.867 81.9014 102.871 81.9061C104.048 82.9833 105.366 83.8094 106.758 84.3885L105.919 86.4046C107.593 87.1008 109.363 87.4949 111.181 87.5759L111.278 85.3927C112.827 85.4631 114.382 85.2621 115.87 84.7968L116.522 86.8841C118.257 86.3422 119.868 85.5073 121.309 84.4027L119.979 82.6665C120.594 82.1966 121.177 81.67 121.718 81.0796C122.245 80.5034 122.708 79.8933 123.116 79.258L124.956 80.4396C125.937 78.9106 126.635 77.2361 127.031 75.4609L124.896 74.9851C125.235 73.4627 125.306 71.8966 125.109 70.3592ZM105.319 79.2318C101.363 75.6079 101.094 69.4631 104.718 65.5061C108.342 61.5506 114.487 61.2809 118.444 64.9051C122.4 68.5296 122.669 74.6745 119.045 78.6304C115.421 82.5874 109.276 82.8559 105.319 79.2318Z" fill="#5EA6B7"/>
<g opacity="0.3">
<path d="M109.565 104.64C104.247 99.3213 95.6226 99.3213 90.3038 104.64C84.9847 109.958 84.9851 118.581 90.3038 123.9C95.6226 129.219 104.246 129.22 109.565 123.9C114.884 118.581 114.883 109.958 109.565 104.64ZM92.9205 121.284C89.0475 117.41 89.0475 111.13 92.9209 107.257C96.7947 103.383 103.074 103.383 106.948 107.257C110.821 111.13 110.822 117.41 106.948 121.284C103.074 125.158 96.7943 125.157 92.9205 121.284Z" fill="#5EA6B7"/>
<path d="M109.565 104.639C104.246 99.3208 95.6222 99.3208 90.3034 104.639C84.9843 109.958 84.9847 118.581 90.3034 123.9C95.6222 129.219 104.245 129.219 109.565 123.9C114.883 118.581 114.883 109.958 109.565 104.639Z" stroke="#5EA6B7" stroke-width="4.45731" stroke-miterlimit="10" stroke-dasharray="4.75 4.75"/>
</g>
<g opacity="0.4">
<path d="M77.759 44.767C73.0813 39.3899 64.6879 39.0327 59.0126 43.9686C53.3377 48.9064 52.5299 57.2674 57.2082 62.6456C61.8866 68.0231 70.2796 68.3807 75.9542 63.4437C81.6294 58.5062 82.437 50.1446 77.759 44.767ZM60.0001 60.2169C56.593 56.3 57.1823 50.211 61.3148 46.6156C65.448 43.0203 71.5597 43.2801 74.9671 47.1965C78.3738 51.1126 77.7863 57.2021 73.6527 60.7981C69.5195 64.3938 63.4075 64.133 60.0001 60.2169Z" fill="#5EA6B7"/>
<path d="M77.7591 44.7675C73.0815 39.3904 64.6881 39.0331 59.0128 43.9691C53.3379 48.9069 52.53 57.2679 57.2084 62.6461C61.8868 68.0236 70.2798 68.3812 75.9544 63.4441C81.6296 58.5067 82.4371 50.145 77.7591 44.7675Z" stroke="#5EA6B7" stroke-width="4.67337" stroke-miterlimit="10" stroke-dasharray="5.64 6.27"/>
</g>
<g opacity="0.3">
<path d="M72.0927 76.8001C63.8784 68.5855 50.5596 68.5855 42.345 76.8001C34.1301 85.0143 34.1304 98.3332 42.345 106.547C50.5596 114.762 63.8781 114.762 72.0927 106.547C80.3076 98.3332 80.3073 85.0143 72.0927 76.8001ZM44.8446 104.048C38.0108 97.214 38.0108 86.1339 44.845 79.2997C51.6799 72.4662 62.7586 72.4662 69.5931 79.2997C76.4266 86.1335 76.4277 97.214 69.5931 104.048C62.7586 110.883 51.6788 110.881 44.8446 104.048Z" fill="#5EA6B7"/>
<path d="M72.0924 76.8006C63.8781 68.586 50.5593 68.586 42.3447 76.8006C34.1298 85.0148 34.1301 98.3336 42.3447 106.548C50.5593 114.762 63.8778 114.762 72.0924 106.548C80.3073 98.3336 80.307 85.0148 72.0924 76.8006Z" stroke="#5EA6B7" stroke-width="6.88411" stroke-miterlimit="10" stroke-dasharray="7.34 7.34"/>
</g>
<g opacity="0.3">
<path d="M152.191 103.553C144.664 96.0252 132.459 96.0252 124.931 103.553C117.402 111.081 117.403 123.286 124.931 130.814C132.459 138.342 144.663 138.342 152.191 130.814C159.719 123.286 159.719 111.081 152.191 103.553ZM127.222 128.523C120.959 122.261 120.959 112.107 127.222 105.845C133.485 99.5822 143.637 99.5822 149.901 105.845C156.163 112.107 156.164 122.261 149.901 128.523C143.637 134.787 133.484 134.786 127.222 128.523Z" fill="#5EA6B7"/>
<path d="M152.191 103.553C144.664 96.0252 132.459 96.0252 124.931 103.553C117.403 111.081 117.403 123.286 124.931 130.814C132.459 138.342 144.663 138.342 152.191 130.814C159.719 123.286 159.719 111.081 152.191 103.553Z" stroke="#5EA6B7" stroke-width="6.30855" stroke-miterlimit="10" stroke-dasharray="6.73 6.73"/>
</g>
<g opacity="0.2">
<path d="M50.5443 120.026C43.0171 112.498 30.812 112.498 23.2841 120.026C15.7559 127.554 15.7566 139.759 23.2841 147.287C30.812 154.814 43.0168 154.815 50.5443 147.287C58.0729 139.759 58.0725 127.554 50.5443 120.026ZM25.5753 144.996C19.3126 138.733 19.3126 128.58 25.5757 122.317C31.8385 116.055 41.9907 116.055 48.2545 122.317C54.5169 128.58 54.5177 138.733 48.2545 144.996C41.9907 151.259 31.8377 151.258 25.5753 144.996Z" fill="#5EA6B7"/>
<path d="M50.5443 120.027C43.0171 112.498 30.812 112.498 23.2841 120.027C15.7559 127.554 15.7566 139.76 23.2841 147.287C30.812 154.815 43.0168 154.815 50.5443 147.287C58.0729 139.76 58.0725 127.554 50.5443 120.027Z" stroke="#5EA6B7" stroke-width="6.30855" stroke-miterlimit="10" stroke-dasharray="6.73 6.73"/>
</g>
<g opacity="0.4">
<path d="M81.32 120.888C76.2606 115.828 68.0566 115.828 62.9969 120.888C57.9369 125.947 57.9372 134.151 62.9969 139.211C68.0566 144.271 76.2603 144.271 81.32 139.211C86.38 134.151 86.3797 125.947 81.32 120.888ZM64.5361 137.671C60.327 133.462 60.327 126.637 64.5364 122.427C68.7466 118.218 75.5706 118.218 79.7804 122.427C83.9896 126.637 83.9903 133.462 79.7804 137.671C75.5706 141.881 68.7459 141.881 64.5361 137.671Z" fill="#5EA6B7"/>
<path d="M81.3198 120.889C76.2605 115.829 68.0565 115.829 62.9968 120.889C57.9368 125.948 57.9371 134.152 62.9968 139.212C68.0565 144.272 76.2602 144.272 81.3198 139.212C86.3799 134.152 86.3795 125.948 81.3198 120.889Z" stroke="#5EA6B7" stroke-width="4.24034" stroke-miterlimit="10" stroke-dasharray="4.52 4.52"/>
</g>
<path d="M15.0426 135.957C7.83911 135.957 2 141.796 2 149C2 156.203 7.83911 162.042 15.0426 162.042C22.2457 162.042 28.0848 156.203 28.0848 149C28.0848 141.796 22.2457 135.957 15.0426 135.957ZM15.0426 153.742C12.423 153.742 10.3 151.619 10.3 149C10.3 146.38 12.4233 144.257 15.0426 144.257C17.6618 144.257 19.7852 146.38 19.7852 149C19.7852 151.619 17.6618 153.742 15.0426 153.742Z" fill="#E24B69"/>
<path d="M15.0426 135.957C7.83911 135.957 2 141.796 2 149C2 156.203 7.83911 162.042 15.0426 162.042C22.2457 162.042 28.0848 156.203 28.0848 149C28.0848 141.796 22.2457 135.957 15.0426 135.957Z" stroke="#E24B69" stroke-width="2.37137" stroke-miterlimit="10" stroke-dasharray="2.79 4.65"/>
<path d="M164.538 134.719C157.149 135.821 152.052 142.703 153.154 150.092C154.255 157.481 161.138 162.578 168.527 161.476C175.915 160.375 181.012 153.492 179.911 146.104C178.81 138.714 171.927 133.617 164.538 134.719ZM167.509 154.652C163.89 155.192 160.517 152.695 159.977 149.075C159.438 145.454 161.935 142.082 165.555 141.543C169.175 141.003 172.547 143.5 173.087 147.12C173.628 150.741 171.13 154.113 167.509 154.652Z" fill="#F9BF64"/>
<path d="M164.538 134.719C157.149 135.821 152.052 142.703 153.154 150.091C154.255 157.481 161.138 162.577 168.527 161.476C175.915 160.374 181.012 153.492 179.911 146.103C178.81 138.714 171.927 133.617 164.538 134.719Z" stroke="#F9BF64" stroke-width="3.68902" stroke-miterlimit="10" stroke-dasharray="4.72 4.72"/>
<path d="M79.1126 71.3613C69.4968 72.795 62.864 81.7522 64.2973 91.3676C65.7307 100.983 74.6878 107.615 84.3033 106.183C93.9187 104.749 100.552 95.7924 99.1189 86.1766C97.6856 76.5608 88.7284 69.9276 79.1126 71.3613ZM82.9798 97.3027C78.2682 98.0048 73.88 94.755 73.1775 90.0434C72.4755 85.3319 75.7252 80.9443 80.4365 80.2411C85.1477 79.5391 89.5363 82.7889 90.2387 87.5004C90.9412 92.212 87.6906 96.6003 82.9798 97.3027Z" fill="#299B6F"/>
<path d="M79.1121 71.3613C69.4963 72.795 62.8635 81.7522 64.2969 91.3676C65.7302 100.983 74.6874 107.615 84.3028 106.183C93.9183 104.749 100.551 95.7924 99.1184 86.1766C97.6851 76.5608 88.7279 69.9276 79.1121 71.3613Z" stroke="#299B6F" stroke-width="5.76099" stroke-miterlimit="10" stroke-dasharray="6.14 6.14"/>
<path d="M90.2157 87.5041C90.9159 92.2029 87.6753 96.5795 82.9765 97.2797C78.278 97.98 73.9014 94.7389 73.2008 90.0401C72.5006 85.3421 75.7416 80.9655 80.4401 80.2652C85.1385 79.5643 89.5151 82.8057 90.2157 87.5041Z" stroke="#666666" stroke-width="0.960158" stroke-miterlimit="10"/>
<path d="M115.689 81.3677C109.996 82.3394 106.171 87.7418 107.143 93.4338C108.115 99.1259 113.517 102.952 119.209 101.979C124.901 101.007 128.726 95.6057 127.754 89.9136C126.783 84.2212 121.381 80.3956 115.689 81.3677ZM118.311 96.723C115.522 97.1996 112.876 95.3247 112.4 92.5358C111.923 89.7469 113.797 87.1003 116.586 86.6241C119.375 86.1475 122.022 88.0224 122.498 90.8113C122.975 93.6002 121.1 96.2468 118.311 96.723Z" fill="#E24B69"/>
<path d="M115.689 81.3677C109.996 82.3394 106.171 87.7418 107.143 93.4338C108.115 99.1259 113.517 102.952 119.209 101.979C124.901 101.007 128.727 95.6057 127.755 89.9136C126.783 84.2212 121.381 80.3956 115.689 81.3677Z" stroke="#E24B69" stroke-width="4.80083" stroke-miterlimit="10" stroke-dasharray="6.57 6.57"/>
<path d="M87.5844 119.104C83.2618 122.933 82.8619 129.541 86.6908 133.863C90.5197 138.186 97.1273 138.586 101.45 134.756C105.772 130.928 106.172 124.321 102.343 119.998C98.5142 115.676 91.9067 115.275 87.5844 119.104ZM97.9136 130.765C95.7954 132.641 92.5584 132.445 90.6824 130.327C88.8065 128.21 89.0024 124.972 91.1199 123.096C93.2378 121.221 96.4752 121.417 98.3511 123.534C100.228 125.652 100.031 128.889 97.9136 130.765Z" fill="#E6E6E6"/>
<path d="M87.584 119.104C83.2614 122.933 82.8615 129.541 86.6904 133.863C90.5192 138.186 97.1268 138.586 101.449 134.756C105.771 130.928 106.171 124.321 102.342 119.998C98.5138 115.676 91.9062 115.275 87.584 119.104Z" stroke="#E6E6E6" stroke-width="4.80083" stroke-miterlimit="10" stroke-dasharray="6.57 6.57"/>
<g opacity="0.75">
<path d="M134.042 98.7999C128.336 99.6833 124.425 105.025 125.307 110.731C126.191 116.438 131.532 120.348 137.238 119.465C142.944 118.583 146.855 113.241 145.973 107.535C145.09 101.829 139.749 97.9183 134.042 98.7999ZM136.424 114.196C133.627 114.628 131.011 112.712 130.578 109.916C130.146 107.121 132.062 104.504 134.857 104.07C137.653 103.638 140.27 105.554 140.703 108.35C141.136 111.147 139.219 113.763 136.424 114.196Z" fill="#E6E6E6"/>
<path d="M134.042 98.7999C128.336 99.6833 124.425 105.025 125.307 110.731C126.191 116.438 131.532 120.348 137.238 119.465C142.944 118.583 146.854 113.241 145.973 107.535C145.09 101.829 139.748 97.9183 134.042 98.7999Z" stroke="#E6E6E6" stroke-width="4.80083" stroke-miterlimit="10" stroke-dasharray="3.28 4.93"/>
<path d="M143.619 108.072C144.206 112.478 141.109 116.527 136.702 117.112C132.295 117.699 128.246 114.602 127.661 110.195C127.074 105.788 130.171 101.74 134.578 101.154C138.985 100.567 143.033 103.664 143.619 108.072Z" stroke="#666666" stroke-width="0.320053" stroke-miterlimit="10"/>
</g>
<g opacity="0.75">
<path d="M112.577 149.191C109.088 149.731 106.698 152.997 107.237 156.486C107.777 159.975 111.043 162.366 114.531 161.826C118.02 161.286 120.411 158.021 119.872 154.532C119.332 151.043 116.066 148.652 112.577 149.191ZM114.033 158.604C112.324 158.868 110.724 157.697 110.46 155.988C110.195 154.277 111.366 152.678 113.076 152.413C114.785 152.149 116.385 153.32 116.65 155.03C116.915 156.739 115.743 158.339 114.033 158.604Z" fill="#E6E6E6"/>
<path d="M112.577 149.191C109.088 149.731 106.697 152.997 107.237 156.486C107.776 159.975 111.042 162.366 114.531 161.826C118.02 161.286 120.411 158.021 119.872 154.532C119.332 151.043 116.066 148.652 112.577 149.191Z" stroke="#E6E6E6" stroke-width="2.93525" stroke-miterlimit="10" stroke-dasharray="2.01 3.01"/>
</g>
<path d="M66.3828 107.556C58.5582 107.117 51.8583 113.103 51.4183 120.927C50.9786 128.752 56.9647 135.452 64.79 135.892C72.6141 136.331 79.3137 130.346 79.7541 122.521C80.1934 114.696 74.2073 107.997 66.3828 107.556ZM64.9608 132.839C58.8228 132.493 54.1269 127.238 54.4721 121.099C54.8169 114.961 60.0722 110.265 66.2105 110.61C72.3492 110.955 77.0444 116.212 76.6995 122.349C76.3547 128.487 71.0987 133.183 64.9608 132.839Z" fill="#E24B69"/>
<path d="M66.3826 107.557C58.5581 107.117 51.8581 113.103 51.4181 120.928C50.9784 128.752 56.9645 135.452 64.7898 135.892C72.614 136.332 79.3135 130.346 79.7539 122.522C80.1933 114.697 74.2071 107.997 66.3826 107.557Z" stroke="#E24B69" stroke-width="4.80083" stroke-miterlimit="10" stroke-dasharray="4.95 4.95"/>
<path d="M124.265 46.9246C117.391 40.0499 106.245 40.0499 99.3706 46.9246C92.4959 53.7985 92.4963 64.9444 99.3706 71.8187C106.245 78.693 117.391 78.6934 124.265 71.8187C131.139 64.9444 131.139 53.7985 124.265 46.9246ZM102.753 68.4365C97.7464 63.43 97.7464 55.3132 102.753 50.3068C107.76 45.2997 115.876 45.2997 120.883 50.3065C125.89 55.3129 125.89 63.43 120.883 68.4368C115.876 73.4432 107.759 73.4425 102.753 68.4365Z" fill="#E6E6E6"/>
<path d="M124.265 46.9246C117.391 40.0499 106.245 40.0499 99.3705 46.9246C92.4958 53.7985 92.4962 64.9444 99.3705 71.8187C106.245 78.693 117.391 78.6934 124.265 71.8187C131.139 64.9444 131.139 53.7985 124.265 46.9246Z" stroke="#E6E6E6" stroke-width="5.76099" stroke-miterlimit="10" stroke-dasharray="6.14 6.14"/>
<path d="M58.5031 91.2082C55.1552 85.2939 47.6463 83.2125 41.7317 86.5608C35.8167 89.9091 33.7356 97.4177 37.0836 103.333C40.4315 109.247 47.9408 111.329 53.8554 107.98C59.7704 104.632 61.8515 97.1232 58.5031 91.2082ZM43.1227 99.9147C41.6627 97.3352 42.5702 94.0602 45.15 92.5999C47.7295 91.14 51.0041 92.0474 52.4641 94.6276C53.9244 97.2064 53.0169 100.482 50.4371 101.942C47.8572 103.402 44.5826 102.494 43.1227 99.9147Z" fill="#F9BF64"/>
<path d="M58.5029 91.2082C55.155 85.2939 47.6461 83.2125 41.7314 86.5608C35.8164 89.9091 33.7354 97.4177 37.0833 103.333C40.4313 109.247 47.9405 111.329 53.8552 107.98C59.7702 104.632 61.8512 97.1232 58.5029 91.2082Z" stroke="#F9BF64" stroke-width="4.02757" stroke-miterlimit="10" stroke-dasharray="3.22 5.37"/>
<path d="M162.501 155.075C163.999 155.998 165.845 156.348 167.722 156.068C172.122 155.412 175.159 151.312 174.503 146.911C174.056 143.914 171.709 142.137 169.365 140.553C148.356 126.366 106.311 96.1864 88.9324 80.9208C86.5905 78.8632 83.4921 77.6357 80.1704 78.1312C74.4703 78.9803 70.5386 84.2907 71.388 89.99C71.7161 92.19 73.1625 95.4847 76.7652 97.885C98.5135 112.377 143.055 143.097 162.501 155.075Z" stroke="#666666" stroke-width="0.899439" stroke-miterlimit="10"/>
<path d="M150.632 66.3227C144.171 62.4715 135.811 64.5868 131.959 71.0477C128.108 77.5094 130.223 85.8692 136.684 89.7207C143.145 93.5711 151.506 91.4569 155.357 84.9956C159.208 78.5344 157.093 70.1745 150.632 66.3227ZM138.579 86.5413C133.874 83.7364 132.333 77.6484 135.138 72.9423C137.944 68.238 144.031 66.6967 148.737 69.5017C153.442 72.3063 154.983 78.3942 152.178 83.1003C149.373 87.8064 143.284 89.3463 138.579 86.5413Z" fill="#437682"/>
<path d="M150.631 66.3222C144.17 62.471 135.81 64.5863 131.958 71.0472C128.107 77.5089 130.223 85.8687 136.684 89.7202C143.145 93.5706 151.505 91.4564 155.356 84.9951C159.208 78.5339 157.092 70.174 150.631 66.3222Z" stroke="#437682" stroke-width="4.80083" stroke-miterlimit="10" stroke-dasharray="5.79 6.43"/>
<path d="M88.522 4.20649C78.3315 5.72556 71.3017 15.2184 72.8208 25.4089C74.3395 35.5998 83.8327 42.6289 94.0229 41.1098C104.213 39.5907 111.243 30.0982 109.724 19.9077C108.205 9.71682 98.7122 2.68705 88.522 4.20649ZM92.6202 31.699C87.6269 32.4434 82.9763 28.9995 82.2319 24.0059C81.4875 19.013 84.9314 14.3623 89.9247 13.6176C94.9176 12.8736 99.5693 16.3175 100.314 21.3107C101.057 26.304 97.6127 30.9547 92.6202 31.699Z" fill="#299B6F"/>
<path d="M88.5224 4.20649C78.3318 5.72556 71.3021 15.2184 72.8211 25.4089C74.3398 35.5998 83.8331 42.6289 94.0232 41.1098C104.214 39.5907 111.244 30.0982 109.724 19.9077C108.206 9.71682 98.7125 2.68705 88.5224 4.20649Z" stroke="#299B6F" stroke-width="6.10549" stroke-miterlimit="10" stroke-dasharray="6.51 6.51"/>
<path d="M100.288 21.3139C101.03 26.2933 97.5958 30.9315 92.6164 31.6741C87.6373 32.4166 82.9988 28.9815 82.2562 24.0017C81.514 19.0223 84.9484 14.3841 89.9282 13.6419C94.9079 12.8997 99.5462 16.3341 100.288 21.3139Z" stroke="#666666" stroke-width="1.01759" stroke-miterlimit="10"/>
<path d="M84.0616 28.2344L136.184 84.8586" stroke="#666666" stroke-width="1.01759" stroke-miterlimit="10"/>
<path d="M97.5845 16.0498L150.827 71.1663" stroke="#666666" stroke-width="1.01759" stroke-miterlimit="10"/>
<path d="M153.542 76.5635C154.347 81.9644 150.622 86.9942 145.222 87.7988C139.822 88.6045 134.791 84.8792 133.987 79.4791C133.182 74.079 136.907 69.0485 142.307 68.2442C147.707 67.4389 152.737 71.1641 153.542 76.5635Z" stroke="#666666" stroke-width="1.01759" stroke-miterlimit="10"/>
<path d="M187.655 126.816C188.429 127.736 189.522 128.09 190.096 127.607C190.67 127.124 190.509 125.987 189.735 125.067L184.483 118.825C183.709 117.906 182.617 117.552 182.042 118.035C181.468 118.519 181.63 119.655 182.403 120.575L187.655 126.816Z" fill="#FCD5BB"/>
<path d="M178.923 121.161C179.15 123.211 180.994 124.689 183.043 124.462C185.093 124.236 186.491 121.67 186.265 119.62L185.895 116.281C185.669 114.232 183.824 112.754 181.775 112.98C179.725 113.207 178.248 115.052 178.474 117.101L178.923 121.161Z" fill="#FCD5BB"/>
<path d="M178.617 118.554C178.617 118.554 177.992 120.754 178.163 121.126C178.334 121.497 179.432 121.317 179.46 120.862C179.488 120.407 178.787 118.924 178.617 118.554Z" fill="#FCD5BB"/>
<path d="M184.726 116.659C183.052 115.737 183.083 119.178 183.083 119.178L182.074 119.904L181.99 116.603C180.084 116.046 178.452 116.939 178.452 116.939C177.415 115.267 178.588 112.439 181.206 112.041C188.924 110.87 186.344 120.341 186.344 120.341C186.344 120.341 185.188 119.9 184.918 118.96C185.355 117.687 185.249 116.947 184.726 116.659Z" fill="#9F4539"/>
<path d="M187.885 164.25C185.559 163.931 191.087 162.097 192.858 161.284C192.858 161.284 196.092 161.513 196.062 163.935C196.062 163.935 193.133 164.97 187.885 164.25Z" fill="#19282E"/>
<path d="M190.178 150.953L197.167 141.747C198.369 140.529 197.72 139.47 196.661 138.425C195.602 137.381 194.534 136.747 193.332 137.966C193.332 137.966 187.231 144.966 185.859 147.616C185.266 148.761 184.173 151.638 185.955 153.084C186.948 153.891 190.178 150.953 190.178 150.953Z" fill="#3D6A7C"/>
<path d="M195.831 162.895L190.177 150.954L185.269 152.4L190.091 162.419L195.831 162.895Z" fill="#3D6A7C"/>
<path d="M208.869 164.111C206.98 165.505 209.66 160.333 210.361 158.516C210.361 158.516 212.837 156.423 214.506 158.18C214.506 158.18 213.129 160.964 208.869 164.111Z" fill="#19282E"/>
<path d="M201.231 152.988L199.813 141.517C199.824 139.805 198.621 139.499 197.132 139.49C195.646 139.481 194.438 139.772 194.428 141.484C194.428 141.484 194.943 150.755 195.809 153.61C196.184 154.845 197.408 157.668 199.694 157.461C200.968 157.346 201.231 152.988 201.231 152.988Z" fill="#215568"/>
<path d="M213.615 157.595L201.231 152.987L198.726 157.448L209.172 161.259L213.615 157.595Z" fill="#215568"/>
<path d="M193.096 142.619C194.399 144.892 194.226 144.687 196.499 143.384C198.773 142.081 200.823 141.386 199.519 139.112L192.252 126.433C190.949 124.159 189.428 122.583 188.049 123.372L187.152 123.886C184.879 125.19 186.689 131.44 187.991 133.714L193.096 142.619Z" fill="#37687C"/>
<path d="M175.21 135.301C175.721 135.601 175.891 136.259 175.591 136.77C175.29 137.28 174.633 137.451 174.122 137.151L170.335 134.923C169.824 134.623 169.654 133.965 169.954 133.455C170.255 132.944 170.912 132.773 171.423 133.073L175.21 135.301Z" fill="#FCD5BB"/>
<path d="M180.765 133.544C180.112 134.312 179.176 135.5 179.944 136.153C180.712 136.805 181.863 136.71 182.516 135.943L189.398 128.209C190.051 127.441 189.957 126.29 189.189 125.637C188.422 124.985 187.27 125.079 186.618 125.846L180.765 133.544Z" fill="#548799"/>
<path d="M173.885 134.569L180.765 133.544C181.769 133.475 182.652 134.135 182.736 135.018C182.821 135.901 182.076 136.671 181.072 136.74L174.905 137.299L173.885 134.569Z" fill="#548799"/>
<path d="M189.298 123.559L186.044 126.009L185.946 124.717L188.492 122.821L189.298 123.559Z" fill="#E6E6E6"/>
<path d="M53.2147 182.057V181.963C53.0874 182.108 52.9622 182.227 52.8385 182.318C52.7152 182.41 52.5809 182.479 52.4364 182.526C52.2923 182.574 52.1346 182.597 51.9635 182.597C51.7369 182.597 51.5271 182.549 51.3341 182.454C51.1414 182.357 50.9743 182.22 50.8334 182.042C50.6922 181.865 50.5853 181.656 50.5127 181.415C50.44 181.175 50.4036 180.915 50.4036 180.635C50.4036 180.044 50.5481 179.583 50.8371 179.252C51.1261 178.922 51.5059 178.756 51.9774 178.756C52.2499 178.756 52.4798 178.803 52.667 178.897C52.8542 178.99 53.0367 179.135 53.2147 179.328V177.932C53.2147 177.738 53.2531 177.591 53.3308 177.492C53.4078 177.393 53.5183 177.343 53.6617 177.343C53.8051 177.343 53.915 177.388 53.9927 177.48C54.0701 177.572 54.1087 177.705 54.1087 177.884V182.057C54.1087 182.237 54.0675 182.371 53.9839 182.462C53.9007 182.552 53.7935 182.597 53.6617 182.597C53.5326 182.597 53.4257 182.55 53.341 182.457C53.2567 182.363 53.2147 182.23 53.2147 182.057ZM51.3534 180.667C51.3534 180.924 51.3932 181.142 51.4731 181.322C51.553 181.503 51.6621 181.638 51.8004 181.729C51.9391 181.82 52.0905 181.867 52.2543 181.867C52.4207 181.867 52.5725 181.823 52.7105 181.737C52.8477 181.65 52.9575 181.517 53.0396 181.338C53.1217 181.159 53.1626 180.934 53.1626 180.667C53.1626 180.415 53.1217 180.198 53.0396 180.017C52.9575 179.836 52.8469 179.697 52.7068 179.601C52.567 179.506 52.4138 179.458 52.2478 179.458C52.0744 179.458 51.9197 179.507 51.7832 179.605C51.6468 179.703 51.5413 179.843 51.4661 180.027C51.391 180.211 51.3534 180.424 51.3534 180.667Z" fill="white"/>
<path d="M57.3868 180.906H55.5364C55.5386 181.121 55.5816 181.31 55.6667 181.475C55.7506 181.638 55.863 181.762 56.0027 181.845C56.1425 181.929 56.2968 181.97 56.4654 181.97C56.5785 181.97 56.6818 181.957 56.7756 181.931C56.8694 181.904 56.9599 181.862 57.0478 181.806C57.1357 181.749 57.2164 181.689 57.2904 181.624C57.3642 181.559 57.4598 181.471 57.578 181.36C57.6265 181.319 57.6959 181.297 57.7863 181.297C57.8834 181.297 57.9615 181.324 58.0217 181.378C58.0819 181.431 58.1122 181.506 58.1122 181.603C58.1122 181.688 58.0783 181.788 58.0119 181.902C57.9444 182.017 57.8433 182.127 57.7083 182.231C57.5725 182.337 57.4036 182.424 57.1985 182.493C56.9945 182.563 56.7592 182.597 56.4931 182.597C55.886 182.597 55.413 182.424 55.0759 182.077C54.7387 181.731 54.5701 181.261 54.5701 180.667C54.5701 180.387 54.6114 180.127 54.6946 179.889C54.7778 179.649 54.8993 179.445 55.0584 179.274C55.2178 179.103 55.4141 178.972 55.6477 178.88C55.8808 178.789 56.1399 178.744 56.4242 178.744C56.7938 178.744 57.1109 178.821 57.3751 178.978C57.64 179.134 57.8385 179.335 57.9699 179.582C58.1012 179.829 58.1677 180.081 58.1677 180.337C58.1677 180.576 58.0994 180.73 57.9633 180.801C57.8265 180.871 57.6345 180.906 57.3868 180.906ZM55.5364 180.369H57.2521C57.2291 180.045 57.1416 179.803 56.9905 179.643C56.8391 179.482 56.6402 179.402 56.3928 179.402C56.1571 179.402 55.9633 179.483 55.8122 179.646C55.6608 179.809 55.5692 180.05 55.5364 180.369Z" fill="white"/>
<path d="M61.6983 181.361C61.6983 181.622 61.6352 181.845 61.5078 182.031C61.3808 182.218 61.1933 182.359 60.9444 182.455C60.6963 182.55 60.3941 182.598 60.0384 182.598C59.6987 182.598 59.4078 182.546 59.1652 182.442C58.9225 182.339 58.7433 182.208 58.628 182.053C58.5124 181.896 58.4547 181.74 58.4547 181.583C58.4547 181.479 58.4916 181.39 58.5656 181.316C58.6394 181.243 58.7331 181.206 58.8462 181.206C58.9455 181.206 59.0214 181.23 59.0747 181.278C59.128 181.327 59.179 181.395 59.2272 181.482C59.3243 181.652 59.4407 181.777 59.576 181.861C59.7111 181.943 59.895 181.985 60.1289 181.985C60.3183 181.985 60.4737 181.943 60.5948 181.858C60.716 181.774 60.7766 181.677 60.7766 181.569C60.7766 181.402 60.7138 181.282 60.5875 181.206C60.4617 181.129 60.254 181.056 59.9654 180.987C59.6395 180.906 59.3746 180.821 59.1699 180.732C58.9652 180.643 58.8021 180.526 58.6795 180.38C58.5572 180.235 58.4959 180.055 58.4959 179.843C58.4959 179.654 58.5525 179.474 58.6656 179.305C58.7791 179.137 58.9459 179.002 59.167 178.902C59.3874 178.802 59.6534 178.751 59.9654 178.751C60.2102 178.751 60.4306 178.777 60.6255 178.828C60.8211 178.878 60.9842 178.947 61.1145 179.033C61.2451 179.117 61.3443 179.212 61.4122 179.316C61.4801 179.42 61.5144 179.522 61.5144 179.621C61.5144 179.73 61.4779 179.819 61.4057 179.888C61.333 179.957 61.2298 179.992 61.0951 179.992C60.9981 179.992 60.9156 179.965 60.8474 179.908C60.7795 179.853 60.7014 179.77 60.6135 179.659C60.5419 179.567 60.458 179.492 60.3606 179.437C60.2635 179.382 60.1318 179.354 59.9654 179.354C59.7943 179.354 59.6527 179.39 59.5392 179.463C59.4261 179.536 59.3695 179.626 59.3695 179.735C59.3695 179.834 59.4111 179.916 59.4939 179.979C59.5775 180.043 59.6892 180.096 59.8304 180.138C59.9712 180.179 60.165 180.23 60.4128 180.289C60.7058 180.361 60.9455 180.447 61.1316 180.546C61.3173 180.645 61.4586 180.763 61.5549 180.898C61.6509 181.034 61.6983 181.187 61.6983 181.361Z" fill="white"/>
<path d="M62.6645 178.31C62.5328 178.31 62.4204 178.27 62.3266 178.189C62.2332 178.108 62.1862 177.994 62.1862 177.846C62.1862 177.712 62.234 177.602 62.3299 177.515C62.4259 177.428 62.5376 177.385 62.6645 177.385C62.7871 177.385 62.8955 177.424 62.9904 177.503C63.0853 177.581 63.1327 177.695 63.1327 177.846C63.1327 177.992 63.0864 178.105 62.9937 178.187C62.9014 178.269 62.7919 178.31 62.6645 178.31ZM63.1327 179.287V182.022C63.1327 182.211 63.0875 182.355 62.9973 182.452C62.9068 182.549 62.793 182.597 62.6543 182.597C62.5157 182.597 62.4029 182.548 62.3164 182.448C62.2296 182.349 62.1865 182.207 62.1865 182.022V179.315C62.1865 179.128 62.2296 178.987 62.3164 178.893C62.4029 178.798 62.5157 178.75 62.6543 178.75C62.793 178.75 62.9072 178.798 62.9973 178.893C63.0878 178.987 63.1327 179.119 63.1327 179.287Z" fill="white"/>
<path d="M67.2773 179.444V182.192C67.2773 182.506 67.2433 182.777 67.1762 183.004C67.1098 183.23 67.0021 183.417 66.854 183.565C66.7062 183.712 66.5128 183.823 66.2738 183.894C66.0348 183.966 65.737 184.002 65.3812 184.002C65.0554 184.002 64.7646 183.956 64.5077 183.865C64.2515 183.773 64.0541 183.655 63.9151 183.511C63.7768 183.367 63.7071 183.218 63.7071 183.066C63.7071 182.95 63.7465 182.855 63.8253 182.784C63.9038 182.71 63.9986 182.674 64.1092 182.674C64.2479 182.674 64.369 182.735 64.473 182.858C64.5237 182.92 64.5763 182.983 64.6306 183.046C64.685 183.111 64.7452 183.165 64.8109 183.209C64.8769 183.254 64.9558 183.288 65.0481 183.31C65.1404 183.331 65.247 183.343 65.367 183.343C65.6119 183.343 65.802 183.308 65.9373 183.24C66.0727 183.173 66.1672 183.077 66.2216 182.954C66.276 182.832 66.3077 182.701 66.3168 182.561C66.326 182.421 66.3329 182.197 66.3376 181.887C66.192 182.091 66.0242 182.245 65.8333 182.351C65.6429 182.457 65.4155 182.511 65.1524 182.511C64.8357 182.511 64.5591 182.43 64.3223 182.268C64.0858 182.106 63.9038 181.88 63.7768 181.589C63.6494 181.297 63.5863 180.962 63.5863 180.58C63.5863 180.297 63.6246 180.04 63.702 179.811C63.7797 179.582 63.8899 179.39 64.0329 179.232C64.176 179.075 64.3413 178.957 64.5285 178.877C64.7157 178.797 64.9211 178.757 65.1455 178.757C65.4134 178.757 65.6458 178.809 65.8421 178.911C66.0384 179.015 66.2209 179.176 66.3895 179.395V179.267C66.3895 179.103 66.4296 178.976 66.5106 178.885C66.5916 178.796 66.6956 178.75 66.8226 178.75C67.005 178.75 67.1262 178.81 67.186 178.929C67.247 179.048 67.2773 179.22 67.2773 179.444ZM64.5358 180.643C64.5358 181.027 64.6193 181.317 64.7868 181.513C64.9543 181.71 65.1711 181.808 65.4367 181.808C65.5936 181.808 65.7421 181.766 65.8819 181.681C66.022 181.597 66.1355 181.47 66.2234 181.3C66.311 181.13 66.3552 180.924 66.3552 180.681C66.3552 180.296 66.2705 179.995 66.1005 179.78C65.9304 179.566 65.7071 179.458 65.4298 179.458C65.1594 179.458 64.943 179.561 64.7803 179.767C64.6168 179.972 64.5358 180.264 64.5358 180.643Z" fill="white"/>
<path d="M68.7812 179.275V179.389C68.9473 179.169 69.1293 179.008 69.3271 178.906C69.5249 178.803 69.7515 178.751 70.008 178.751C70.2576 178.751 70.4806 178.806 70.6772 178.914C70.8736 179.023 71.0206 179.176 71.1173 179.375C71.1801 179.491 71.2202 179.615 71.2385 179.749C71.2571 179.883 71.2666 180.054 71.2666 180.262V182.023C71.2666 182.212 71.2231 182.355 71.1363 182.453C71.0498 182.55 70.9371 182.598 70.7984 182.598C70.6572 182.598 70.543 182.548 70.4554 182.449C70.3674 182.35 70.3237 182.207 70.3237 182.023V180.446C70.3237 180.134 70.2802 179.895 70.1934 179.73C70.1065 179.565 69.9343 179.482 69.6752 179.482C69.507 179.482 69.353 179.533 69.2144 179.633C69.0757 179.733 68.9739 179.872 68.9093 180.047C68.8633 180.188 68.84 180.451 68.84 180.837V182.023C68.84 182.214 68.7955 182.358 68.7068 182.455C68.6178 182.55 68.5028 182.598 68.362 182.598C68.2251 182.598 68.1135 182.549 68.0255 182.449C67.9379 182.35 67.8938 182.208 67.8938 182.023V179.288C67.8938 179.108 67.9328 178.974 68.0117 178.884C68.0901 178.796 68.1978 178.751 68.3339 178.751C68.4174 178.751 68.4926 178.771 68.5597 178.81C68.6265 178.85 68.6802 178.909 68.7207 178.987C68.7608 179.065 68.7812 179.161 68.7812 179.275Z" fill="white"/>
<path d="M74.5371 180.906H72.6867C72.6893 181.121 72.7323 181.31 72.817 181.475C72.9013 181.638 73.0133 181.762 73.1531 181.845C73.2924 181.929 73.4468 181.97 73.6154 181.97C73.7289 181.97 73.8321 181.957 73.9259 181.931C74.0189 181.904 74.1098 181.862 74.1981 181.806C74.2857 181.749 74.3663 181.689 74.4408 181.624C74.5145 181.559 74.6101 181.471 74.7283 181.36C74.7768 181.319 74.8462 181.297 74.9363 181.297C75.0334 181.297 75.1118 181.324 75.172 181.378C75.2322 181.431 75.2622 181.506 75.2622 181.603C75.2622 181.688 75.229 181.788 75.1618 181.902C75.0947 182.017 74.9936 182.127 74.8582 182.231C74.7228 182.337 74.5535 182.424 74.3488 182.493C74.1445 182.563 73.9091 182.597 73.6435 182.597C73.0359 182.597 72.5634 182.424 72.2258 182.077C71.889 181.731 71.7201 181.261 71.7201 180.667C71.7201 180.387 71.7617 180.127 71.8449 179.889C71.9281 179.649 72.0496 179.445 72.2091 179.274C72.3682 179.103 72.5648 178.972 72.798 178.88C73.0312 178.789 73.2903 178.744 73.5745 178.744C73.9442 178.744 74.2609 178.821 74.5254 178.978C74.7903 179.134 74.9885 179.335 75.1202 179.582C75.2516 179.829 75.318 180.081 75.318 180.337C75.318 180.576 75.2498 180.73 75.1133 180.801C74.9764 180.871 74.7845 180.906 74.5371 180.906ZM72.6867 180.369H74.4021C74.3791 180.045 74.2919 179.803 74.1405 179.643C73.989 179.482 73.7898 179.402 73.5428 179.402C73.307 179.402 73.1133 179.483 72.9618 179.646C72.8104 179.809 72.7192 180.05 72.6867 180.369Z" fill="white"/>
<path d="M78.3943 182.057V181.963C78.2673 182.108 78.1421 182.227 78.0184 182.318C77.8947 182.41 77.7608 182.479 77.6163 182.526C77.4722 182.574 77.3142 182.597 77.1434 182.597C76.9164 182.597 76.707 182.549 76.5143 182.454C76.3213 182.357 76.1545 182.22 76.0133 182.042C75.8721 181.865 75.7655 181.656 75.6929 181.415C75.6199 181.175 75.5838 180.915 75.5838 180.635C75.5838 180.044 75.7283 179.583 76.0169 179.252C76.3059 178.922 76.6858 178.756 77.1572 178.756C77.4298 178.756 77.6597 178.803 77.8469 178.897C78.0341 178.99 78.2166 179.135 78.3943 179.328V177.932C78.3943 177.738 78.4329 177.591 78.5107 177.492C78.5876 177.393 78.6986 177.343 78.8416 177.343C78.9847 177.343 79.0949 177.388 79.1726 177.48C79.2499 177.572 79.2886 177.705 79.2886 177.884V182.057C79.2886 182.237 79.247 182.371 79.1638 182.462C79.0806 182.552 78.9733 182.597 78.8416 182.597C78.7121 182.597 78.6052 182.55 78.5209 182.457C78.4366 182.363 78.3943 182.23 78.3943 182.057ZM76.5333 180.667C76.5333 180.924 76.5727 181.142 76.6526 181.322C76.7321 181.503 76.8413 181.638 76.9803 181.729C77.1186 181.82 77.27 181.867 77.4338 181.867C77.6002 181.867 77.7524 181.823 77.8896 181.737C78.0272 181.65 78.137 181.517 78.2187 181.338C78.3008 181.159 78.3417 180.934 78.3417 180.667C78.3417 180.415 78.3008 180.198 78.2187 180.017C78.137 179.836 78.0261 179.697 77.886 179.601C77.7458 179.506 77.5929 179.458 77.4265 179.458C77.2536 179.458 77.0985 179.507 76.9624 179.605C76.8263 179.703 76.7205 179.843 76.6453 180.027C76.5705 180.211 76.5333 180.424 76.5333 180.667Z" fill="white"/>
<path d="M82.2616 177.885V179.329C82.4393 179.145 82.6206 179.003 82.8056 178.905C82.9903 178.807 83.2194 178.758 83.492 178.758C83.8062 178.758 84.0817 178.833 84.3189 178.981C84.5553 179.13 84.7389 179.346 84.8699 179.629C85.0005 179.912 85.0658 180.248 85.0658 180.636C85.0658 180.923 85.0293 181.185 84.9567 181.424C84.8837 181.664 84.7779 181.871 84.6396 182.047C84.5009 182.222 84.3327 182.358 84.1353 182.454C83.9375 182.55 83.7197 182.598 83.4818 182.598C83.3362 182.598 83.199 182.58 83.0709 182.545C82.9425 182.511 82.8334 182.465 82.7432 182.409C82.6535 182.352 82.5765 182.294 82.513 182.234C82.4495 182.174 82.3656 182.083 82.2616 181.963V182.057C82.2616 182.234 82.2189 182.369 82.1331 182.461C82.0481 182.552 81.9394 182.597 81.8073 182.597C81.6733 182.597 81.5664 182.552 81.4869 182.461C81.407 182.369 81.3672 182.234 81.3672 182.057V177.926C81.3672 177.734 81.4059 177.589 81.4829 177.491C81.5602 177.393 81.6686 177.344 81.8073 177.344C81.9529 177.344 82.0649 177.391 82.1433 177.484C82.2222 177.578 82.2616 177.71 82.2616 177.885ZM82.3064 180.695C82.3064 181.072 82.3926 181.361 82.5648 181.563C82.737 181.765 82.9629 181.867 83.2424 181.867C83.4803 181.867 83.6854 181.764 83.8573 181.556C84.0295 181.35 84.1156 181.053 84.1156 180.667C84.1156 180.418 84.0802 180.203 84.0083 180.022C83.9364 179.842 83.835 179.703 83.7033 179.605C83.5715 179.507 83.4176 179.458 83.242 179.458C83.0618 179.458 82.9009 179.507 82.7604 179.605C82.6195 179.703 82.5086 179.845 82.4276 180.031C82.3469 180.217 82.3064 180.439 82.3064 180.695Z" fill="white"/>
<path d="M86.2923 182.716L86.3788 182.505L85.2144 179.573C85.1429 179.405 85.1067 179.281 85.1067 179.205C85.1067 179.124 85.1279 179.049 85.1691 178.981C85.2107 178.911 85.268 178.855 85.3406 178.814C85.4136 178.772 85.4891 178.751 85.5676 178.751C85.7037 178.751 85.8066 178.794 85.8763 178.881C85.9456 178.967 86.0066 179.091 86.0598 179.253L86.8604 181.583L87.6194 179.417C87.6793 179.241 87.7336 179.104 87.7822 179.004C87.8307 178.905 87.8818 178.838 87.9362 178.804C87.9902 178.769 88.0672 178.751 88.1668 178.751C88.2387 178.751 88.3073 178.77 88.3729 178.809C88.4386 178.847 88.4893 178.898 88.5255 178.963C88.5612 179.028 88.5795 179.095 88.5795 179.167C88.57 179.21 88.5554 179.273 88.5342 179.355C88.5131 179.435 88.4882 179.518 88.4583 179.6L87.2246 182.831C87.1181 183.115 87.0141 183.337 86.9126 183.499C86.8108 183.661 86.6765 183.785 86.5087 183.872C86.3412 183.958 86.1153 184.002 85.8311 184.002C85.5541 184.002 85.3457 183.972 85.2074 183.912C85.0684 183.852 84.9995 183.742 84.9995 183.582C84.9995 183.474 85.0319 183.39 85.0983 183.331C85.164 183.272 85.2618 183.242 85.3906 183.242C85.4417 183.242 85.4913 183.249 85.5399 183.264C85.6001 183.277 85.6519 183.284 85.6957 183.284C85.804 183.284 85.8898 183.269 85.9526 183.236C86.0146 183.204 86.0708 183.148 86.1208 183.068C86.17 182.989 86.2277 182.871 86.2923 182.716Z" fill="white"/>
<path d="M99.9977 178.83H100.224V178.547C100.224 178.25 100.26 178.015 100.336 177.84C100.41 177.665 100.538 177.538 100.718 177.458C100.896 177.379 101.142 177.339 101.453 177.339C102.008 177.339 102.283 177.473 102.283 177.746C102.283 177.832 102.253 177.908 102.195 177.97C102.139 178.032 102.07 178.063 101.991 178.063C101.955 178.063 101.89 178.057 101.799 178.042C101.713 178.03 101.634 178.021 101.571 178.021C101.401 178.021 101.292 178.072 101.242 178.173C101.195 178.273 101.17 178.417 101.17 178.605V178.83H101.401C101.763 178.83 101.941 178.938 101.941 179.157C101.941 179.309 101.895 179.409 101.798 179.451C101.703 179.492 101.571 179.513 101.401 179.513H101.17V182.02C101.17 182.207 101.126 182.348 101.036 182.446C100.948 182.546 100.833 182.594 100.692 182.594C100.558 182.594 100.447 182.546 100.357 182.446C100.268 182.348 100.224 182.207 100.224 182.02V179.513H99.9634C99.8214 179.513 99.7145 179.482 99.6375 179.417C99.5613 179.355 99.5226 179.272 99.5226 179.17C99.5226 178.943 99.6806 178.83 99.9977 178.83Z" fill="white"/>
<path d="M103.096 181.23V182.021C103.096 182.212 103.047 182.356 102.959 182.451C102.869 182.548 102.755 182.595 102.617 182.595C102.478 182.595 102.366 182.548 102.279 182.449C102.193 182.353 102.147 182.21 102.147 182.021V179.385C102.147 178.96 102.3 178.748 102.608 178.748C102.766 178.748 102.878 178.797 102.948 178.896C103.018 178.996 103.056 179.142 103.064 179.337C103.176 179.142 103.292 178.996 103.41 178.896C103.531 178.797 103.688 178.748 103.888 178.748C104.088 178.748 104.279 178.797 104.466 178.896C104.655 178.996 104.748 179.129 104.748 179.292C104.748 179.407 104.708 179.504 104.629 179.577C104.548 179.653 104.463 179.691 104.371 179.691C104.335 179.691 104.251 179.668 104.119 179.626C103.986 179.584 103.868 179.562 103.768 179.562C103.629 179.562 103.515 179.6 103.428 179.671C103.339 179.746 103.27 179.852 103.222 179.995C103.175 180.139 103.142 180.31 103.122 180.507C103.103 180.705 103.096 180.946 103.096 181.23Z" fill="white"/>
<path d="M107.445 180.904H105.594C105.598 181.119 105.64 181.309 105.723 181.473C105.809 181.636 105.92 181.76 106.061 181.844C106.201 181.927 106.354 181.968 106.524 181.968C106.638 181.968 106.74 181.956 106.834 181.927C106.927 181.902 107.018 181.86 107.106 181.803C107.194 181.747 107.274 181.687 107.348 181.62C107.422 181.557 107.518 181.468 107.637 181.358C107.686 181.317 107.755 181.294 107.844 181.294C107.942 181.294 108.019 181.321 108.08 181.376C108.141 181.429 108.169 181.503 108.169 181.601C108.169 181.686 108.137 181.786 108.072 181.899C108.003 182.015 107.903 182.125 107.767 182.23C107.63 182.334 107.46 182.422 107.256 182.491C107.052 182.56 106.817 182.595 106.551 182.595C105.942 182.595 105.47 182.422 105.133 182.076C104.796 181.729 104.625 181.258 104.625 180.665C104.625 180.385 104.668 180.125 104.752 179.886C104.835 179.646 104.956 179.442 105.117 179.27C105.275 179.098 105.471 178.968 105.705 178.877C105.938 178.785 106.196 178.74 106.481 178.74C106.851 178.74 107.168 178.818 107.433 178.976C107.696 179.13 107.897 179.332 108.027 179.579C108.159 179.827 108.224 180.078 108.224 180.336C108.224 180.573 108.156 180.727 108.02 180.798C107.884 180.869 107.692 180.904 107.445 180.904ZM105.594 180.366H107.309C107.286 180.043 107.201 179.8 107.049 179.641C106.896 179.48 106.699 179.4 106.45 179.4C106.214 179.4 106.02 179.481 105.869 179.645C105.718 179.807 105.626 180.047 105.594 180.366Z" fill="white"/>
<path d="M111.381 180.904H109.53C109.533 181.119 109.576 181.309 109.66 181.473C109.744 181.636 109.856 181.76 109.996 181.844C110.136 181.927 110.29 181.968 110.46 181.968C110.572 181.968 110.676 181.956 110.768 181.927C110.863 181.902 110.952 181.86 111.041 181.803C111.13 181.747 111.21 181.687 111.284 181.62C111.356 181.557 111.453 181.468 111.572 181.358C111.621 181.317 111.691 181.294 111.779 181.294C111.877 181.294 111.955 181.321 112.016 181.376C112.076 181.429 112.104 181.503 112.104 181.601C112.104 181.686 112.072 181.786 112.004 181.899C111.939 182.015 111.838 182.125 111.701 182.23C111.566 182.334 111.395 182.422 111.191 182.491C110.988 182.56 110.751 182.595 110.486 182.595C109.877 182.595 109.406 182.422 109.067 182.076C108.73 181.729 108.561 181.258 108.561 180.665C108.561 180.385 108.603 180.125 108.688 179.886C108.77 179.646 108.892 179.442 109.051 179.27C109.21 179.098 109.406 178.968 109.64 178.877C109.873 178.785 110.133 178.74 110.416 178.74C110.785 178.74 111.102 178.818 111.37 178.976C111.633 179.13 111.832 179.332 111.961 179.579C112.092 179.827 112.16 180.078 112.16 180.336C112.16 180.573 112.091 180.727 111.956 180.798C111.819 180.869 111.628 180.904 111.381 180.904ZM109.53 180.366H111.245C111.222 180.043 111.134 179.8 110.985 179.641C110.831 179.48 110.633 179.4 110.385 179.4C110.149 179.4 109.956 179.481 109.803 179.645C109.653 179.807 109.561 180.047 109.53 180.366Z" fill="white"/>
<path d="M113.454 179.28V179.393C113.632 179.173 113.817 179.012 114.011 178.91C114.2 178.806 114.419 178.754 114.661 178.754C114.951 178.754 115.221 178.83 115.466 178.979C115.711 179.13 115.904 179.349 116.046 179.638C116.188 179.928 116.26 180.269 116.26 180.665C116.26 180.955 116.219 181.224 116.138 181.468C116.055 181.712 115.942 181.916 115.798 182.081C115.655 182.245 115.486 182.374 115.291 182.463C115.093 182.551 114.886 182.595 114.661 182.595C114.392 182.595 114.163 182.541 113.98 182.432C113.797 182.326 113.622 182.165 113.454 181.956V183.376C113.454 183.791 113.303 184 113.001 184C112.822 184 112.705 183.947 112.646 183.84C112.591 183.731 112.561 183.576 112.561 183.369V179.284C112.561 179.104 112.6 178.971 112.678 178.88C112.756 178.794 112.864 178.748 113.001 178.748C113.135 178.748 113.244 178.794 113.328 178.884C113.413 178.976 113.454 179.106 113.454 179.28ZM115.31 180.654C115.31 180.404 115.271 180.19 115.195 180.011C115.119 179.831 115.013 179.694 114.879 179.599C114.746 179.503 114.594 179.455 114.43 179.455C114.169 179.455 113.949 179.558 113.77 179.763C113.59 179.969 113.5 180.271 113.5 180.672C113.5 181.047 113.589 181.341 113.768 181.55C113.946 181.76 114.165 181.864 114.43 181.864C114.586 181.864 114.733 181.817 114.867 181.727C115.002 181.635 115.109 181.499 115.189 181.316C115.269 181.133 115.31 180.912 115.31 180.654Z" fill="white"/>
<path d="M117.213 178.307C117.08 178.307 116.968 178.265 116.876 178.185C116.781 178.103 116.734 177.991 116.734 177.843C116.734 177.709 116.782 177.599 116.879 177.511C116.974 177.426 117.085 177.382 117.212 177.382C117.336 177.382 117.444 177.42 117.538 177.498C117.633 177.578 117.681 177.693 117.681 177.843C117.681 177.989 117.635 178.103 117.543 178.185C117.451 178.265 117.341 178.307 117.213 178.307ZM117.681 179.284V182.022C117.681 182.21 117.636 182.353 117.546 182.449C117.455 182.548 117.342 182.595 117.203 182.595C117.064 182.595 116.953 182.547 116.864 182.447C116.779 182.347 116.735 182.205 116.735 182.022V179.311C116.735 179.125 116.779 178.984 116.864 178.89C116.953 178.794 117.064 178.747 117.203 178.747C117.342 178.747 117.455 178.794 117.546 178.89C117.636 178.985 117.681 179.117 117.681 179.284Z" fill="white"/>
<path d="M120.732 182.163L119.899 180.789L119.385 181.274V182.028C119.385 182.209 119.336 182.349 119.24 182.446C119.146 182.546 119.034 182.595 118.91 182.595C118.765 182.595 118.649 182.547 118.566 182.449C118.484 182.352 118.441 182.209 118.441 182.02V177.983C118.441 177.774 118.483 177.614 118.562 177.504C118.643 177.393 118.761 177.339 118.91 177.339C119.055 177.339 119.17 177.389 119.256 177.489C119.341 177.588 119.385 177.735 119.385 177.928V180.224L120.449 179.107C120.581 178.969 120.68 178.873 120.75 178.822C120.819 178.772 120.904 178.747 121.002 178.747C121.121 178.747 121.218 178.785 121.299 178.86C121.376 178.934 121.416 179.029 121.416 179.142C121.416 179.28 121.287 179.466 121.031 179.697L120.529 180.157L121.499 181.684C121.569 181.798 121.623 181.882 121.653 181.941C121.684 182 121.701 182.058 121.701 182.11C121.701 182.261 121.659 182.378 121.576 182.466C121.494 182.552 121.386 182.595 121.253 182.595C121.138 182.595 121.048 182.566 120.986 182.502C120.924 182.439 120.838 182.326 120.732 182.163Z" fill="white"/>
<path d="M122.788 182.596C122.645 182.596 122.522 182.55 122.418 182.457C122.314 182.366 122.261 182.236 122.261 182.068C122.261 181.928 122.312 181.806 122.411 181.705C122.511 181.604 122.632 181.552 122.778 181.552C122.924 181.552 123.047 181.604 123.152 181.703C123.254 181.803 123.306 181.926 123.306 182.068C123.306 182.234 123.254 182.363 123.152 182.455C123.047 182.55 122.926 182.596 122.788 182.596Z" fill="white"/>
<path d="M127.495 181.424C127.495 181.541 127.459 181.668 127.389 181.801C127.319 181.936 127.21 182.063 127.065 182.185C126.921 182.306 126.74 182.404 126.52 182.478C126.3 182.552 126.052 182.59 125.779 182.59C125.193 182.59 124.736 182.418 124.407 182.079C124.081 181.738 123.916 181.28 123.916 180.707C123.916 180.317 123.991 179.975 124.142 179.676C124.291 179.379 124.508 179.148 124.792 178.985C125.076 178.822 125.418 178.74 125.812 178.74C126.058 178.74 126.281 178.776 126.488 178.848C126.692 178.919 126.865 179.012 127.008 179.125C127.149 179.24 127.258 179.359 127.332 179.487C127.408 179.616 127.445 179.735 127.445 179.847C127.445 179.96 127.404 180.056 127.32 180.134C127.234 180.213 127.131 180.252 127.014 180.252C126.934 180.252 126.869 180.232 126.816 180.192C126.763 180.151 126.705 180.086 126.642 179.994C126.526 179.82 126.406 179.687 126.278 179.6C126.153 179.512 125.994 179.469 125.799 179.469C125.521 179.469 125.294 179.577 125.122 179.796C124.952 180.013 124.866 180.314 124.866 180.691C124.866 180.869 124.889 181.034 124.933 181.183C124.976 181.331 125.039 181.459 125.123 181.564C125.207 181.669 125.307 181.748 125.424 181.802C125.542 181.859 125.673 181.885 125.813 181.885C126.003 181.885 126.165 181.841 126.3 181.754C126.438 181.666 126.557 181.532 126.66 181.351C126.717 181.245 126.78 181.162 126.846 181.102C126.912 181.042 126.995 181.011 127.093 181.011C127.208 181.011 127.304 181.056 127.379 181.143C127.455 181.231 127.495 181.325 127.495 181.424Z" fill="white"/>
<path d="M131.578 180.672C131.578 180.953 131.534 181.214 131.448 181.453C131.359 181.691 131.232 181.896 131.066 182.065C130.9 182.236 130.7 182.367 130.47 182.459C130.237 182.55 129.977 182.596 129.689 182.596C129.403 182.596 129.145 182.55 128.915 182.456C128.688 182.366 128.488 182.233 128.322 182.062C128.154 181.888 128.027 181.685 127.938 181.45C127.855 181.215 127.81 180.955 127.81 180.672C127.81 180.385 127.855 180.123 127.941 179.885C128.029 179.646 128.156 179.442 128.32 179.274C128.484 179.106 128.682 178.976 128.915 178.884C129.15 178.793 129.407 178.748 129.689 178.748C129.975 178.748 130.235 178.793 130.469 178.887C130.702 178.979 130.901 179.111 131.07 179.281C131.236 179.454 131.363 179.656 131.449 179.891C131.534 180.128 131.578 180.387 131.578 180.672ZM130.628 180.672C130.628 180.286 130.543 179.986 130.374 179.771C130.205 179.554 129.976 179.447 129.69 179.447C129.504 179.447 129.341 179.496 129.2 179.591C129.059 179.687 128.951 179.828 128.875 180.016C128.798 180.204 128.76 180.422 128.76 180.672C128.76 180.92 128.797 181.135 128.873 181.319C128.949 181.505 129.056 181.647 129.196 181.745C129.337 181.842 129.501 181.892 129.689 181.892C129.976 181.892 130.204 181.784 130.373 181.567C130.542 181.351 130.628 181.052 130.628 180.672Z" fill="white"/>
<path d="M135.188 180.742V182C135.188 182.199 135.144 182.347 135.053 182.447C134.962 182.547 134.845 182.596 134.697 182.596C134.553 182.596 134.436 182.547 134.35 182.447C134.26 182.347 134.214 182.199 134.214 182V180.492C134.214 180.253 134.206 180.068 134.19 179.936C134.174 179.807 134.129 179.697 134.059 179.613C133.987 179.528 133.873 179.485 133.719 179.485C133.409 179.485 133.206 179.591 133.107 179.807C133.009 180.017 132.959 180.322 132.959 180.722V182C132.959 182.196 132.914 182.344 132.827 182.446C132.736 182.545 132.62 182.596 132.475 182.596C132.33 182.596 132.213 182.545 132.122 182.446C132.03 182.345 131.985 182.196 131.985 182V179.292C131.985 179.114 132.025 178.979 132.107 178.887C132.191 178.793 132.299 178.748 132.432 178.748C132.562 178.748 132.67 178.792 132.758 178.877C132.844 178.964 132.886 179.084 132.886 179.236V179.325C133.052 179.13 133.228 178.985 133.414 178.895C133.602 178.8 133.808 178.753 134.039 178.753C134.276 178.753 134.481 178.801 134.651 178.896C134.822 178.991 134.962 179.135 135.074 179.325C135.234 179.133 135.406 178.989 135.589 178.895C135.771 178.8 135.973 178.753 136.195 178.753C136.453 178.753 136.677 178.806 136.864 178.907C137.051 179.008 137.19 179.155 137.283 179.343C137.364 179.515 137.403 179.784 137.403 180.152V181.999C137.403 182.199 137.359 182.346 137.269 182.447C137.18 182.547 137.06 182.596 136.912 182.596C136.768 182.596 136.651 182.545 136.56 182.445C136.469 182.344 136.423 182.195 136.423 181.999V180.408C136.423 180.204 136.414 180.042 136.398 179.92C136.381 179.796 136.333 179.693 136.258 179.61C136.18 179.527 136.064 179.485 135.91 179.485C135.785 179.485 135.667 179.524 135.554 179.597C135.442 179.669 135.355 179.771 135.291 179.894C135.224 180.054 135.188 180.337 135.188 180.742Z" fill="white"/>
<path d="M91.1903 180.745C91.1911 180.745 91.1914 180.745 91.1914 180.745C91.1732 180.659 91.1593 180.573 91.148 180.489C91.159 180.575 91.1732 180.66 91.1903 180.745Z" fill="white"/>
<path d="M91.4733 181.566C91.4651 181.549 91.4569 181.532 91.4491 181.516C91.4569 181.533 91.4651 181.549 91.4733 181.566Z" fill="white"/>
<path d="M91.2776 181.083C91.324 181.229 91.3798 181.371 91.4444 181.506C91.3787 181.368 91.324 181.226 91.2788 181.083H91.2776Z" fill="white"/>
<path d="M94.8044 176.818C94.9873 176.818 95.1223 176.832 95.2766 176.858L95.3208 176.579C95.3208 176.579 94.8935 176.448 94.3315 176.494L94.2874 176.343C94.4618 176.306 94.5932 176.151 94.5932 175.965C94.5932 175.753 94.4202 175.581 94.2075 175.581C93.9947 175.581 93.8221 175.753 93.8221 175.965C93.8221 176.151 93.9528 176.306 94.1272 176.343L94.1761 176.512C93.5798 176.594 93.1051 176.826 93.1051 176.826L93.189 177.083C93.5499 176.964 93.8626 176.89 94.1465 176.86C94.4249 176.83 94.634 176.818 94.8044 176.818Z" fill="white"/>
<path d="M91.4957 178.225L91.4978 178.222C91.5121 178.205 91.5256 178.187 91.5391 178.17L91.4249 178.088L91.2468 177.958C91.2369 177.972 90.9567 178.229 90.7356 178.705C90.7264 178.69 90.7151 178.675 90.7027 178.662C90.6363 178.589 90.5436 178.552 90.4261 178.554C90.4247 178.554 90.4228 178.554 90.4207 178.554C90.3477 178.554 90.2977 178.53 90.2648 178.501C90.2973 178.46 90.317 178.407 90.317 178.35C90.317 178.216 90.2076 178.106 90.0729 178.106C89.9383 178.106 89.8288 178.216 89.8288 178.35C89.8288 178.485 89.9383 178.594 90.0729 178.594C90.0941 178.594 90.1141 178.591 90.1339 178.587C90.1937 178.654 90.2889 178.711 90.4287 178.708C90.5006 178.708 90.5531 178.726 90.5885 178.765C90.629 178.81 90.6425 178.873 90.6469 178.922C90.6465 178.922 90.6465 178.923 90.6458 178.923C90.4871 179.357 90.5323 179.897 90.5323 179.897L90.918 179.913C90.926 179.716 90.9541 179.372 91.0538 179.099C91.2453 178.57 91.4862 178.24 91.4957 178.225Z" fill="white"/>
<path d="M98.1614 177.14C98.0275 177.14 97.9177 177.249 97.9177 177.384C97.9177 177.405 97.9206 177.425 97.9261 177.444C97.8589 177.505 97.8006 177.6 97.8027 177.74C97.8042 177.812 97.7856 177.864 97.7466 177.9C97.7159 177.927 97.6769 177.942 97.6389 177.951C97.3517 177.548 96.9982 177.303 96.9982 177.303L96.7208 177.6C96.9303 177.79 97.1441 178.029 97.3514 178.326C97.4955 178.532 97.6429 178.797 97.7663 179.062L98.1396 178.885C98.1396 178.885 97.9691 178.463 97.729 178.085C97.7703 178.07 97.8122 178.047 97.8495 178.014C97.9228 177.949 97.9586 177.855 97.9564 177.738C97.9556 177.662 97.9805 177.611 98.0104 177.577C98.0523 177.609 98.1045 177.629 98.1607 177.629C98.2961 177.629 98.4052 177.52 98.4052 177.385C98.4059 177.248 98.2968 177.14 98.1614 177.14Z" fill="white"/>
<path d="M97.1917 180.498C96.6772 180.748 95.8314 181.08 94.717 181.235C94.2799 181.296 93.8562 181.318 93.4661 181.318C92.9586 181.318 92.5101 181.28 92.166 181.237C91.7734 181.187 91.4665 181.127 91.2786 181.084C91.3238 181.228 91.3782 181.369 91.4442 181.507C91.4453 181.51 91.4471 181.514 91.449 181.517C91.4566 181.533 91.4647 181.549 91.4727 181.566C91.4803 181.581 91.4884 181.597 91.4964 181.612C91.4986 181.617 91.5004 181.621 91.5026 181.624C91.6132 181.832 91.746 182.023 91.8971 182.189C92.4225 182.764 92.9578 182.855 92.9629 182.856L92.9713 182.856L92.9794 182.859C92.9841 182.862 93.4588 183.015 94.1802 183.015C94.89 183.015 95.5869 182.871 96.2503 182.589C96.7422 182.337 97.2074 181.955 97.4377 181.614C97.6158 181.351 97.7449 181.07 97.8212 180.778C97.8617 180.622 97.8938 180.374 97.8748 180.111C97.7296 180.209 97.5012 180.347 97.1917 180.498Z" fill="white"/>
<path d="M91.6606 178.347C91.6457 178.37 91.4227 178.685 91.2465 179.17C91.1144 179.533 91.1202 180.061 91.1202 180.067V180.069C91.1202 180.193 91.1272 180.315 91.141 180.437C91.141 180.44 91.141 180.442 91.1418 180.444C91.1432 180.459 91.1458 180.474 91.1472 180.49C91.1582 180.575 91.1724 180.661 91.1907 180.747C91.4461 180.812 92.9706 181.167 94.6747 180.93C95.7428 180.781 96.5539 180.465 97.0462 180.226C97.4552 180.028 97.7183 179.849 97.8194 179.775C97.7183 179.4 97.4395 178.811 97.1837 178.444C96.4518 177.399 95.6628 177.13 95.2582 177.064C95.1035 177.039 94.9798 177.024 94.8042 177.024C94.6411 177.024 94.4386 177.037 94.1682 177.066C93.8971 177.094 93.5946 177.165 93.2443 177.283C92.7524 177.448 92.3076 177.706 91.9573 178.03L91.9453 178.042C91.8934 178.089 91.7851 178.189 91.6606 178.347ZM96.1376 178.104C96.4882 178.104 96.774 178.389 96.774 178.74C96.774 179.091 96.4882 179.376 96.1376 179.376C95.7869 179.376 95.5019 179.091 95.5019 178.74C95.5019 178.389 95.7869 178.104 96.1376 178.104ZM93.1304 178.079C93.6986 178.079 94.1584 178.539 94.1584 179.107C94.1584 179.675 93.6986 180.134 93.1304 180.134C92.563 180.134 92.1029 179.674 92.1029 179.107C92.1029 178.539 92.563 178.079 93.1304 178.079Z" fill="white"/>
</svg>
