<svg width="80" height="81" viewBox="0 0 80 81" fill="none" xmlns="http://www.w3.org/2000/svg">
<g clip-path="url(#clip0_1_6484)">
<g clip-path="url(#clip1_1_6484)">
<g clip-path="url(#clip2_1_6484)">
<mask id="mask0_1_6484" style="mask-type:luminance" maskUnits="userSpaceOnUse" x="0" y="0" width="80" height="81">
<path d="M79.7021 0.622559H0.000610352V80.3241H79.7021V0.622559Z" fill="white"/>
</mask>
<g mask="url(#mask0_1_6484)">
<path d="M41.2165 77.1359C61.4648 77.1359 77.8792 60.7215 77.8792 40.4732C77.8792 20.225 61.4648 3.81055 41.2165 3.81055C20.9683 3.81055 4.55383 20.225 4.55383 40.4732C4.55383 60.7215 20.9683 77.1359 41.2165 77.1359Z" fill="#BCDDFF"/>
</g>
<mask id="path-3-inside-1_1_6484" fill="white">
<path d="M45.1628 41C45.1628 43.7614 42.9243 46 40.1628 46C37.4014 46 35.1628 43.7614 35.1628 41C35.1628 38.2386 37.4014 36 40.1628 36C42.9243 36 45.1628 38.2386 45.1628 41ZM36.545 41C36.545 42.9981 38.1648 44.6178 40.1628 44.6178C42.1609 44.6178 43.7807 42.9981 43.7807 41C43.7807 39.0019 42.1609 37.3822 40.1628 37.3822C38.1648 37.3822 36.545 39.0019 36.545 41Z"/>
</mask>
<path d="M45.1628 41C45.1628 43.7614 42.9243 46 40.1628 46C37.4014 46 35.1628 43.7614 35.1628 41C35.1628 38.2386 37.4014 36 40.1628 36C42.9243 36 45.1628 38.2386 45.1628 41ZM36.545 41C36.545 42.9981 38.1648 44.6178 40.1628 44.6178C42.1609 44.6178 43.7807 42.9981 43.7807 41C43.7807 39.0019 42.1609 37.3822 40.1628 37.3822C38.1648 37.3822 36.545 39.0019 36.545 41Z" stroke="#A7A7A7" stroke-width="2" mask="url(#path-3-inside-1_1_6484)"/>
<path d="M30.1628 44.184V35.07L36.3628 31.406L35.3458 29.684L28.6538 33.639C28.3498 33.819 28.1628 34.146 28.1628 34.5V44.184C27.0018 44.598 26.1628 45.698 26.1628 47C26.1628 48.654 27.5088 50 29.1628 50C30.8168 50 32.1628 48.654 32.1628 47C32.1628 45.698 31.3238 44.598 30.1628 44.184ZM29.1628 48C28.6118 48 28.1628 47.552 28.1628 47C28.1628 46.448 28.6118 46 29.1628 46C29.7138 46 30.1628 46.448 30.1628 47C30.1628 47.552 29.7138 48 29.1628 48ZM51.1628 44C49.5088 44 48.1628 45.346 48.1628 47C48.1628 47.353 48.2348 47.687 48.3478 48.002L40.1628 52.838L33.7588 49.054L32.7418 50.776L39.6538 54.86C39.8108 54.954 39.9868 55 40.1628 55C40.3388 55 40.5148 54.954 40.6718 54.861L49.6318 49.566C50.0818 49.835 50.6018 50 51.1628 50C52.8168 50 54.1628 48.654 54.1628 47C54.1628 45.346 52.8168 44 51.1628 44ZM51.1628 48C50.6118 48 50.1628 47.552 50.1628 47C50.1628 46.448 50.6118 46 51.1628 46C51.7138 46 52.1628 46.448 52.1628 47C52.1628 47.552 51.7138 48 51.1628 48ZM40.1628 31C40.8938 31 41.5548 30.727 42.0758 30.292L50.1628 35.071V42H52.1628V34.5C52.1628 34.146 51.9758 33.819 51.6718 33.639L43.1048 28.577C43.1408 28.39 43.1628 28.198 43.1628 28C43.1628 26.346 41.8168 25 40.1628 25C38.5088 25 37.1628 26.346 37.1628 28C37.1628 29.654 38.5088 31 40.1628 31ZM40.1628 27C40.7138 27 41.1628 27.448 41.1628 28C41.1628 28.552 40.7138 29 40.1628 29C39.6118 29 39.1628 28.552 39.1628 28C39.1628 27.448 39.6118 27 40.1628 27Z" fill="black"/>
<mask id="path-5-inside-2_1_6484" fill="white">
<path d="M35.8723 38.4327C35.3058 39.3795 35.0683 40.4871 35.1969 41.5829C35.3256 42.6787 35.8131 43.7012 36.5834 44.4911C37.3538 45.281 38.3638 45.7938 39.4561 45.9498C40.5484 46.1058 41.6616 45.896 42.6222 45.3533C43.5829 44.8106 44.337 43.9654 44.7672 42.9494C45.1973 41.9333 45.2794 40.8035 45.0004 39.736C44.7215 38.6685 44.0973 37.7232 43.2251 37.0475C42.3529 36.3717 41.2817 36.0035 40.1784 36L40.1741 37.3822C40.9724 37.3847 41.7475 37.6511 42.3786 38.1401C43.0097 38.629 43.4614 39.313 43.6632 40.0854C43.865 40.8579 43.8057 41.6753 43.4944 42.4105C43.1831 43.1457 42.6375 43.7573 41.9424 44.1499C41.2473 44.5426 40.4418 44.6944 39.6515 44.5815C38.8611 44.4687 38.1303 44.0976 37.5729 43.5261C37.0155 42.9545 36.6627 42.2147 36.5697 41.4218C36.4766 40.6289 36.6484 39.8274 37.0583 39.1424L35.8723 38.4327Z"/>
</mask>
<path d="M35.8723 38.4327C35.3058 39.3795 35.0683 40.4871 35.1969 41.5829C35.3256 42.6787 35.8131 43.7012 36.5834 44.4911C37.3538 45.281 38.3638 45.7938 39.4561 45.9498C40.5484 46.1058 41.6616 45.896 42.6222 45.3533C43.5829 44.8106 44.337 43.9654 44.7672 42.9494C45.1973 41.9333 45.2794 40.8035 45.0004 39.736C44.7215 38.6685 44.0973 37.7232 43.2251 37.0475C42.3529 36.3717 41.2817 36.0035 40.1784 36L40.1741 37.3822C40.9724 37.3847 41.7475 37.6511 42.3786 38.1401C43.0097 38.629 43.4614 39.313 43.6632 40.0854C43.865 40.8579 43.8057 41.6753 43.4944 42.4105C43.1831 43.1457 42.6375 43.7573 41.9424 44.1499C41.2473 44.5426 40.4418 44.6944 39.6515 44.5815C38.8611 44.4687 38.1303 44.0976 37.5729 43.5261C37.0155 42.9545 36.6627 42.2147 36.5697 41.4218C36.4766 40.6289 36.6484 39.8274 37.0583 39.1424L35.8723 38.4327Z" stroke="black" stroke-width="2" mask="url(#path-5-inside-2_1_6484)"/>
</g>
</g>
</g>
<defs>
<clipPath id="clip0_1_6484">
<rect width="79.7015" height="80.9468" fill="white"/>
</clipPath>
<clipPath id="clip1_1_6484">
<rect width="79.7015" height="80.9468" fill="white" transform="translate(-0.000610352)"/>
</clipPath>
<clipPath id="clip2_1_6484">
<rect width="79.7015" height="80.9468" fill="white" transform="translate(-0.0012207)"/>
</clipPath>
</defs>
</svg>
