<svg width="80" height="81" viewBox="0 0 80 81" fill="none" xmlns="http://www.w3.org/2000/svg">
<g clip-path="url(#clip0_1_6475)">
<g clip-path="url(#clip1_1_6475)">
<g clip-path="url(#clip2_1_6475)">
<mask id="mask0_1_6475" style="mask-type:luminance" maskUnits="userSpaceOnUse" x="0" y="0" width="80" height="81">
<path d="M79.704 0.622559H0.00250244V80.3241H79.704V0.622559Z" fill="white"/>
</mask>
<g mask="url(#mask0_1_6475)">
<path d="M39.846 77.1359C60.0942 77.1359 76.5087 60.7215 76.5087 40.4732C76.5087 20.225 60.0942 3.81055 39.846 3.81055C19.5977 3.81055 3.18329 20.225 3.18329 40.4732C3.18329 60.7215 19.5977 77.1359 39.846 77.1359Z" fill="#63D5D5"/>
</g>
<path d="M39.9995 42.5001C39.7926 42.5001 39.5889 42.4485 39.4069 42.3501L23.1569 33.6001C22.9583 33.4931 22.7923 33.3343 22.6766 33.1405C22.5609 32.9468 22.4998 32.7253 22.4998 32.4997C22.4998 32.274 22.5609 32.0526 22.6766 31.8588C22.7923 31.6651 22.9583 31.5063 23.1569 31.3992L39.4069 22.6492C39.589 22.551 39.7926 22.4995 39.9995 22.4995C40.2064 22.4995 40.4101 22.551 40.5922 22.6492L56.8422 31.3992C57.0408 31.5063 57.2068 31.6651 57.3225 31.8588C57.4382 32.0526 57.4993 32.274 57.4993 32.4997C57.4993 32.7253 57.4382 32.9468 57.3225 33.1405C57.2068 33.3343 57.0408 33.4931 56.8422 33.6001L40.5922 42.3501C40.4101 42.4485 40.2065 42.5001 39.9995 42.5001ZM26.3863 32.5001L39.9995 39.8305L53.6128 32.5001L39.9995 25.1699L26.3863 32.5001Z" fill="black"/>
<path d="M39.9995 50.0001C39.7926 50.0001 39.5889 49.9486 39.4069 49.8501L23.1569 41.1001L24.3421 38.9001L39.9995 47.3305L55.6569 38.9001L56.8421 41.101L40.5921 49.851C40.41 49.9492 40.2063 50.0004 39.9995 50.0001Z" fill="black"/>
<path d="M39.9995 57.5001C39.7926 57.5001 39.5889 57.4486 39.4069 57.3501L23.1569 48.6001L24.3421 46.4001L39.9995 54.8305L55.6569 46.4001L56.8421 48.601L40.5921 57.351C40.41 57.4492 40.2063 57.5004 39.9995 57.5001Z" fill="black"/>
</g>
</g>
</g>
<defs>
<clipPath id="clip0_1_6475">
<rect width="79.7015" height="80.9468" fill="white"/>
</clipPath>
<clipPath id="clip1_1_6475">
<rect width="79.7015" height="80.9468" fill="white" transform="translate(-0.000244141)"/>
</clipPath>
<clipPath id="clip2_1_6475">
<rect width="79.7015" height="80.9468" fill="white" transform="translate(-0.000488281)"/>
</clipPath>
</defs>
</svg>
